<svg xmlns="http://www.w3.org/2000/svg" viewBox="0 0 800 600" width="800" height="600"><defs>
  <linearGradient id="wall" x1="0" y1="0" x2="0" y2="1">
    <stop offset="0" stop-color="#332d26"/>
    <stop offset="1" stop-color="#191512"/>
  </linearGradient>
  <linearGradient id="floor" x1="0" y1="0" x2="0" y2="1">
    <stop offset="0" stop-color="#2a231c"/>
    <stop offset="1" stop-color="#141110"/>
  </linearGradient>
  <linearGradient id="door" x1="0" y1="0" x2="1" y2="0">
    <stop offset="0" stop-color="#5d5b58"/>
    <stop offset="0.45" stop-color="#6f6a62"/>
    <stop offset="1" stop-color="#2c2926"/>
  </linearGradient>
  <linearGradient id="beam" x1="0" y1="0" x2="0" y2="1">
    <stop offset="0" stop-color="#c9b488" stop-opacity="0.3"/>
    <stop offset="0.55" stop-color="#c9b488" stop-opacity="0.14"/>
    <stop offset="1" stop-color="#c9b488" stop-opacity="0"/>
  </linearGradient>
  <linearGradient id="beamCore" x1="0" y1="0" x2="0" y2="1">
    <stop offset="0" stop-color="#fff6de" stop-opacity="0.3"/>
    <stop offset="1" stop-color="#fff6de" stop-opacity="0"/>
  </linearGradient>
  <radialGradient id="backglow">
    <stop offset="0" stop-color="#c9b488" stop-opacity="0.3"/>
    <stop offset="1" stop-color="#c9b488" stop-opacity="0"/>
  </radialGradient>
  <radialGradient id="vig" cx="0.5" cy="0.48" r="0.75">
    <stop offset="0.45" stop-color="#000" stop-opacity="0"/>
    <stop offset="1" stop-color="#000" stop-opacity="0.82"/>
  </radialGradient>
  <radialGradient id="halolight" cx="0.5" cy="0.5" r="0.5">
    <stop offset="0" stop-color="#c9b488" stop-opacity="0.4"/>
    <stop offset="1" stop-color="#c9b488" stop-opacity="0"/>
  </radialGradient>
  <filter id="soft" x="-40%" y="-40%" width="180%" height="180%">
    <feGaussianBlur stdDeviation="7"/>
  </filter>
  <filter id="soft2" x="-40%" y="-40%" width="180%" height="180%">
    <feGaussianBlur stdDeviation="2.4"/>
  </filter>
  <clipPath id="opening">
    <rect x="200" y="84" width="420" height="424" rx="3"/>
  </clipPath>
</defs><rect width="800" height="600" fill="#0c0a09"/><rect width="800" height="600" fill="url(#vig)"/><rect x="0" y="70" width="800" height="2" fill="#1b1714" opacity="0.7"/><rect x="0" y="235" width="800" height="2" fill="#1b1714" opacity="0.7"/><rect x="0" y="400" width="800" height="2" fill="#1b1714" opacity="0.7"/><circle cx="300.44" cy="580.74" r="0.96"
      fill="#4a4238" opacity="0.04"/><circle cx="520.14" cy="264.59" r="0.65"
      fill="#4a4238" opacity="0.07"/><circle cx="521.83" cy="359.72" r="1.36"
      fill="#4a4238" opacity="0.05"/><circle cx="623.23" cy="576.09" r="0.57"
      fill="#4a4238" opacity="0.07"/><circle cx="166.05" cy="282.86" r="1.08"
      fill="#4a4238" opacity="0.06"/><circle cx="331.27" cy="334.13" r="0.57"
      fill="#4a4238" opacity="0.04"/><circle cx="721.56" cy="177.22" r="0.8"
      fill="#4a4238" opacity="0.08"/><circle cx="511.56" cy="46.28" r="1.32"
      fill="#4a4238" opacity="0.07"/><circle cx="428.9" cy="416.09" r="1.31"
      fill="#4a4238" opacity="0.06"/><circle cx="505.57" cy="527.29" r="1.12"
      fill="#4a4238" opacity="0.08"/><circle cx="410.88" cy="148.83" r="0.51"
      fill="#4a4238" opacity="0.04"/><circle cx="339.52" cy="32.19" r="0.85"
      fill="#4a4238" opacity="0.04"/><circle cx="599.14" cy="373.32" r="0.94"
      fill="#4a4238" opacity="0.07"/><circle cx="26.65" cy="76.91" r="1.18"
      fill="#4a4238" opacity="0.06"/><circle cx="43.92" cy="329.51" r="0.6"
      fill="#4a4238" opacity="0.07"/><circle cx="93.09" cy="163.36" r="1.19"
      fill="#4a4238" opacity="0.07"/><circle cx="495.19" cy="128.94" r="0.53"
      fill="#4a4238" opacity="0.07"/><circle cx="519.53" cy="355.41" r="0.77"
      fill="#4a4238" opacity="0.08"/><circle cx="190.07" cy="169.82" r="0.62"
      fill="#4a4238" opacity="0.04"/><circle cx="724.02" cy="399.81" r="0.74"
      fill="#4a4238" opacity="0.07"/><circle cx="595.08" cy="335.75" r="0.8"
      fill="#4a4238" opacity="0.06"/><circle cx="102.46" cy="52.53" r="1.23"
      fill="#4a4238" opacity="0.05"/><circle cx="19.58" cy="209.04" r="0.55"
      fill="#4a4238" opacity="0.05"/><circle cx="284.9" cy="134.72" r="1.22"
      fill="#4a4238" opacity="0.05"/><circle cx="67.02" cy="280.69" r="1.03"
      fill="#4a4238" opacity="0.06"/><circle cx="145.94" cy="340.87" r="1.46"
      fill="#4a4238" opacity="0.07"/><circle cx="651.56" cy="171.27" r="1.11"
      fill="#4a4238" opacity="0.08"/><circle cx="727.48" cy="311.56" r="0.98"
      fill="#4a4238" opacity="0.09"/><circle cx="251.45" cy="598.5" r="1.22"
      fill="#4a4238" opacity="0.07"/><circle cx="157.93" cy="580.58" r="1.47"
      fill="#4a4238" opacity="0.08"/><circle cx="763.77" cy="439.06" r="1.37"
      fill="#4a4238" opacity="0.08"/><circle cx="459.25" cy="100.44" r="1.01"
      fill="#4a4238" opacity="0.08"/><circle cx="451.05" cy="443.72" r="1.15"
      fill="#4a4238" opacity="0.05"/><circle cx="306.54" cy="530.23" r="1.15"
      fill="#4a4238" opacity="0.09"/><circle cx="88.08" cy="533.87" r="0.96"
      fill="#4a4238" opacity="0.09"/><circle cx="350.02" cy="108.1" r="0.53"
      fill="#4a4238" opacity="0.05"/><circle cx="749.45" cy="378.28" r="0.53"
      fill="#4a4238" opacity="0.06"/><circle cx="466.03" cy="575.17" r="1.01"
      fill="#4a4238" opacity="0.05"/><circle cx="240.81" cy="254.35" r="0.98"
      fill="#4a4238" opacity="0.05"/><circle cx="182.7" cy="102" r="0.55"
      fill="#4a4238" opacity="0.04"/><circle cx="72.95" cy="566.95" r="1.27"
      fill="#4a4238" opacity="0.07"/><circle cx="718.29" cy="440.83" r="0.65"
      fill="#4a4238" opacity="0.07"/><circle cx="767.6" cy="316.86" r="0.98"
      fill="#4a4238" opacity="0.05"/><circle cx="433.93" cy="193.69" r="0.94"
      fill="#4a4238" opacity="0.08"/><circle cx="366.24" cy="6.63" r="0.68"
      fill="#4a4238" opacity="0.06"/><circle cx="763" cy="329.16" r="0.96"
      fill="#4a4238" opacity="0.08"/><circle cx="638.91" cy="148.44" r="1.09"
      fill="#4a4238" opacity="0.08"/><circle cx="585.26" cy="583.34" r="1.27"
      fill="#4a4238" opacity="0.05"/><circle cx="626.57" cy="509.46" r="0.78"
      fill="#4a4238" opacity="0.09"/><circle cx="441.29" cy="41.09" r="1.28"
      fill="#4a4238" opacity="0.05"/><circle cx="549.49" cy="346.76" r="1.08"
      fill="#4a4238" opacity="0.05"/><circle cx="648.67" cy="50.78" r="1.36"
      fill="#4a4238" opacity="0.06"/><circle cx="320.62" cy="468.48" r="1.19"
      fill="#4a4238" opacity="0.08"/><circle cx="169.9" cy="510.62" r="1.1"
      fill="#4a4238" opacity="0.04"/><circle cx="575.89" cy="531.56" r="1.37"
      fill="#4a4238" opacity="0.04"/><circle cx="741.4" cy="56.48" r="1.08"
      fill="#4a4238" opacity="0.04"/><circle cx="471.5" cy="162.8" r="0.63"
      fill="#4a4238" opacity="0.04"/><circle cx="407.57" cy="438.56" r="0.65"
      fill="#4a4238" opacity="0.04"/><circle cx="321.5" cy="266.77" r="1.24"
      fill="#4a4238" opacity="0.09"/><circle cx="701.62" cy="448.96" r="1.33"
      fill="#4a4238" opacity="0.05"/><circle cx="599.08" cy="90.05" r="1.13"
      fill="#4a4238" opacity="0.07"/><circle cx="192.7" cy="327.88" r="1.26"
      fill="#4a4238" opacity="0.06"/><circle cx="553.11" cy="190.58" r="1.21"
      fill="#4a4238" opacity="0.08"/><circle cx="296.94" cy="517.82" r="0.98"
      fill="#4a4238" opacity="0.09"/><circle cx="662.51" cy="443.12" r="1.14"
      fill="#4a4238" opacity="0.09"/><circle cx="397.9" cy="105.27" r="1.02"
      fill="#4a4238" opacity="0.07"/><circle cx="542.47" cy="73.76" r="0.67"
      fill="#4a4238" opacity="0.05"/><circle cx="787.67" cy="40.61" r="1.33"
      fill="#4a4238" opacity="0.06"/><circle cx="579.74" cy="77.1" r="0.89"
      fill="#4a4238" opacity="0.04"/><circle cx="504.52" cy="356.74" r="0.76"
      fill="#4a4238" opacity="0.08"/><circle cx="46.84" cy="502.75" r="0.98"
      fill="#4a4238" opacity="0.09"/><circle cx="239.86" cy="487.57" r="1.32"
      fill="#4a4238" opacity="0.06"/><circle cx="203.11" cy="325.11" r="0.83"
      fill="#4a4238" opacity="0.05"/><circle cx="370.74" cy="227.32" r="0.86"
      fill="#4a4238" opacity="0.05"/><circle cx="210.76" cy="391.92" r="0.8"
      fill="#4a4238" opacity="0.05"/><circle cx="542.91" cy="318.22" r="0.91"
      fill="#4a4238" opacity="0.06"/><circle cx="262.33" cy="336.64" r="1.03"
      fill="#4a4238" opacity="0.05"/><circle cx="26.45" cy="246.17" r="0.97"
      fill="#4a4238" opacity="0.09"/><circle cx="371.54" cy="390.28" r="1.14"
      fill="#4a4238" opacity="0.08"/><circle cx="614.22" cy="209.79" r="0.87"
      fill="#4a4238" opacity="0.08"/><circle cx="519.43" cy="295.82" r="0.83"
      fill="#4a4238" opacity="0.08"/><circle cx="7.65" cy="598.66" r="1.28"
      fill="#4a4238" opacity="0.05"/><circle cx="269.51" cy="572.02" r="1.12"
      fill="#4a4238" opacity="0.04"/><circle cx="46.84" cy="357.1" r="0.7"
      fill="#4a4238" opacity="0.06"/><circle cx="216.65" cy="246.87" r="1.38"
      fill="#4a4238" opacity="0.08"/><circle cx="327.17" cy="148.47" r="1.18"
      fill="#4a4238" opacity="0.09"/><circle cx="339.76" cy="598.98" r="0.55"
      fill="#4a4238" opacity="0.04"/><circle cx="309.17" cy="295.93" r="1.09"
      fill="#4a4238" opacity="0.07"/><circle cx="770.75" cy="316.45" r="0.87"
      fill="#4a4238" opacity="0.07"/><circle cx="75.5" cy="41.16" r="1.42"
      fill="#4a4238" opacity="0.05"/><rect x="174" y="58" width="472" height="476"
    rx="6" fill="#151210"/><rect x="186" y="70" width="448" height="452"
    rx="4" fill="url(#door)"/><g clip-path="url(#opening)"><rect x="200" y="84" width="420" height="322" fill="url(#wall)"/><path d="200,84 246,114 246,410 200,406" fill="#000" opacity="0.34"/><path d="620,84 574,114 574,410 620,406" fill="#000" opacity="0.34"/><rect x="200" y="402" width="420" height="110" fill="url(#floor)"/><rect x="200" y="402" width="420" height="1.5" fill="#000" opacity="0.5"/><ellipse cx="285.2" cy="212.54" rx="38.01" ry="58.79"
      fill="#0d0a07" opacity="0.13"/><ellipse cx="515.86" cy="233.77" rx="43.79" ry="38.22"
      fill="#0d0a07" opacity="0.12"/><ellipse cx="295.39" cy="138.51" rx="15.25" ry="79.35"
      fill="#0d0a07" opacity="0.18"/><ellipse cx="472.21" cy="257.52" rx="41.36" ry="69.82"
      fill="#0d0a07" opacity="0.19"/><ellipse cx="468.81" cy="245.89" rx="39.52" ry="55.51"
      fill="#0d0a07" opacity="0.12"/><ellipse cx="263.96" cy="318.45" rx="40.48" ry="28.86"
      fill="#0d0a07" opacity="0.12"/><circle cx="414.6" cy="262.56" r="0.62"
      fill="#000" opacity="0.12"/><circle cx="214.8" cy="176.67" r="0.64"
      fill="#000" opacity="0.18"/><circle cx="309.79" cy="155.65" r="1.19"
      fill="#000" opacity="0.16"/><circle cx="493.12" cy="90.05" r="0.78"
      fill="#000" opacity="0.21"/><circle cx="520.9" cy="381.64" r="1.15"
      fill="#000" opacity="0.15"/><circle cx="592.23" cy="303.78" r="1.23"
      fill="#000" opacity="0.15"/><circle cx="337.8" cy="223.5" r="1.02"
      fill="#000" opacity="0.18"/><circle cx="567.97" cy="101.31" r="0.59"
      fill="#000" opacity="0.1"/><circle cx="225.91" cy="190.89" r="0.51"
      fill="#000" opacity="0.17"/><circle cx="302.5" cy="298.5" r="1.44"
      fill="#000" opacity="0.13"/><circle cx="334.85" cy="272.69" r="0.53"
      fill="#000" opacity="0.14"/><circle cx="537.73" cy="214.39" r="0.9"
      fill="#000" opacity="0.1"/><circle cx="325.74" cy="236.79" r="1.19"
      fill="#000" opacity="0.18"/><circle cx="441.6" cy="173.73" r="1.33"
      fill="#000" opacity="0.13"/><circle cx="258.33" cy="160.14" r="1.37"
      fill="#000" opacity="0.21"/><circle cx="616.68" cy="208.27" r="1.07"
      fill="#000" opacity="0.09"/><circle cx="563.23" cy="242.81" r="0.89"
      fill="#000" opacity="0.11"/><circle cx="440.15" cy="294.29" r="0.56"
      fill="#000" opacity="0.21"/><circle cx="283.47" cy="164.11" r="0.53"
      fill="#000" opacity="0.19"/><circle cx="575.97" cy="357.81" r="0.6"
      fill="#000" opacity="0.16"/><circle cx="613.23" cy="303.74" r="1.2"
      fill="#000" opacity="0.17"/><circle cx="339" cy="265.14" r="1.44"
      fill="#000" opacity="0.14"/><circle cx="520.85" cy="250.42" r="1.46"
      fill="#000" opacity="0.21"/><circle cx="492.31" cy="399.71" r="0.79"
      fill="#000" opacity="0.1"/><circle cx="250.87" cy="109.85" r="1.04"
      fill="#000" opacity="0.11"/><circle cx="540.24" cy="156.57" r="0.8"
      fill="#000" opacity="0.19"/><circle cx="341.35" cy="120.98" r="1.29"
      fill="#000" opacity="0.1"/><circle cx="244.92" cy="225.59" r="0.98"
      fill="#000" opacity="0.15"/><circle cx="586.13" cy="220.84" r="0.63"
      fill="#000" opacity="0.2"/><circle cx="298.22" cy="328.61" r="0.6"
      fill="#000" opacity="0.15"/><circle cx="201.49" cy="123.12" r="0.87"
      fill="#000" opacity="0.18"/><circle cx="268.93" cy="138.79" r="0.65"
      fill="#000" opacity="0.14"/><circle cx="321.12" cy="244.28" r="1.07"
      fill="#000" opacity="0.19"/><circle cx="310.24" cy="107.64" r="1.07"
      fill="#000" opacity="0.11"/><circle cx="380.21" cy="246.96" r="1.04"
      fill="#000" opacity="0.16"/><circle cx="318.24" cy="396.13" r="0.91"
      fill="#000" opacity="0.16"/><circle cx="535.07" cy="237.71" r="1.11"
      fill="#000" opacity="0.17"/><circle cx="375.05" cy="305.21" r="1.1"
      fill="#000" opacity="0.18"/><circle cx="600.89" cy="366.61" r="1.33"
      fill="#000" opacity="0.2"/><circle cx="416.54" cy="371.1" r="0.61"
      fill="#000" opacity="0.2"/><circle cx="344.56" cy="189.11" r="0.68"
      fill="#000" opacity="0.19"/><circle cx="552.96" cy="382.07" r="1.09"
      fill="#000" opacity="0.15"/><circle cx="259.21" cy="239.7" r="0.83"
      fill="#000" opacity="0.21"/><circle cx="451.56" cy="250.73" r="1.33"
      fill="#000" opacity="0.2"/><circle cx="314.83" cy="260.48" r="1.21"
      fill="#000" opacity="0.17"/><circle cx="541.51" cy="162.76" r="0.64"
      fill="#000" opacity="0.21"/><circle cx="588.25" cy="389.93" r="0.59"
      fill="#000" opacity="0.22"/><circle cx="491.4" cy="99.88" r="0.69"
      fill="#000" opacity="0.21"/><circle cx="396.72" cy="290.2" r="0.87"
      fill="#000" opacity="0.17"/><circle cx="387.35" cy="152.91" r="1.47"
      fill="#000" opacity="0.18"/><circle cx="489.89" cy="254.02" r="0.56"
      fill="#000" opacity="0.22"/><circle cx="326.71" cy="341.58" r="0.82"
      fill="#000" opacity="0.13"/><circle cx="401.55" cy="371.22" r="0.64"
      fill="#000" opacity="0.15"/><circle cx="436.64" cy="324.36" r="0.89"
      fill="#000" opacity="0.17"/><circle cx="421.95" cy="247.49" r="1.3"
      fill="#000" opacity="0.14"/><circle cx="534.37" cy="219.96" r="0.53"
      fill="#000" opacity="0.11"/><circle cx="499.13" cy="249.78" r="1.47"
      fill="#000" opacity="0.12"/><circle cx="607.65" cy="251.28" r="0.65"
      fill="#000" opacity="0.19"/><circle cx="457.36" cy="386.24" r="0.98"
      fill="#000" opacity="0.09"/><circle cx="401.17" cy="257.34" r="1.28"
      fill="#000" opacity="0.15"/><circle cx="350.06" cy="200.07" r="1.21"
      fill="#000" opacity="0.11"/><circle cx="492.09" cy="154.39" r="0.67"
      fill="#000" opacity="0.11"/><circle cx="571.97" cy="343.45" r="0.81"
      fill="#000" opacity="0.13"/><circle cx="211.71" cy="129.83" r="0.83"
      fill="#000" opacity="0.11"/><circle cx="512.32" cy="300.88" r="0.67"
      fill="#000" opacity="0.14"/><circle cx="611.91" cy="273.97" r="0.96"
      fill="#000" opacity="0.15"/><circle cx="265.79" cy="366.28" r="1.49"
      fill="#000" opacity="0.12"/><circle cx="339.68" cy="340.58" r="0.67"
      fill="#000" opacity="0.16"/><circle cx="565.69" cy="235.17" r="0.86"
      fill="#000" opacity="0.12"/><circle cx="301.19" cy="236.04" r="0.97"
      fill="#000" opacity="0.2"/><ellipse cx="393.7" cy="362" rx="142.45" ry="150"
    fill="url(#backglow)" opacity="0.7"/><path d="M 225.71 472.95 l 7.18 2.93
        l -1.23 3.95" stroke="#5c4e3a"
        stroke-width="1.68" fill="none" opacity="0.47"/><path d="M 420.86 479.75 l 8.02 -3.54
        l -7.77 3.59" stroke="#5c4e3a"
        stroke-width="2.18" fill="none" opacity="0.43"/><rect x="314.8" y="490.34" width="18.96" height="3.38"
        fill="#6b5b44" opacity="0.54" transform="rotate(8.08 314.8 490.34)"/><path d="M 399.83 469.38 l -7.86 -4.07
        l 4.79 -3.88" stroke="#5c4e3a"
        stroke-width="2.39" fill="none" opacity="0.49"/><ellipse cx="542.16" cy="478.1" rx="5.9" ry="4.97"
        fill="#4a3f30" opacity="0.3"/><ellipse cx="507.53" cy="493.84" rx="6.83" ry="4.26"
        fill="#4a3f30" opacity="0.39"/><rect x="339.98" y="465.08" width="20.65" height="4.18"
        fill="#6b5b44" opacity="0.54" transform="rotate(12.23 339.98 465.08)"/><ellipse cx="410" cy="449" rx="110.92" ry="12" fill="#000" opacity="0.5" filter="url(#soft)"/>
      <rect x="303.35" y="310.64" width="213.31" height="135.36" fill="#0e1a1c" opacity="0.8"/>
      <rect x="303.35" y="310.64" width="213.31" height="135.36" fill="url(#backglow)" opacity="0.45"/>
      <rect x="303.35" y="310.64" width="213.31" height="135.36" fill="none" stroke="#2a3a3c" stroke-width="11"/>
      <rect x="307.35" y="314.64" width="34.13" height="127.36" fill="#fff" opacity="0.12"/>
      <path d="M 337.48 324.18 l 42.66 54.14 l -12.8 -27.07" stroke="#cfe4e8" stroke-width="3" fill="none" opacity="0.22"/>
      <path d="M 431.33 332.3 l 34.13 67.68" stroke="#cfe4e8" stroke-width="2.4" fill="none" opacity="0.16"/>
      <rect x="295.35" y="298.64" width="229.31" height="14" rx="3" fill="#232c2e"/>
      <rect x="295.35" y="440" width="229.31" height="14" rx="3" fill="#232c2e"/>
      <rect x="394" y="351.25" width="32" height="12" rx="3" fill="#2f3a3c"/><rect x="346.01" y="408.1" width="72.52" height="13.54" rx="4" fill="#2a2622" opacity="0.7"/><path d="M 431.33 418.93 q -20 -27.07 6 -40.61" stroke="#3a4a3a" stroke-width="5" fill="none" opacity="0.7"/><circle cx="319.61" cy="336.8" r="0.8"
      fill="#9ab0b4" opacity="0.09"/><circle cx="493.78" cy="383.63" r="1.14"
      fill="#9ab0b4" opacity="0.08"/><circle cx="346.67" cy="319" r="0.9"
      fill="#9ab0b4" opacity="0.09"/><circle cx="494.13" cy="337.04" r="1.02"
      fill="#9ab0b4" opacity="0.05"/><circle cx="324.82" cy="432.18" r="0.59"
      fill="#9ab0b4" opacity="0.05"/><circle cx="493.15" cy="434.68" r="0.58"
      fill="#9ab0b4" opacity="0.05"/><circle cx="460.97" cy="399.9" r="1.27"
      fill="#9ab0b4" opacity="0.09"/><circle cx="395.2" cy="330.35" r="0.57"
      fill="#9ab0b4" opacity="0.06"/><circle cx="333.27" cy="422.14" r="0.52"
      fill="#9ab0b4" opacity="0.09"/><circle cx="393.44" cy="401.77" r="0.72"
      fill="#9ab0b4" opacity="0.07"/><circle cx="317.07" cy="408.25" r="0.79"
      fill="#9ab0b4" opacity="0.08"/><circle cx="365.81" cy="430.82" r="1.32"
      fill="#9ab0b4" opacity="0.07"/><circle cx="366.46" cy="364.4" r="1.33"
      fill="#9ab0b4" opacity="0.1"/><circle cx="416.07" cy="443.62" r="0.64"
      fill="#9ab0b4" opacity="0.04"/><circle cx="324.93" cy="373.84" r="1.33"
      fill="#9ab0b4" opacity="0.06"/><circle cx="366.36" cy="398.92" r="1.26"
      fill="#9ab0b4" opacity="0.07"/><circle cx="348.71" cy="377.61" r="0.51"
      fill="#9ab0b4" opacity="0.06"/><circle cx="320.33" cy="445.04" r="0.92"
      fill="#9ab0b4" opacity="0.1"/><circle cx="505.83" cy="393.02" r="1.02"
      fill="#9ab0b4" opacity="0.06"/><circle cx="392.86" cy="418.03" r="0.78"
      fill="#9ab0b4" opacity="0.04"/><circle cx="381.5" cy="398.83" r="0.83"
      fill="#9ab0b4" opacity="0.05"/><circle cx="498.19" cy="444.71" r="1.43"
      fill="#9ab0b4" opacity="0.05"/><circle cx="330.06" cy="427.99" r="1.47"
      fill="#9ab0b4" opacity="0.05"/><circle cx="404.74" cy="371.01" r="0.82"
      fill="#9ab0b4" opacity="0.1"/><circle cx="326.57" cy="364.64" r="0.77"
      fill="#9ab0b4" opacity="0.08"/><circle cx="308.75" cy="392.59" r="1.15"
      fill="#9ab0b4" opacity="0.09"/><circle cx="369.55" cy="331.4" r="0.89"
      fill="#9ab0b4" opacity="0.06"/><circle cx="433.84" cy="409.62" r="0.58"
      fill="#9ab0b4" opacity="0.06"/><circle cx="506.4" cy="366.43" r="0.5"
      fill="#9ab0b4" opacity="0.09"/><circle cx="421.98" cy="323.52" r="1.24"
      fill="#9ab0b4" opacity="0.06"/><polygon points="343.97,-60 104.66,640 715.28,640" fill="url(#beam)"/><polygon points="343.97,-60 306.16,640 513.77,640" fill="url(#beamCore)"/><circle cx="379.45" cy="161.54" r="0.78" fill="#f0e0bd"
      opacity="0.18"/><circle cx="545.1" cy="212.42" r="2.34" fill="#f0e0bd"
      opacity="0.19"/><circle cx="440" cy="39.86" r="1.46" fill="#f0e0bd"
      opacity="0.27"/><circle cx="337.36" cy="445.86" r="0.95" fill="#f0e0bd"
      opacity="0.28"/><circle cx="374.32" cy="276.54" r="1.46" fill="#f0e0bd"
      opacity="0.26"/><circle cx="588.01" cy="355.67" r="0.82" fill="#f0e0bd"
      opacity="0.29"/><circle cx="531.81" cy="487.14" r="1.04" fill="#f0e0bd"
      opacity="0.13"/><circle cx="434.34" cy="161.24" r="2.26" fill="#f0e0bd"
      opacity="0.25"/><circle cx="337.9" cy="283.08" r="1.14" fill="#f0e0bd"
      opacity="0.36"/><circle cx="398.12" cy="15.56" r="2.17" fill="#f0e0bd"
      opacity="0.23"/><circle cx="366.52" cy="417.53" r="1.02" fill="#f0e0bd"
      opacity="0.25"/><circle cx="271.96" cy="514.25" r="1.64" fill="#f0e0bd"
      opacity="0.22"/><circle cx="252.78" cy="499.27" r="1.98" fill="#f0e0bd"
      opacity="0.25"/><circle cx="294.43" cy="215.94" r="2.16" fill="#f0e0bd"
      opacity="0.34"/><circle cx="374.35" cy="3.82" r="0.79" fill="#f0e0bd"
      opacity="0.36"/><circle cx="375.91" cy="7.13" r="2.11" fill="#f0e0bd"
      opacity="0.15"/><circle cx="466.15" cy="164.96" r="0.87" fill="#f0e0bd"
      opacity="0.38"/><circle cx="456.14" cy="182.86" r="2.36" fill="#f0e0bd"
      opacity="0.17"/><circle cx="317.28" cy="307.14" r="1.49" fill="#f0e0bd"
      opacity="0.35"/><circle cx="427.9" cy="123.17" r="2.2" fill="#f0e0bd"
      opacity="0.29"/><circle cx="454.79" cy="266.41" r="1.67" fill="#f0e0bd"
      opacity="0.17"/><circle cx="306.76" cy="200.9" r="1.94" fill="#f0e0bd"
      opacity="0.34"/><circle cx="436.81" cy="350.33" r="1.36" fill="#f0e0bd"
      opacity="0.25"/><circle cx="184.34" cy="489.08" r="2.11" fill="#f0e0bd"
      opacity="0.18"/><circle cx="575.85" cy="340.81" r="0.88" fill="#f0e0bd"
      opacity="0.29"/><circle cx="249.96" cy="452.21" r="1.88" fill="#f0e0bd"
      opacity="0.28"/><circle cx="553.26" cy="451.25" r="2.03" fill="#f0e0bd"
      opacity="0.22"/><circle cx="388.31" cy="20.28" r="1.42" fill="#f0e0bd"
      opacity="0.26"/><circle cx="288.95" cy="382.96" r="2.07" fill="#f0e0bd"
      opacity="0.1"/><circle cx="370.61" cy="38.85" r="1.7" fill="#f0e0bd"
      opacity="0.21"/><circle cx="217.63" cy="447.94" r="1.18" fill="#f0e0bd"
      opacity="0.29"/><circle cx="454.72" cy="161.94" r="1.17" fill="#f0e0bd"
      opacity="0.31"/><circle cx="383.23" cy="108.26" r="1" fill="#f0e0bd"
      opacity="0.26"/><circle cx="437.99" cy="140.62" r="1.79" fill="#f0e0bd"
      opacity="0.3"/><circle cx="283.88" cy="497.67" r="1.73" fill="#f0e0bd"
      opacity="0.18"/><circle cx="513.89" cy="291.92" r="1.33" fill="#f0e0bd"
      opacity="0.31"/><circle cx="194.35" cy="446.84" r="2.22" fill="#f0e0bd"
      opacity="0.1"/><circle cx="560.08" cy="301.25" r="2.2" fill="#f0e0bd"
      opacity="0.3"/><circle cx="433.48" cy="162.94" r="2.13" fill="#f0e0bd"
      opacity="0.25"/><circle cx="293.08" cy="267.19" r="2.09" fill="#f0e0bd"
      opacity="0.28"/><circle cx="230.84" cy="366.55" r="0.78" fill="#f0e0bd"
      opacity="0.29"/><circle cx="339.24" cy="126.84" r="1.28" fill="#f0e0bd"
      opacity="0.31"/><circle cx="548.56" cy="341.34" r="1.96" fill="#f0e0bd"
      opacity="0.09"/><circle cx="254.06" cy="408.15" r="2.16" fill="#f0e0bd"
      opacity="0.08"/><circle cx="452.93" cy="65.36" r="1.29" fill="#f0e0bd"
      opacity="0.23"/><circle cx="542.06" cy="261.73" r="1.42" fill="#f0e0bd"
      opacity="0.33"/><circle cx="431.81" cy="4.85" r="1.58" fill="#f0e0bd"
      opacity="0.21"/><circle cx="639.57" cy="501.53" r="1.52" fill="#f0e0bd"
      opacity="0.17"/><circle cx="383.01" cy="191.03" r="1.25" fill="#f0e0bd"
      opacity="0.23"/><circle cx="381.52" cy="76.21" r="2.25" fill="#f0e0bd"
      opacity="0.38"/><circle cx="533.06" cy="356.25" r="1.5" fill="#f0e0bd"
      opacity="0.18"/><circle cx="425.03" cy="50.23" r="2.3" fill="#f0e0bd"
      opacity="0.33"/><circle cx="190.37" cy="486.56" r="2.23" fill="#f0e0bd"
      opacity="0.23"/><circle cx="653.15" cy="511.15" r="1.09" fill="#f0e0bd"
      opacity="0.24"/><circle cx="445.23" cy="77.19" r="1.61" fill="#f0e0bd"
      opacity="0.45"/><circle cx="354.85" cy="150.96" r="1.25" fill="#f0e0bd"
      opacity="0.32"/><circle cx="311.45" cy="484.37" r="2.29" fill="#f0e0bd"
      opacity="0.12"/><circle cx="235.59" cy="488.55" r="1.69" fill="#f0e0bd"
      opacity="0.21"/><circle cx="567.54" cy="253.74" r="0.86" fill="#f0e0bd"
      opacity="0.15"/><circle cx="229.49" cy="331.77" r="1.6" fill="#f0e0bd"
      opacity="0.32"/><circle cx="305.25" cy="529.09" r="1.39" fill="#f0e0bd"
      opacity="0.14"/><circle cx="536.65" cy="333.96" r="1.15" fill="#f0e0bd"
      opacity="0.19"/><circle cx="287.62" cy="200.06" r="1.88" fill="#f0e0bd"
      opacity="0.17"/><circle cx="386.21" cy="4.73" r="1.39" fill="#f0e0bd"
      opacity="0.41"/><circle cx="324.78" cy="400.79" r="1.05" fill="#f0e0bd"
      opacity="0.27"/><circle cx="376.66" cy="528.22" r="1.28" fill="#f0e0bd"
      opacity="0.12"/><circle cx="200.48" cy="495.48" r="0.73" fill="#f0e0bd"
      opacity="0.26"/></g><rect x="186" y="70" width="52.42" height="452" fill="url(#door)"/><rect x="186" y="78" width="52.42" height="4" fill="#000" opacity="0.34"/><rect x="186" y="82" width="52.42" height="1.5" fill="#fff" opacity="0.07"/><rect x="186" y="91" width="52.42" height="4" fill="#000" opacity="0.34"/><rect x="186" y="95" width="52.42" height="1.5" fill="#fff" opacity="0.07"/><rect x="186" y="104" width="52.42" height="4" fill="#000" opacity="0.34"/><rect x="186" y="108" width="52.42" height="1.5" fill="#fff" opacity="0.07"/><rect x="186" y="117" width="52.42" height="4" fill="#000" opacity="0.34"/><rect x="186" y="121" width="52.42" height="1.5" fill="#fff" opacity="0.07"/><rect x="186" y="130" width="52.42" height="4" fill="#000" opacity="0.34"/><rect x="186" y="134" width="52.42" height="1.5" fill="#fff" opacity="0.07"/><rect x="186" y="143" width="52.42" height="4" fill="#000" opacity="0.34"/><rect x="186" y="147" width="52.42" height="1.5" fill="#fff" opacity="0.07"/><rect x="186" y="156" width="52.42" height="4" fill="#000" opacity="0.34"/><rect x="186" y="160" width="52.42" height="1.5" fill="#fff" opacity="0.07"/><rect x="186" y="169" width="52.42" height="4" fill="#000" opacity="0.34"/><rect x="186" y="173" width="52.42" height="1.5" fill="#fff" opacity="0.07"/><rect x="186" y="182" width="52.42" height="4" fill="#000" opacity="0.34"/><rect x="186" y="186" width="52.42" height="1.5" fill="#fff" opacity="0.07"/><rect x="186" y="195" width="52.42" height="4" fill="#000" opacity="0.34"/><rect x="186" y="199" width="52.42" height="1.5" fill="#fff" opacity="0.07"/><rect x="186" y="208" width="52.42" height="4" fill="#000" opacity="0.34"/><rect x="186" y="212" width="52.42" height="1.5" fill="#fff" opacity="0.07"/><rect x="186" y="221" width="52.42" height="4" fill="#000" opacity="0.34"/><rect x="186" y="225" width="52.42" height="1.5" fill="#fff" opacity="0.07"/><rect x="186" y="234" width="52.42" height="4" fill="#000" opacity="0.34"/><rect x="186" y="238" width="52.42" height="1.5" fill="#fff" opacity="0.07"/><rect x="186" y="247" width="52.42" height="4" fill="#000" opacity="0.34"/><rect x="186" y="251" width="52.42" height="1.5" fill="#fff" opacity="0.07"/><rect x="186" y="260" width="52.42" height="4" fill="#000" opacity="0.34"/><rect x="186" y="264" width="52.42" height="1.5" fill="#fff" opacity="0.07"/><rect x="186" y="273" width="52.42" height="4" fill="#000" opacity="0.34"/><rect x="186" y="277" width="52.42" height="1.5" fill="#fff" opacity="0.07"/><rect x="186" y="286" width="52.42" height="4" fill="#000" opacity="0.34"/><rect x="186" y="290" width="52.42" height="1.5" fill="#fff" opacity="0.07"/><rect x="186" y="299" width="52.42" height="4" fill="#000" opacity="0.34"/><rect x="186" y="303" width="52.42" height="1.5" fill="#fff" opacity="0.07"/><rect x="186" y="312" width="52.42" height="4" fill="#000" opacity="0.34"/><rect x="186" y="316" width="52.42" height="1.5" fill="#fff" opacity="0.07"/><rect x="186" y="325" width="52.42" height="4" fill="#000" opacity="0.34"/><rect x="186" y="329" width="52.42" height="1.5" fill="#fff" opacity="0.07"/><rect x="186" y="338" width="52.42" height="4" fill="#000" opacity="0.34"/><rect x="186" y="342" width="52.42" height="1.5" fill="#fff" opacity="0.07"/><rect x="186" y="351" width="52.42" height="4" fill="#000" opacity="0.34"/><rect x="186" y="355" width="52.42" height="1.5" fill="#fff" opacity="0.07"/><rect x="186" y="364" width="52.42" height="4" fill="#000" opacity="0.34"/><rect x="186" y="368" width="52.42" height="1.5" fill="#fff" opacity="0.07"/><rect x="186" y="377" width="52.42" height="4" fill="#000" opacity="0.34"/><rect x="186" y="381" width="52.42" height="1.5" fill="#fff" opacity="0.07"/><rect x="186" y="390" width="52.42" height="4" fill="#000" opacity="0.34"/><rect x="186" y="394" width="52.42" height="1.5" fill="#fff" opacity="0.07"/><rect x="186" y="403" width="52.42" height="4" fill="#000" opacity="0.34"/><rect x="186" y="407" width="52.42" height="1.5" fill="#fff" opacity="0.07"/><rect x="186" y="416" width="52.42" height="4" fill="#000" opacity="0.34"/><rect x="186" y="420" width="52.42" height="1.5" fill="#fff" opacity="0.07"/><rect x="186" y="429" width="52.42" height="4" fill="#000" opacity="0.34"/><rect x="186" y="433" width="52.42" height="1.5" fill="#fff" opacity="0.07"/><rect x="186" y="442" width="52.42" height="4" fill="#000" opacity="0.34"/><rect x="186" y="446" width="52.42" height="1.5" fill="#fff" opacity="0.07"/><rect x="186" y="455" width="52.42" height="4" fill="#000" opacity="0.34"/><rect x="186" y="459" width="52.42" height="1.5" fill="#fff" opacity="0.07"/><rect x="186" y="468" width="52.42" height="4" fill="#000" opacity="0.34"/><rect x="186" y="472" width="52.42" height="1.5" fill="#fff" opacity="0.07"/><rect x="186" y="481" width="52.42" height="4" fill="#000" opacity="0.34"/><rect x="186" y="485" width="52.42" height="1.5" fill="#fff" opacity="0.07"/><rect x="186" y="494" width="52.42" height="4" fill="#000" opacity="0.34"/><rect x="186" y="498" width="52.42" height="1.5" fill="#fff" opacity="0.07"/><rect x="186" y="507" width="52.42" height="4" fill="#000" opacity="0.34"/><rect x="186" y="511" width="52.42" height="1.5" fill="#fff" opacity="0.07"/><rect x="247.42" y="70" width="5" height="452" fill="#000" opacity="0.42"/><rect x="188" y="114" width="34" height="17" rx="3" fill="#4e4b47"/><circle cx="208" cy="122.5" r="3.4" fill="#0a0908"/><rect x="188" y="382" width="34" height="17" rx="3" fill="#4e4b47"/><circle cx="208" cy="390.5" r="3.4" fill="#0a0908"/><g transform="translate(250.42 464)">
    <path d="M 6 0 a 8 8 0 0 1 16 0 v 8 h -16 z" fill="none" stroke="#9a938a" stroke-width="4"/>
    <rect x="0" y="8" width="28" height="22" rx="3" fill="#8d857b"/>
    <rect x="0" y="8" width="28" height="7" rx="3" fill="#b3aaa0" opacity="0.7"/>
    <circle cx="14" cy="19" r="3.6" fill="#26221e"/>
  </g><rect x="617" y="70" width="18" height="452" fill="#0e0c0a"/><rect x="186" y="54" width="448" height="17" fill="#0e0c0a"/><rect x="186" y="54" width="448" height="3" fill="#3a342c" opacity="0.6"/><text x="42.54" y="143.54" font-family="'Arial Black',Arial,sans-serif"
    font-size="26.88" font-weight="900" letter-spacing="2"
    fill="#cbb994" opacity="0.5">F-763</text><rect x="77.27" y="127.69"
      width="7.64" height="3.27" fill="#0c0a09" opacity="0.85"/><rect x="70.62" y="132.37"
      width="7.82" height="3.74" fill="#0c0a09" opacity="0.85"/><rect x="43.53" y="134.47"
      width="6.87" height="3.82" fill="#0c0a09" opacity="0.85"/><rect x="90.31" y="130.97"
      width="9.74" height="2.53" fill="#0c0a09" opacity="0.85"/><rect x="88.67" y="143.54" width="4.79"
    height="26.38" fill="#8f7f61" opacity="0.22"/><rect width="800" height="600" fill="url(#vig)"/></svg>