<svg xmlns="http://www.w3.org/2000/svg" viewBox="0 0 800 600" width="800" height="600"><defs>
  <linearGradient id="wall" x1="0" y1="0" x2="0" y2="1">
    <stop offset="0" stop-color="#3b2d18"/>
    <stop offset="1" stop-color="#100a05"/>
  </linearGradient>
  <linearGradient id="floor" x1="0" y1="0" x2="0" y2="1">
    <stop offset="0" stop-color="#3a2a14"/>
    <stop offset="1" stop-color="#150d05"/>
  </linearGradient>
  <linearGradient id="door" x1="0" y1="0" x2="1" y2="0">
    <stop offset="0" stop-color="#6d604a"/>
    <stop offset="0.45" stop-color="#a8905f"/>
    <stop offset="1" stop-color="#3a2e1a"/>
  </linearGradient>
  <linearGradient id="beam" x1="0" y1="0" x2="0" y2="1">
    <stop offset="0" stop-color="#ffe2a6" stop-opacity="0.48"/>
    <stop offset="0.55" stop-color="#ffe2a6" stop-opacity="0.22"/>
    <stop offset="1" stop-color="#ffe2a6" stop-opacity="0"/>
  </linearGradient>
  <linearGradient id="beamCore" x1="0" y1="0" x2="0" y2="1">
    <stop offset="0" stop-color="#fff6de" stop-opacity="0.3"/>
    <stop offset="1" stop-color="#fff6de" stop-opacity="0"/>
  </linearGradient>
  <radialGradient id="backglow">
    <stop offset="0" stop-color="#ffe2a6" stop-opacity="0.3"/>
    <stop offset="1" stop-color="#ffe2a6" stop-opacity="0"/>
  </radialGradient>
  <radialGradient id="vig" cx="0.5" cy="0.48" r="0.75">
    <stop offset="0.45" stop-color="#000" stop-opacity="0"/>
    <stop offset="1" stop-color="#000" stop-opacity="0.82"/>
  </radialGradient>
  <radialGradient id="halolight" cx="0.5" cy="0.5" r="0.5">
    <stop offset="0" stop-color="#ffe2a6" stop-opacity="0.4"/>
    <stop offset="1" stop-color="#ffe2a6" stop-opacity="0"/>
  </radialGradient>
  <filter id="soft" x="-40%" y="-40%" width="180%" height="180%">
    <feGaussianBlur stdDeviation="7"/>
  </filter>
  <filter id="soft2" x="-40%" y="-40%" width="180%" height="180%">
    <feGaussianBlur stdDeviation="2.4"/>
  </filter>
  <clipPath id="opening">
    <rect x="200" y="84" width="420" height="424" rx="3"/>
  </clipPath>
</defs><rect width="800" height="600" fill="#0c0a09"/><rect width="800" height="600" fill="url(#vig)"/><rect x="0" y="70" width="800" height="2" fill="#1b1714" opacity="0.7"/><rect x="0" y="235" width="800" height="2" fill="#1b1714" opacity="0.7"/><rect x="0" y="400" width="800" height="2" fill="#1b1714" opacity="0.7"/><circle cx="614.23" cy="289.61" r="0.82"
      fill="#4a4238" opacity="0.06"/><circle cx="506.89" cy="499.09" r="1.16"
      fill="#4a4238" opacity="0.04"/><circle cx="243.11" cy="54.78" r="1.24"
      fill="#4a4238" opacity="0.04"/><circle cx="601.53" cy="222.18" r="0.87"
      fill="#4a4238" opacity="0.04"/><circle cx="391.41" cy="461.21" r="0.76"
      fill="#4a4238" opacity="0.08"/><circle cx="381.38" cy="35.99" r="0.62"
      fill="#4a4238" opacity="0.06"/><circle cx="485.64" cy="438.61" r="1.4"
      fill="#4a4238" opacity="0.04"/><circle cx="746.37" cy="87.92" r="1.09"
      fill="#4a4238" opacity="0.08"/><circle cx="132.33" cy="217.58" r="1.27"
      fill="#4a4238" opacity="0.09"/><circle cx="41.7" cy="255.64" r="1.36"
      fill="#4a4238" opacity="0.06"/><circle cx="41.64" cy="344.17" r="0.88"
      fill="#4a4238" opacity="0.06"/><circle cx="475.22" cy="302.68" r="0.9"
      fill="#4a4238" opacity="0.04"/><circle cx="606.28" cy="261.85" r="0.96"
      fill="#4a4238" opacity="0.08"/><circle cx="144.25" cy="401.95" r="0.82"
      fill="#4a4238" opacity="0.09"/><circle cx="288.05" cy="159.67" r="0.76"
      fill="#4a4238" opacity="0.04"/><circle cx="311.21" cy="592.69" r="1.46"
      fill="#4a4238" opacity="0.06"/><circle cx="722.11" cy="380.58" r="1.49"
      fill="#4a4238" opacity="0.06"/><circle cx="230.91" cy="417.79" r="1.44"
      fill="#4a4238" opacity="0.05"/><circle cx="423.67" cy="289.32" r="1.41"
      fill="#4a4238" opacity="0.06"/><circle cx="275.25" cy="245.08" r="0.55"
      fill="#4a4238" opacity="0.08"/><circle cx="437.97" cy="106.78" r="1.19"
      fill="#4a4238" opacity="0.09"/><circle cx="252.8" cy="206.36" r="1.26"
      fill="#4a4238" opacity="0.04"/><circle cx="786.72" cy="198.8" r="1.08"
      fill="#4a4238" opacity="0.05"/><circle cx="128.97" cy="484.88" r="1.38"
      fill="#4a4238" opacity="0.07"/><circle cx="546.06" cy="103.43" r="0.84"
      fill="#4a4238" opacity="0.08"/><circle cx="417.42" cy="479.29" r="1.5"
      fill="#4a4238" opacity="0.09"/><circle cx="163.62" cy="103.38" r="1.29"
      fill="#4a4238" opacity="0.07"/><circle cx="661.92" cy="279.28" r="0.58"
      fill="#4a4238" opacity="0.08"/><circle cx="787.77" cy="360.21" r="1.3"
      fill="#4a4238" opacity="0.06"/><circle cx="485.79" cy="521.27" r="1.16"
      fill="#4a4238" opacity="0.06"/><circle cx="283.3" cy="516.63" r="1.34"
      fill="#4a4238" opacity="0.06"/><circle cx="563.3" cy="156.21" r="1.12"
      fill="#4a4238" opacity="0.09"/><circle cx="316.88" cy="288.83" r="0.98"
      fill="#4a4238" opacity="0.08"/><circle cx="500.6" cy="403.55" r="1.37"
      fill="#4a4238" opacity="0.07"/><circle cx="471.54" cy="376.7" r="0.59"
      fill="#4a4238" opacity="0.06"/><circle cx="642.82" cy="18.35" r="0.89"
      fill="#4a4238" opacity="0.07"/><circle cx="289.34" cy="449.51" r="0.87"
      fill="#4a4238" opacity="0.04"/><circle cx="589.96" cy="526.59" r="1.32"
      fill="#4a4238" opacity="0.06"/><circle cx="270.51" cy="95.42" r="0.96"
      fill="#4a4238" opacity="0.07"/><circle cx="202.51" cy="337.95" r="1.27"
      fill="#4a4238" opacity="0.04"/><circle cx="584.6" cy="138.11" r="0.66"
      fill="#4a4238" opacity="0.05"/><circle cx="308.07" cy="341.33" r="0.82"
      fill="#4a4238" opacity="0.05"/><circle cx="11.69" cy="585.58" r="0.69"
      fill="#4a4238" opacity="0.07"/><circle cx="654.83" cy="406.79" r="0.56"
      fill="#4a4238" opacity="0.05"/><circle cx="570.6" cy="117.32" r="0.62"
      fill="#4a4238" opacity="0.07"/><circle cx="12.47" cy="362.01" r="0.77"
      fill="#4a4238" opacity="0.08"/><circle cx="92.61" cy="368.42" r="1.12"
      fill="#4a4238" opacity="0.06"/><circle cx="167.35" cy="249.25" r="0.62"
      fill="#4a4238" opacity="0.04"/><circle cx="333.14" cy="338.39" r="0.74"
      fill="#4a4238" opacity="0.07"/><circle cx="130.36" cy="550.27" r="0.51"
      fill="#4a4238" opacity="0.08"/><circle cx="607.04" cy="475.16" r="0.68"
      fill="#4a4238" opacity="0.04"/><circle cx="363.57" cy="177.23" r="0.71"
      fill="#4a4238" opacity="0.08"/><circle cx="253.44" cy="250.23" r="0.76"
      fill="#4a4238" opacity="0.09"/><circle cx="615.39" cy="129.11" r="1.13"
      fill="#4a4238" opacity="0.08"/><circle cx="528.73" cy="100.4" r="0.75"
      fill="#4a4238" opacity="0.09"/><circle cx="797.38" cy="7.68" r="0.81"
      fill="#4a4238" opacity="0.09"/><circle cx="286.52" cy="137.16" r="0.63"
      fill="#4a4238" opacity="0.08"/><circle cx="539.64" cy="126.24" r="0.6"
      fill="#4a4238" opacity="0.07"/><circle cx="623.09" cy="106.84" r="0.53"
      fill="#4a4238" opacity="0.08"/><circle cx="54.21" cy="462.14" r="0.61"
      fill="#4a4238" opacity="0.07"/><circle cx="335.31" cy="433.88" r="1.38"
      fill="#4a4238" opacity="0.05"/><circle cx="263.75" cy="7.15" r="1.4"
      fill="#4a4238" opacity="0.05"/><circle cx="1.39" cy="60.12" r="1.23"
      fill="#4a4238" opacity="0.06"/><circle cx="462.91" cy="193.93" r="0.79"
      fill="#4a4238" opacity="0.04"/><circle cx="324.97" cy="59.56" r="1.05"
      fill="#4a4238" opacity="0.07"/><circle cx="466.45" cy="362.92" r="0.96"
      fill="#4a4238" opacity="0.09"/><circle cx="778.79" cy="55.5" r="0.84"
      fill="#4a4238" opacity="0.08"/><circle cx="149.11" cy="280.06" r="0.83"
      fill="#4a4238" opacity="0.04"/><circle cx="646.29" cy="350.16" r="1.48"
      fill="#4a4238" opacity="0.08"/><circle cx="449.21" cy="422.82" r="0.51"
      fill="#4a4238" opacity="0.05"/><circle cx="482.04" cy="92.52" r="1.36"
      fill="#4a4238" opacity="0.09"/><circle cx="132.26" cy="592.45" r="0.78"
      fill="#4a4238" opacity="0.07"/><circle cx="315.4" cy="556.29" r="1.48"
      fill="#4a4238" opacity="0.06"/><circle cx="194.38" cy="316.3" r="0.99"
      fill="#4a4238" opacity="0.08"/><circle cx="122.38" cy="271.43" r="0.87"
      fill="#4a4238" opacity="0.05"/><circle cx="643.35" cy="72.49" r="1.29"
      fill="#4a4238" opacity="0.08"/><circle cx="789.69" cy="36.3" r="1.39"
      fill="#4a4238" opacity="0.07"/><circle cx="420.16" cy="500.77" r="0.73"
      fill="#4a4238" opacity="0.04"/><circle cx="714.52" cy="391.14" r="0.95"
      fill="#4a4238" opacity="0.06"/><circle cx="237.85" cy="333.64" r="1.17"
      fill="#4a4238" opacity="0.08"/><circle cx="253.48" cy="107.44" r="1.44"
      fill="#4a4238" opacity="0.08"/><circle cx="64.57" cy="99.01" r="1.47"
      fill="#4a4238" opacity="0.07"/><circle cx="245.01" cy="242.45" r="0.72"
      fill="#4a4238" opacity="0.04"/><circle cx="514.89" cy="353.8" r="0.88"
      fill="#4a4238" opacity="0.05"/><circle cx="429.17" cy="287.13" r="0.73"
      fill="#4a4238" opacity="0.07"/><circle cx="571.32" cy="218.4" r="0.69"
      fill="#4a4238" opacity="0.06"/><circle cx="776.56" cy="345.45" r="1.13"
      fill="#4a4238" opacity="0.07"/><circle cx="245.18" cy="247.57" r="1.4"
      fill="#4a4238" opacity="0.09"/><circle cx="654.15" cy="406.56" r="0.67"
      fill="#4a4238" opacity="0.08"/><circle cx="252.66" cy="64.97" r="0.63"
      fill="#4a4238" opacity="0.06"/><rect x="174" y="58" width="472" height="476"
    rx="6" fill="#151210"/><rect x="186" y="70" width="448" height="452"
    rx="4" fill="url(#door)"/><g clip-path="url(#opening)"><rect x="200" y="84" width="420" height="322" fill="url(#wall)"/><path d="200,84 246,114 246,410 200,406" fill="#000" opacity="0.34"/><path d="620,84 574,114 574,410 620,406" fill="#000" opacity="0.34"/><rect x="200" y="402" width="420" height="110" fill="url(#floor)"/><rect x="200" y="402" width="420" height="1.5" fill="#000" opacity="0.5"/><ellipse cx="506.81" cy="252.91" rx="29.04" ry="34.34"
      fill="#0d0a07" opacity="0.14"/><ellipse cx="471.89" cy="290.55" rx="26.13" ry="34.26"
      fill="#0d0a07" opacity="0.13"/><ellipse cx="449.27" cy="262.3" rx="30.11" ry="65.78"
      fill="#0d0a07" opacity="0.13"/><ellipse cx="270.19" cy="303.99" rx="27.91" ry="58.37"
      fill="#0d0a07" opacity="0.13"/><circle cx="419.94" cy="238.92" r="1.45"
      fill="#000" opacity="0.21"/><circle cx="276.53" cy="110.72" r="1.44"
      fill="#000" opacity="0.1"/><circle cx="447.22" cy="120.16" r="0.97"
      fill="#000" opacity="0.19"/><circle cx="370.63" cy="152.55" r="0.98"
      fill="#000" opacity="0.12"/><circle cx="369.57" cy="318.15" r="1.13"
      fill="#000" opacity="0.13"/><circle cx="355.19" cy="279.18" r="0.65"
      fill="#000" opacity="0.17"/><circle cx="361.58" cy="103.41" r="1.4"
      fill="#000" opacity="0.18"/><circle cx="354.28" cy="320.26" r="1.45"
      fill="#000" opacity="0.16"/><circle cx="617.06" cy="342.56" r="0.57"
      fill="#000" opacity="0.17"/><circle cx="617.33" cy="226.56" r="1.21"
      fill="#000" opacity="0.13"/><circle cx="492.63" cy="297.6" r="1.05"
      fill="#000" opacity="0.14"/><circle cx="542.68" cy="148.66" r="0.65"
      fill="#000" opacity="0.18"/><circle cx="260.27" cy="341.92" r="0.59"
      fill="#000" opacity="0.12"/><circle cx="215.49" cy="204.33" r="1.02"
      fill="#000" opacity="0.17"/><circle cx="325.22" cy="268.22" r="1.34"
      fill="#000" opacity="0.14"/><circle cx="363.98" cy="218.26" r="0.59"
      fill="#000" opacity="0.1"/><circle cx="323.1" cy="246.83" r="0.89"
      fill="#000" opacity="0.12"/><circle cx="467.93" cy="381.21" r="0.8"
      fill="#000" opacity="0.18"/><circle cx="466.31" cy="181.57" r="1.37"
      fill="#000" opacity="0.1"/><circle cx="278.22" cy="198.12" r="0.66"
      fill="#000" opacity="0.18"/><circle cx="297.66" cy="254.46" r="0.66"
      fill="#000" opacity="0.1"/><circle cx="564.39" cy="217.45" r="0.77"
      fill="#000" opacity="0.14"/><circle cx="493.72" cy="340.67" r="0.86"
      fill="#000" opacity="0.18"/><circle cx="496.1" cy="343.87" r="0.9"
      fill="#000" opacity="0.19"/><circle cx="220.79" cy="379.63" r="0.55"
      fill="#000" opacity="0.12"/><circle cx="589.62" cy="381.69" r="1.37"
      fill="#000" opacity="0.18"/><circle cx="421.97" cy="398.86" r="0.65"
      fill="#000" opacity="0.09"/><circle cx="319.89" cy="248.93" r="1.14"
      fill="#000" opacity="0.2"/><circle cx="302.03" cy="233.33" r="0.85"
      fill="#000" opacity="0.13"/><circle cx="230.8" cy="86.7" r="1.15"
      fill="#000" opacity="0.15"/><circle cx="599.97" cy="178.65" r="0.56"
      fill="#000" opacity="0.21"/><circle cx="218.5" cy="107.42" r="1.04"
      fill="#000" opacity="0.11"/><circle cx="619.45" cy="142.33" r="1.03"
      fill="#000" opacity="0.13"/><circle cx="351.96" cy="166.11" r="0.75"
      fill="#000" opacity="0.14"/><circle cx="301.18" cy="231.83" r="0.97"
      fill="#000" opacity="0.15"/><circle cx="569.89" cy="173.76" r="0.62"
      fill="#000" opacity="0.17"/><circle cx="419.29" cy="315.58" r="1.23"
      fill="#000" opacity="0.21"/><circle cx="435.27" cy="370.66" r="0.7"
      fill="#000" opacity="0.15"/><circle cx="347.74" cy="319.8" r="1.44"
      fill="#000" opacity="0.14"/><circle cx="323.15" cy="396.14" r="0.56"
      fill="#000" opacity="0.09"/><circle cx="484.03" cy="387.72" r="1.43"
      fill="#000" opacity="0.11"/><circle cx="266.64" cy="212.12" r="1.22"
      fill="#000" opacity="0.18"/><circle cx="288.64" cy="344.1" r="1.21"
      fill="#000" opacity="0.15"/><circle cx="336.28" cy="319.54" r="1.27"
      fill="#000" opacity="0.09"/><circle cx="227.72" cy="246.71" r="1.3"
      fill="#000" opacity="0.13"/><circle cx="298.15" cy="336.44" r="0.61"
      fill="#000" opacity="0.22"/><circle cx="418.24" cy="105.52" r="0.76"
      fill="#000" opacity="0.1"/><circle cx="338.71" cy="401.49" r="0.52"
      fill="#000" opacity="0.2"/><circle cx="377.44" cy="350.36" r="0.86"
      fill="#000" opacity="0.2"/><circle cx="553.73" cy="364.72" r="0.87"
      fill="#000" opacity="0.17"/><circle cx="434.53" cy="294.59" r="0.73"
      fill="#000" opacity="0.11"/><circle cx="552.84" cy="298.82" r="0.99"
      fill="#000" opacity="0.19"/><circle cx="254.75" cy="124.55" r="1.35"
      fill="#000" opacity="0.12"/><circle cx="333.27" cy="375.76" r="1.4"
      fill="#000" opacity="0.21"/><circle cx="500.08" cy="287.9" r="0.75"
      fill="#000" opacity="0.21"/><circle cx="390.54" cy="135.63" r="0.61"
      fill="#000" opacity="0.15"/><circle cx="217.38" cy="116.12" r="1.23"
      fill="#000" opacity="0.21"/><circle cx="452" cy="359.44" r="1.49"
      fill="#000" opacity="0.1"/><circle cx="564.49" cy="113.82" r="0.99"
      fill="#000" opacity="0.19"/><circle cx="262.2" cy="278.59" r="0.71"
      fill="#000" opacity="0.09"/><circle cx="336.78" cy="170.3" r="1.11"
      fill="#000" opacity="0.14"/><circle cx="581.3" cy="100.85" r="1.47"
      fill="#000" opacity="0.2"/><circle cx="279.49" cy="356.26" r="0.55"
      fill="#000" opacity="0.15"/><circle cx="459.45" cy="303.01" r="1.04"
      fill="#000" opacity="0.14"/><circle cx="569.28" cy="172.25" r="1.3"
      fill="#000" opacity="0.16"/><circle cx="332.61" cy="189.8" r="0.51"
      fill="#000" opacity="0.14"/><circle cx="210.29" cy="243.85" r="1.41"
      fill="#000" opacity="0.11"/><circle cx="474.48" cy="127.8" r="1.36"
      fill="#000" opacity="0.15"/><circle cx="332.94" cy="316.55" r="1.32"
      fill="#000" opacity="0.14"/><circle cx="256.9" cy="330.72" r="0.57"
      fill="#000" opacity="0.13"/><ellipse cx="411.22" cy="362" rx="148.72" ry="150"
    fill="url(#backglow)" opacity="0.82"/><ellipse cx="384.64" cy="469.23" rx="7.46" ry="2.69"
        fill="#4a3f30" opacity="0.25"/><path d="M 533.46 494.64 l -1.7 -2.58
        l 4.66 2.6" stroke="#5c4e3a"
        stroke-width="1.94" fill="none" opacity="0.34"/><rect x="534" y="492.95" width="24.45" height="5.36"
        fill="#6b5b44" opacity="0.54" transform="rotate(-5.56 534 492.95)"/><ellipse cx="329.25" cy="480.77" rx="6.08" ry="2.29"
        fill="#4a3f30" opacity="0.42"/><ellipse cx="535.43" cy="472.14" rx="9.27" ry="2.64"
        fill="#4a3f30" opacity="0.43"/><defs>
  <linearGradient id="gGold" x1="0" y1="0" x2="0.3" y2="1">
    <stop offset="0" stop-color="#fff0bd"/>
    <stop offset="0.28" stop-color="#f7cf6a"/>
    <stop offset="0.62" stop-color="#d9a02c"/>
    <stop offset="1" stop-color="#8f5f14"/>
  </linearGradient>
  <linearGradient id="gJade" x1="0" y1="0" x2="0.4" y2="1">
    <stop offset="0" stop-color="#c9f0c8"/>
    <stop offset="0.35" stop-color="#6fbf88"/>
    <stop offset="0.75" stop-color="#2f7a4c"/>
    <stop offset="1" stop-color="#17452c"/>
  </linearGradient>
  <linearGradient id="gRock" x1="0" y1="0" x2="0.4" y2="1">
    <stop offset="0" stop-color="#6b635a"/>
    <stop offset="0.4" stop-color="#37322c"/>
    <stop offset="1" stop-color="#15120f"/>
  </linearGradient>
  <linearGradient id="gShell" x1="0" y1="0" x2="0.3" y2="1">
    <stop offset="0" stop-color="#f2dcaa"/>
    <stop offset="0.4" stop-color="#c69a4e"/>
    <stop offset="1" stop-color="#6d4a1c"/>
  </linearGradient>
  <linearGradient id="gFrame" x1="0" y1="0" x2="0.25" y2="1">
    <stop offset="0" stop-color="#ffe9a8"/>
    <stop offset="0.35" stop-color="#c99a35"/>
    <stop offset="0.72" stop-color="#8a6216"/>
    <stop offset="1" stop-color="#e8c56a"/>
  </linearGradient>
  <linearGradient id="gVelvet" x1="0" y1="0" x2="0.2" y2="1">
    <stop offset="0" stop-color="#7a1220"/>
    <stop offset="0.5" stop-color="#4d0a13"/>
    <stop offset="1" stop-color="#26050b"/>
  </linearGradient>
  <linearGradient id="gSilver" x1="0" y1="0" x2="0.3" y2="1">
    <stop offset="0" stop-color="#f4f7fa"/>
    <stop offset="0.4" stop-color="#b9c2cb"/>
    <stop offset="1" stop-color="#5d666f"/>
  </linearGradient>
  <linearGradient id="gCanvas" x1="0" y1="0" x2="0.2" y2="1">
    <stop offset="0" stop-color="#3c2f1c"/>
    <stop offset="0.55" stop-color="#241a10"/>
    <stop offset="1" stop-color="#120c07"/>
  </linearGradient>
  <radialGradient id="gGemR" cx="0.35" cy="0.3" r="0.8">
    <stop offset="0" stop-color="#ff9aa2"/>
    <stop offset="1" stop-color="#8e1220"/>
  </radialGradient>
  <radialGradient id="gGemB" cx="0.35" cy="0.3" r="0.8">
    <stop offset="0" stop-color="#9fd0ff"/>
    <stop offset="1" stop-color="#123a7a"/>
  </radialGradient>
  <radialGradient id="gGemE" cx="0.35" cy="0.3" r="0.8">
    <stop offset="0" stop-color="#b6ffe6"/>
    <stop offset="1" stop-color="#0d5c42"/>
  </radialGradient>
  <radialGradient id="gGlowGold" cx="0.5" cy="0.5" r="0.5">
    <stop offset="0" stop-color="#ffd98a" stop-opacity="0.45"/>
    <stop offset="1" stop-color="#ffd98a" stop-opacity="0"/>
  </radialGradient>
</defs><ellipse cx="410" cy="450" rx="126" ry="15" fill="#000"
      opacity="0.5" filter="url(#soft)"/><ellipse cx="410" cy="458" rx="112" ry="12" fill="url(#gGold)" opacity="0.2"/><g transform="rotate(-3 342 460)"><path d="406,420 400,409 400,449 406,460" fill="#6b4710"/><path d="298,420 386,420 400,409 312,409" fill="#fff0bd"/><path d="298,420 386,420 406,460 278,460" fill="url(#gGold)"/><rect x="316" y="428" width="52" height="18" rx="2" fill="#8a5f16" opacity="0.55"/><text x="342" y="441" font-family="'Arial Black',Arial,sans-serif"
        font-size="11" font-weight="900" text-anchor="middle" fill="#ffe9a8" opacity="0.95">999.9</text><text x="342" y="451.2" font-family="Arial,sans-serif" font-size="9"
        text-anchor="middle" fill="#7a5210" opacity="0.8">1 KG · FINE GOLD</text><path d="M 303 423 L 281 457" stroke="#fff6d2" stroke-width="4" opacity="0.45"/><path d="M 381 423 L 403 457" stroke="#5e3f0c" stroke-width="3" opacity="0.4"/></g><path d="377.84,409 379.24,414.6 384.84,416 379.24,417.4 377.84,423 376.44,417.4 370.84,416 376.44,414.6"
    fill="#fff8e0" opacity="0.5"/><g transform="rotate(3 478 460)"><path d="542,420 536,409 536,449 542,460" fill="#6b4710"/><path d="434,420 522,420 536,409 448,409" fill="#fff0bd"/><path d="434,420 522,420 542,460 414,460" fill="url(#gGold)"/><rect x="452" y="428" width="52" height="18" rx="2" fill="#8a5f16" opacity="0.55"/><text x="478" y="441" font-family="'Arial Black',Arial,sans-serif"
        font-size="11" font-weight="900" text-anchor="middle" fill="#ffe9a8" opacity="0.95">999.9</text><text x="478" y="451.2" font-family="Arial,sans-serif" font-size="9"
        text-anchor="middle" fill="#7a5210" opacity="0.8">1 KG · FINE GOLD</text><path d="M 439 423 L 417 457" stroke="#fff6d2" stroke-width="4" opacity="0.45"/><path d="M 517 423 L 539 457" stroke="#5e3f0c" stroke-width="3" opacity="0.4"/></g><path d="513.84,409 515.24,414.6 520.84,416 515.24,417.4 513.84,423 512.44,417.4 506.84,416 512.44,414.6"
    fill="#fff8e0" opacity="0.5"/><g transform="rotate(-1 410 420)"><path d="474,380 468,369 468,409 474,420" fill="#6b4710"/><path d="366,380 454,380 468,369 380,369" fill="#fff0bd"/><path d="366,380 454,380 474,420 346,420" fill="url(#gGold)"/><rect x="384" y="388" width="52" height="18" rx="2" fill="#8a5f16" opacity="0.55"/><text x="410" y="401" font-family="'Arial Black',Arial,sans-serif"
        font-size="11" font-weight="900" text-anchor="middle" fill="#ffe9a8" opacity="0.95">999.9</text><text x="410" y="411.2" font-family="Arial,sans-serif" font-size="9"
        text-anchor="middle" fill="#7a5210" opacity="0.8">1 KG · FINE GOLD</text><path d="M 371 383 L 349 417" stroke="#fff6d2" stroke-width="4" opacity="0.45"/><path d="M 449 383 L 471 417" stroke="#5e3f0c" stroke-width="3" opacity="0.4"/></g><path d="445.84,369 447.24,374.6 452.84,376 447.24,377.4 445.84,383 444.44,377.4 438.84,376 444.44,374.6"
    fill="#fff8e0" opacity="0.5"/><ellipse cx="532" cy="438" rx="11" ry="5" fill="url(#gGold)"/><ellipse cx="532" cy="437" rx="11" ry="5" fill="#f7cf6a"/><ellipse cx="532" cy="436.4" rx="6" ry="2.6" fill="#8f5f14" opacity="0.6"/><ellipse cx="552" cy="438" rx="11" ry="5" fill="url(#gGold)"/><ellipse cx="552" cy="437" rx="11" ry="5" fill="#f7cf6a"/><ellipse cx="552" cy="436.4" rx="6" ry="2.6" fill="#8f5f14" opacity="0.6"/><ellipse cx="532" cy="429" rx="11" ry="5" fill="url(#gGold)"/><ellipse cx="532" cy="428" rx="11" ry="5" fill="#f7cf6a"/><ellipse cx="532" cy="427.4" rx="6" ry="2.6" fill="#8f5f14" opacity="0.6"/><ellipse cx="410" cy="376" rx="148.8" ry="96" fill="url(#gGlowGold)" opacity="0.32"/><circle cx="329.97" cy="369.59" r="0.89" fill="#ffeab8"
      opacity="0.26"/><circle cx="319.56" cy="360.36" r="1.69" fill="#ffeab8"
      opacity="0.37"/><circle cx="398.87" cy="270.5" r="2.31" fill="#ffeab8"
      opacity="0.25"/><circle cx="480.38" cy="365.1" r="1.33" fill="#ffeab8"
      opacity="0.16"/><circle cx="406.49" cy="261.14" r="0.92" fill="#ffeab8"
      opacity="0.45"/><circle cx="450.2" cy="434.57" r="2.26" fill="#ffeab8"
      opacity="0.28"/><circle cx="467.92" cy="332.4" r="2.37" fill="#ffeab8"
      opacity="0.38"/><circle cx="375.87" cy="263.85" r="1.67" fill="#ffeab8"
      opacity="0.36"/><circle cx="381.73" cy="324.27" r="0.9" fill="#ffeab8"
      opacity="0.23"/><circle cx="452.45" cy="289.52" r="1.04" fill="#ffeab8"
      opacity="0.45"/><circle cx="468.49" cy="322.67" r="1.47" fill="#ffeab8"
      opacity="0.45"/><circle cx="343.1" cy="403.91" r="2.14" fill="#ffeab8"
      opacity="0.24"/><ellipse cx="358.55" cy="384.12" rx="5.91" ry="5.68"
      fill="#2a1d10" opacity="0.23"/><ellipse cx="443.35" cy="352.69" rx="4.09" ry="3.66"
      fill="#2a1d10" opacity="0.24"/><ellipse cx="380.53" cy="379.56" rx="6.26" ry="3.85"
      fill="#2a1d10" opacity="0.19"/><polygon points="466.71,-60 119.26,640 702.51,640" fill="url(#beam)"/><polygon points="466.71,-60 311.74,640 510.04,640" fill="url(#beamCore)"/><circle cx="548.73" cy="428.49" r="2.2" fill="#f0e0bd"
      opacity="0.27"/><circle cx="364.02" cy="92.17" r="1.66" fill="#f0e0bd"
      opacity="0.13"/><circle cx="364.64" cy="46.24" r="1.58" fill="#f0e0bd"
      opacity="0.31"/><circle cx="343.05" cy="426.02" r="1.93" fill="#f0e0bd"
      opacity="0.17"/><circle cx="422.36" cy="151.27" r="1.49" fill="#f0e0bd"
      opacity="0.23"/><circle cx="345.85" cy="523.61" r="1.37" fill="#f0e0bd"
      opacity="0.18"/><circle cx="487.96" cy="86.99" r="2.14" fill="#f0e0bd"
      opacity="0.13"/><circle cx="413.65" cy="51.46" r="0.96" fill="#f0e0bd"
      opacity="0.19"/><circle cx="441.51" cy="2.52" r="0.9" fill="#f0e0bd"
      opacity="0.35"/><circle cx="406.18" cy="257.44" r="1.44" fill="#f0e0bd"
      opacity="0.35"/><circle cx="433.25" cy="62.75" r="1.56" fill="#f0e0bd"
      opacity="0.34"/><circle cx="280.02" cy="301.22" r="0.87" fill="#f0e0bd"
      opacity="0.33"/><circle cx="480.36" cy="105.95" r="1.72" fill="#f0e0bd"
      opacity="0.27"/><circle cx="264.08" cy="276.55" r="0.74" fill="#f0e0bd"
      opacity="0.37"/><circle cx="579.03" cy="340.72" r="0.93" fill="#f0e0bd"
      opacity="0.34"/><circle cx="337.68" cy="185.93" r="1.33" fill="#f0e0bd"
      opacity="0.23"/><circle cx="342.42" cy="172.06" r="1.43" fill="#f0e0bd"
      opacity="0.37"/><circle cx="497.54" cy="141.11" r="2.03" fill="#f0e0bd"
      opacity="0.13"/><circle cx="408.96" cy="118.86" r="1.88" fill="#f0e0bd"
      opacity="0.42"/><circle cx="500.38" cy="440.36" r="1.93" fill="#f0e0bd"
      opacity="0.21"/><circle cx="468.78" cy="118.44" r="2.34" fill="#f0e0bd"
      opacity="0.27"/><circle cx="496.64" cy="411.69" r="1.9" fill="#f0e0bd"
      opacity="0.23"/><circle cx="507.98" cy="514.75" r="1.27" fill="#f0e0bd"
      opacity="0.18"/><circle cx="326.48" cy="262.24" r="0.9" fill="#f0e0bd"
      opacity="0.21"/><circle cx="404.86" cy="44.38" r="1.09" fill="#f0e0bd"
      opacity="0.15"/><circle cx="375.92" cy="494.6" r="2.07" fill="#f0e0bd"
      opacity="0.07"/><circle cx="647.09" cy="479.62" r="1.06" fill="#f0e0bd"
      opacity="0.15"/><circle cx="636.28" cy="437.04" r="1.87" fill="#f0e0bd"
      opacity="0.27"/><circle cx="186.29" cy="541.12" r="1.13" fill="#f0e0bd"
      opacity="0.17"/><circle cx="671.7" cy="504.67" r="2.14" fill="#f0e0bd"
      opacity="0.1"/><circle cx="456.28" cy="218.36" r="2.31" fill="#f0e0bd"
      opacity="0.13"/><circle cx="483.97" cy="247.94" r="1.15" fill="#f0e0bd"
      opacity="0.24"/><circle cx="394.62" cy="21.16" r="1.19" fill="#f0e0bd"
      opacity="0.28"/><circle cx="455.37" cy="517.31" r="2.15" fill="#f0e0bd"
      opacity="0.14"/><circle cx="347.19" cy="85.6" r="2.18" fill="#f0e0bd"
      opacity="0.36"/><circle cx="343.72" cy="112.13" r="0.71" fill="#f0e0bd"
      opacity="0.28"/><circle cx="408.71" cy="57" r="2.15" fill="#f0e0bd"
      opacity="0.28"/><circle cx="274.07" cy="521.53" r="2.26" fill="#f0e0bd"
      opacity="0.17"/><circle cx="257.84" cy="251.89" r="0.88" fill="#f0e0bd"
      opacity="0.31"/><circle cx="588.84" cy="443.28" r="1.81" fill="#f0e0bd"
      opacity="0.27"/><circle cx="273.14" cy="305.96" r="1.19" fill="#f0e0bd"
      opacity="0.27"/><circle cx="268.29" cy="374.33" r="1.69" fill="#f0e0bd"
      opacity="0.13"/><circle cx="328.08" cy="161.06" r="2.1" fill="#f0e0bd"
      opacity="0.33"/><circle cx="426.39" cy="247.78" r="1.6" fill="#f0e0bd"
      opacity="0.3"/><circle cx="436.34" cy="197.31" r="1.62" fill="#f0e0bd"
      opacity="0.4"/><circle cx="372.83" cy="155.06" r="0.87" fill="#f0e0bd"
      opacity="0.38"/><circle cx="506.18" cy="536.64" r="2.09" fill="#f0e0bd"
      opacity="0.19"/><circle cx="459.16" cy="30.39" r="1.92" fill="#f0e0bd"
      opacity="0.18"/><circle cx="410.98" cy="116.04" r="0.98" fill="#f0e0bd"
      opacity="0.33"/><circle cx="566.05" cy="252.91" r="2.3" fill="#f0e0bd"
      opacity="0.36"/><circle cx="353.13" cy="111.43" r="2.13" fill="#f0e0bd"
      opacity="0.22"/><circle cx="326.88" cy="209.32" r="1.85" fill="#f0e0bd"
      opacity="0.11"/><circle cx="605.69" cy="361.95" r="1.02" fill="#f0e0bd"
      opacity="0.16"/><circle cx="500.13" cy="167.61" r="1.79" fill="#f0e0bd"
      opacity="0.3"/><circle cx="327.69" cy="363.92" r="1.25" fill="#f0e0bd"
      opacity="0.12"/><circle cx="339.21" cy="269.59" r="1.55" fill="#f0e0bd"
      opacity="0.22"/><circle cx="391.24" cy="407.09" r="0.75" fill="#f0e0bd"
      opacity="0.16"/><circle cx="466.53" cy="36.53" r="1.68" fill="#f0e0bd"
      opacity="0.25"/><circle cx="467.13" cy="216.81" r="1.2" fill="#f0e0bd"
      opacity="0.36"/><circle cx="590.42" cy="412.1" r="1.64" fill="#f0e0bd"
      opacity="0.16"/><circle cx="332.88" cy="222.74" r="0.95" fill="#f0e0bd"
      opacity="0.24"/><circle cx="506.7" cy="152.6" r="1.42" fill="#f0e0bd"
      opacity="0.42"/><circle cx="535.01" cy="226.25" r="1.84" fill="#f0e0bd"
      opacity="0.36"/><circle cx="320.19" cy="265.37" r="1.44" fill="#f0e0bd"
      opacity="0.35"/><circle cx="298.35" cy="414" r="1.59" fill="#f0e0bd"
      opacity="0.22"/><circle cx="471.81" cy="53.17" r="1.89" fill="#f0e0bd"
      opacity="0.47"/><circle cx="507.47" cy="520.14" r="1.7" fill="#f0e0bd"
      opacity="0.1"/><circle cx="394.82" cy="338.35" r="1.89" fill="#f0e0bd"
      opacity="0.26"/></g><rect x="186" y="70" width="45.59" height="452" fill="url(#door)"/><rect x="186" y="78" width="45.59" height="4" fill="#000" opacity="0.34"/><rect x="186" y="82" width="45.59" height="1.5" fill="#fff" opacity="0.07"/><rect x="186" y="91" width="45.59" height="4" fill="#000" opacity="0.34"/><rect x="186" y="95" width="45.59" height="1.5" fill="#fff" opacity="0.07"/><rect x="186" y="104" width="45.59" height="4" fill="#000" opacity="0.34"/><rect x="186" y="108" width="45.59" height="1.5" fill="#fff" opacity="0.07"/><rect x="186" y="117" width="45.59" height="4" fill="#000" opacity="0.34"/><rect x="186" y="121" width="45.59" height="1.5" fill="#fff" opacity="0.07"/><rect x="186" y="130" width="45.59" height="4" fill="#000" opacity="0.34"/><rect x="186" y="134" width="45.59" height="1.5" fill="#fff" opacity="0.07"/><rect x="186" y="143" width="45.59" height="4" fill="#000" opacity="0.34"/><rect x="186" y="147" width="45.59" height="1.5" fill="#fff" opacity="0.07"/><rect x="186" y="156" width="45.59" height="4" fill="#000" opacity="0.34"/><rect x="186" y="160" width="45.59" height="1.5" fill="#fff" opacity="0.07"/><rect x="186" y="169" width="45.59" height="4" fill="#000" opacity="0.34"/><rect x="186" y="173" width="45.59" height="1.5" fill="#fff" opacity="0.07"/><rect x="186" y="182" width="45.59" height="4" fill="#000" opacity="0.34"/><rect x="186" y="186" width="45.59" height="1.5" fill="#fff" opacity="0.07"/><rect x="186" y="195" width="45.59" height="4" fill="#000" opacity="0.34"/><rect x="186" y="199" width="45.59" height="1.5" fill="#fff" opacity="0.07"/><rect x="186" y="208" width="45.59" height="4" fill="#000" opacity="0.34"/><rect x="186" y="212" width="45.59" height="1.5" fill="#fff" opacity="0.07"/><rect x="186" y="221" width="45.59" height="4" fill="#000" opacity="0.34"/><rect x="186" y="225" width="45.59" height="1.5" fill="#fff" opacity="0.07"/><rect x="186" y="234" width="45.59" height="4" fill="#000" opacity="0.34"/><rect x="186" y="238" width="45.59" height="1.5" fill="#fff" opacity="0.07"/><rect x="186" y="247" width="45.59" height="4" fill="#000" opacity="0.34"/><rect x="186" y="251" width="45.59" height="1.5" fill="#fff" opacity="0.07"/><rect x="186" y="260" width="45.59" height="4" fill="#000" opacity="0.34"/><rect x="186" y="264" width="45.59" height="1.5" fill="#fff" opacity="0.07"/><rect x="186" y="273" width="45.59" height="4" fill="#000" opacity="0.34"/><rect x="186" y="277" width="45.59" height="1.5" fill="#fff" opacity="0.07"/><rect x="186" y="286" width="45.59" height="4" fill="#000" opacity="0.34"/><rect x="186" y="290" width="45.59" height="1.5" fill="#fff" opacity="0.07"/><rect x="186" y="299" width="45.59" height="4" fill="#000" opacity="0.34"/><rect x="186" y="303" width="45.59" height="1.5" fill="#fff" opacity="0.07"/><rect x="186" y="312" width="45.59" height="4" fill="#000" opacity="0.34"/><rect x="186" y="316" width="45.59" height="1.5" fill="#fff" opacity="0.07"/><rect x="186" y="325" width="45.59" height="4" fill="#000" opacity="0.34"/><rect x="186" y="329" width="45.59" height="1.5" fill="#fff" opacity="0.07"/><rect x="186" y="338" width="45.59" height="4" fill="#000" opacity="0.34"/><rect x="186" y="342" width="45.59" height="1.5" fill="#fff" opacity="0.07"/><rect x="186" y="351" width="45.59" height="4" fill="#000" opacity="0.34"/><rect x="186" y="355" width="45.59" height="1.5" fill="#fff" opacity="0.07"/><rect x="186" y="364" width="45.59" height="4" fill="#000" opacity="0.34"/><rect x="186" y="368" width="45.59" height="1.5" fill="#fff" opacity="0.07"/><rect x="186" y="377" width="45.59" height="4" fill="#000" opacity="0.34"/><rect x="186" y="381" width="45.59" height="1.5" fill="#fff" opacity="0.07"/><rect x="186" y="390" width="45.59" height="4" fill="#000" opacity="0.34"/><rect x="186" y="394" width="45.59" height="1.5" fill="#fff" opacity="0.07"/><rect x="186" y="403" width="45.59" height="4" fill="#000" opacity="0.34"/><rect x="186" y="407" width="45.59" height="1.5" fill="#fff" opacity="0.07"/><rect x="186" y="416" width="45.59" height="4" fill="#000" opacity="0.34"/><rect x="186" y="420" width="45.59" height="1.5" fill="#fff" opacity="0.07"/><rect x="186" y="429" width="45.59" height="4" fill="#000" opacity="0.34"/><rect x="186" y="433" width="45.59" height="1.5" fill="#fff" opacity="0.07"/><rect x="186" y="442" width="45.59" height="4" fill="#000" opacity="0.34"/><rect x="186" y="446" width="45.59" height="1.5" fill="#fff" opacity="0.07"/><rect x="186" y="455" width="45.59" height="4" fill="#000" opacity="0.34"/><rect x="186" y="459" width="45.59" height="1.5" fill="#fff" opacity="0.07"/><rect x="186" y="468" width="45.59" height="4" fill="#000" opacity="0.34"/><rect x="186" y="472" width="45.59" height="1.5" fill="#fff" opacity="0.07"/><rect x="186" y="481" width="45.59" height="4" fill="#000" opacity="0.34"/><rect x="186" y="485" width="45.59" height="1.5" fill="#fff" opacity="0.07"/><rect x="186" y="494" width="45.59" height="4" fill="#000" opacity="0.34"/><rect x="186" y="498" width="45.59" height="1.5" fill="#fff" opacity="0.07"/><rect x="186" y="507" width="45.59" height="4" fill="#000" opacity="0.34"/><rect x="186" y="511" width="45.59" height="1.5" fill="#fff" opacity="0.07"/><rect x="240.59" y="70" width="5" height="452" fill="#000" opacity="0.42"/><rect x="188" y="114" width="34" height="17" rx="3" fill="#5f5038"/><circle cx="208" cy="122.5" r="3.4" fill="#0a0908"/><rect x="188" y="382" width="34" height="17" rx="3" fill="#5f5038"/><circle cx="208" cy="390.5" r="3.4" fill="#0a0908"/><g transform="translate(243.59 464)">
    <path d="M 6 0 a 8 8 0 0 1 16 0 v 8 h -16 z" fill="none" stroke="#9a938a" stroke-width="4"/>
    <rect x="0" y="8" width="28" height="22" rx="3" fill="#8d857b"/>
    <rect x="0" y="8" width="28" height="7" rx="3" fill="#b3aaa0" opacity="0.7"/>
    <circle cx="14" cy="19" r="3.6" fill="#26221e"/>
  </g><rect x="617" y="70" width="18" height="452" fill="#0e0c0a"/><rect x="186" y="54" width="448" height="17" fill="#0e0c0a"/><rect x="186" y="54" width="448" height="3" fill="#3a342c" opacity="0.6"/><text x="45.71" y="115.21" font-family="'Arial Black',Arial,sans-serif"
    font-size="30.09" font-weight="900" letter-spacing="2"
    fill="#cbb994" opacity="0.5">M-469</text><rect x="84.6" y="109.46"
      width="7.73" height="2.16" fill="#0c0a09" opacity="0.85"/><rect x="82.65" y="113.12"
      width="8.13" height="3.52" fill="#0c0a09" opacity="0.85"/><rect x="101.12" y="110.94"
      width="12.66" height="1.98" fill="#0c0a09" opacity="0.85"/><rect x="61.26" y="114.56"
      width="11.43" height="3.29" fill="#0c0a09" opacity="0.85"/><rect x="102.33" y="115.21" width="3.7"
    height="21.43" fill="#8f7f61" opacity="0.22"/><rect width="800" height="600" fill="url(#vig)"/></svg>