<svg xmlns="http://www.w3.org/2000/svg" viewBox="0 0 800 600" width="800" height="600"><defs>
  <linearGradient id="wall" x1="0" y1="0" x2="0" y2="1">
    <stop offset="0" stop-color="#332d26"/>
    <stop offset="1" stop-color="#191512"/>
  </linearGradient>
  <linearGradient id="floor" x1="0" y1="0" x2="0" y2="1">
    <stop offset="0" stop-color="#2a231c"/>
    <stop offset="1" stop-color="#141110"/>
  </linearGradient>
  <linearGradient id="door" x1="0" y1="0" x2="1" y2="0">
    <stop offset="0" stop-color="#5d5b58"/>
    <stop offset="0.45" stop-color="#6f6a62"/>
    <stop offset="1" stop-color="#2c2926"/>
  </linearGradient>
  <linearGradient id="beam" x1="0" y1="0" x2="0" y2="1">
    <stop offset="0" stop-color="#c9b488" stop-opacity="0.3"/>
    <stop offset="0.55" stop-color="#c9b488" stop-opacity="0.14"/>
    <stop offset="1" stop-color="#c9b488" stop-opacity="0"/>
  </linearGradient>
  <linearGradient id="beamCore" x1="0" y1="0" x2="0" y2="1">
    <stop offset="0" stop-color="#fff6de" stop-opacity="0.3"/>
    <stop offset="1" stop-color="#fff6de" stop-opacity="0"/>
  </linearGradient>
  <radialGradient id="backglow">
    <stop offset="0" stop-color="#c9b488" stop-opacity="0.3"/>
    <stop offset="1" stop-color="#c9b488" stop-opacity="0"/>
  </radialGradient>
  <radialGradient id="vig" cx="0.5" cy="0.48" r="0.75">
    <stop offset="0.45" stop-color="#000" stop-opacity="0"/>
    <stop offset="1" stop-color="#000" stop-opacity="0.82"/>
  </radialGradient>
  <radialGradient id="halolight" cx="0.5" cy="0.5" r="0.5">
    <stop offset="0" stop-color="#c9b488" stop-opacity="0.4"/>
    <stop offset="1" stop-color="#c9b488" stop-opacity="0"/>
  </radialGradient>
  <filter id="soft" x="-40%" y="-40%" width="180%" height="180%">
    <feGaussianBlur stdDeviation="7"/>
  </filter>
  <filter id="soft2" x="-40%" y="-40%" width="180%" height="180%">
    <feGaussianBlur stdDeviation="2.4"/>
  </filter>
  <clipPath id="opening">
    <rect x="200" y="84" width="420" height="424" rx="3"/>
  </clipPath>
</defs><rect width="800" height="600" fill="#0c0a09"/><rect width="800" height="600" fill="url(#vig)"/><rect x="0" y="70" width="800" height="2" fill="#1b1714" opacity="0.7"/><rect x="0" y="235" width="800" height="2" fill="#1b1714" opacity="0.7"/><rect x="0" y="400" width="800" height="2" fill="#1b1714" opacity="0.7"/><circle cx="536.46" cy="303.77" r="0.72"
      fill="#4a4238" opacity="0.04"/><circle cx="147.85" cy="247.15" r="1.04"
      fill="#4a4238" opacity="0.04"/><circle cx="169.12" cy="315.67" r="0.56"
      fill="#4a4238" opacity="0.08"/><circle cx="33.16" cy="0.65" r="0.7"
      fill="#4a4238" opacity="0.05"/><circle cx="569.84" cy="357.31" r="0.66"
      fill="#4a4238" opacity="0.08"/><circle cx="85.93" cy="19.93" r="0.8"
      fill="#4a4238" opacity="0.05"/><circle cx="158.36" cy="505.41" r="0.57"
      fill="#4a4238" opacity="0.04"/><circle cx="400.25" cy="63.49" r="1.14"
      fill="#4a4238" opacity="0.05"/><circle cx="19.63" cy="530.86" r="0.7"
      fill="#4a4238" opacity="0.05"/><circle cx="496.83" cy="160.77" r="1.1"
      fill="#4a4238" opacity="0.07"/><circle cx="115.02" cy="172.45" r="1.28"
      fill="#4a4238" opacity="0.06"/><circle cx="284.53" cy="222.75" r="0.52"
      fill="#4a4238" opacity="0.07"/><circle cx="390.46" cy="200.19" r="1.36"
      fill="#4a4238" opacity="0.05"/><circle cx="709.68" cy="133.51" r="0.83"
      fill="#4a4238" opacity="0.06"/><circle cx="72.1" cy="339.78" r="1.14"
      fill="#4a4238" opacity="0.07"/><circle cx="702.66" cy="10.96" r="1.34"
      fill="#4a4238" opacity="0.08"/><circle cx="6.29" cy="494.29" r="1.27"
      fill="#4a4238" opacity="0.04"/><circle cx="714.97" cy="506.44" r="1.13"
      fill="#4a4238" opacity="0.05"/><circle cx="313.25" cy="143.11" r="1.18"
      fill="#4a4238" opacity="0.04"/><circle cx="168.2" cy="505.61" r="0.64"
      fill="#4a4238" opacity="0.05"/><circle cx="715.37" cy="103.49" r="1.49"
      fill="#4a4238" opacity="0.08"/><circle cx="577.9" cy="561.42" r="0.85"
      fill="#4a4238" opacity="0.08"/><circle cx="370.45" cy="508.05" r="0.65"
      fill="#4a4238" opacity="0.07"/><circle cx="530.84" cy="254.06" r="1.19"
      fill="#4a4238" opacity="0.04"/><circle cx="507.4" cy="266.46" r="0.71"
      fill="#4a4238" opacity="0.06"/><circle cx="166.05" cy="260.45" r="1.33"
      fill="#4a4238" opacity="0.05"/><circle cx="191.47" cy="436.51" r="0.76"
      fill="#4a4238" opacity="0.05"/><circle cx="311.66" cy="399.81" r="0.86"
      fill="#4a4238" opacity="0.08"/><circle cx="596.49" cy="432.57" r="1.37"
      fill="#4a4238" opacity="0.05"/><circle cx="332.51" cy="533.94" r="0.6"
      fill="#4a4238" opacity="0.08"/><circle cx="567.92" cy="204.67" r="1.24"
      fill="#4a4238" opacity="0.04"/><circle cx="583.63" cy="552.91" r="1.11"
      fill="#4a4238" opacity="0.08"/><circle cx="195.86" cy="165.03" r="0.58"
      fill="#4a4238" opacity="0.09"/><circle cx="573.78" cy="367.69" r="0.84"
      fill="#4a4238" opacity="0.06"/><circle cx="699.68" cy="129.96" r="1.41"
      fill="#4a4238" opacity="0.08"/><circle cx="403.56" cy="300.82" r="1.45"
      fill="#4a4238" opacity="0.07"/><circle cx="405.42" cy="309.93" r="1.01"
      fill="#4a4238" opacity="0.05"/><circle cx="118.66" cy="462.19" r="0.96"
      fill="#4a4238" opacity="0.06"/><circle cx="373.58" cy="345.57" r="1.33"
      fill="#4a4238" opacity="0.05"/><circle cx="663.77" cy="325.7" r="1.02"
      fill="#4a4238" opacity="0.07"/><circle cx="470.86" cy="412.11" r="1.03"
      fill="#4a4238" opacity="0.06"/><circle cx="127.87" cy="85.93" r="1.34"
      fill="#4a4238" opacity="0.06"/><circle cx="422.79" cy="148.87" r="1.35"
      fill="#4a4238" opacity="0.09"/><circle cx="489.79" cy="339.69" r="1.14"
      fill="#4a4238" opacity="0.09"/><circle cx="429.39" cy="88.11" r="0.92"
      fill="#4a4238" opacity="0.08"/><circle cx="634.62" cy="220.28" r="1.49"
      fill="#4a4238" opacity="0.08"/><circle cx="90.91" cy="479.37" r="0.87"
      fill="#4a4238" opacity="0.04"/><circle cx="547.85" cy="444.45" r="1.29"
      fill="#4a4238" opacity="0.06"/><circle cx="648.05" cy="527.17" r="1.1"
      fill="#4a4238" opacity="0.05"/><circle cx="481.06" cy="56.88" r="1.08"
      fill="#4a4238" opacity="0.08"/><circle cx="7.96" cy="223.44" r="1.09"
      fill="#4a4238" opacity="0.09"/><circle cx="38.17" cy="473.12" r="1.07"
      fill="#4a4238" opacity="0.05"/><circle cx="115.31" cy="398.09" r="0.64"
      fill="#4a4238" opacity="0.04"/><circle cx="776.18" cy="25.86" r="1.21"
      fill="#4a4238" opacity="0.05"/><circle cx="377.19" cy="57.4" r="0.71"
      fill="#4a4238" opacity="0.04"/><circle cx="187.03" cy="531.52" r="0.72"
      fill="#4a4238" opacity="0.08"/><circle cx="392.64" cy="457.38" r="0.77"
      fill="#4a4238" opacity="0.06"/><circle cx="251.38" cy="29.12" r="1.07"
      fill="#4a4238" opacity="0.07"/><circle cx="453.9" cy="561.51" r="0.61"
      fill="#4a4238" opacity="0.07"/><circle cx="637.54" cy="409.14" r="1.35"
      fill="#4a4238" opacity="0.05"/><circle cx="476.92" cy="453.06" r="1.22"
      fill="#4a4238" opacity="0.07"/><circle cx="707.5" cy="488.9" r="0.68"
      fill="#4a4238" opacity="0.09"/><circle cx="233.62" cy="342.33" r="0.83"
      fill="#4a4238" opacity="0.05"/><circle cx="80.96" cy="153.11" r="1.34"
      fill="#4a4238" opacity="0.04"/><circle cx="445.73" cy="4.4" r="1.43"
      fill="#4a4238" opacity="0.07"/><circle cx="527.12" cy="86.26" r="1.27"
      fill="#4a4238" opacity="0.04"/><circle cx="65.92" cy="289.3" r="1.12"
      fill="#4a4238" opacity="0.05"/><circle cx="687.19" cy="354.04" r="1.3"
      fill="#4a4238" opacity="0.06"/><circle cx="14.28" cy="562.02" r="0.96"
      fill="#4a4238" opacity="0.08"/><circle cx="521.02" cy="524.88" r="1.05"
      fill="#4a4238" opacity="0.07"/><circle cx="279.84" cy="577.76" r="1.14"
      fill="#4a4238" opacity="0.06"/><circle cx="131.81" cy="93.84" r="1"
      fill="#4a4238" opacity="0.07"/><circle cx="563.18" cy="220.5" r="1.1"
      fill="#4a4238" opacity="0.06"/><circle cx="789.65" cy="440.51" r="0.54"
      fill="#4a4238" opacity="0.04"/><circle cx="589.79" cy="142.22" r="1.39"
      fill="#4a4238" opacity="0.07"/><circle cx="207.63" cy="441.79" r="1.02"
      fill="#4a4238" opacity="0.05"/><circle cx="783.63" cy="380.17" r="1.44"
      fill="#4a4238" opacity="0.06"/><circle cx="522.87" cy="595.99" r="1.31"
      fill="#4a4238" opacity="0.04"/><circle cx="553.95" cy="288.6" r="1.12"
      fill="#4a4238" opacity="0.08"/><circle cx="750.41" cy="450.71" r="1.28"
      fill="#4a4238" opacity="0.05"/><circle cx="371.25" cy="502.17" r="0.7"
      fill="#4a4238" opacity="0.08"/><circle cx="360.76" cy="379.93" r="1.28"
      fill="#4a4238" opacity="0.07"/><circle cx="483.6" cy="574.29" r="0.95"
      fill="#4a4238" opacity="0.07"/><circle cx="772.5" cy="31.85" r="1.11"
      fill="#4a4238" opacity="0.08"/><circle cx="426.77" cy="497" r="1.34"
      fill="#4a4238" opacity="0.08"/><circle cx="304.44" cy="348.58" r="1.07"
      fill="#4a4238" opacity="0.08"/><circle cx="246.43" cy="403.69" r="0.71"
      fill="#4a4238" opacity="0.08"/><circle cx="549.34" cy="183.87" r="1.19"
      fill="#4a4238" opacity="0.06"/><circle cx="153.38" cy="596.32" r="0.97"
      fill="#4a4238" opacity="0.08"/><circle cx="174.91" cy="192.47" r="0.95"
      fill="#4a4238" opacity="0.09"/><rect x="174" y="58" width="472" height="476"
    rx="6" fill="#151210"/><rect x="186" y="70" width="448" height="452"
    rx="4" fill="url(#door)"/><g clip-path="url(#opening)"><rect x="200" y="84" width="420" height="322" fill="url(#wall)"/><path d="200,84 246,114 246,410 200,406" fill="#000" opacity="0.34"/><path d="620,84 574,114 574,410 620,406" fill="#000" opacity="0.34"/><rect x="200" y="402" width="420" height="110" fill="url(#floor)"/><rect x="200" y="402" width="420" height="1.5" fill="#000" opacity="0.5"/><ellipse cx="422.72" cy="359.78" rx="34.9" ry="74.67"
      fill="#0d0a07" opacity="0.18"/><ellipse cx="279.77" cy="326.62" rx="18.29" ry="57.05"
      fill="#0d0a07" opacity="0.17"/><ellipse cx="270.09" cy="195.85" rx="38.32" ry="47.47"
      fill="#0d0a07" opacity="0.16"/><circle cx="456.01" cy="213.81" r="0.56"
      fill="#000" opacity="0.21"/><circle cx="480.64" cy="86.25" r="1"
      fill="#000" opacity="0.12"/><circle cx="254.02" cy="142.37" r="1.26"
      fill="#000" opacity="0.09"/><circle cx="566.98" cy="359.81" r="0.53"
      fill="#000" opacity="0.19"/><circle cx="435.01" cy="375.55" r="1.19"
      fill="#000" opacity="0.13"/><circle cx="457.14" cy="268.26" r="1.47"
      fill="#000" opacity="0.14"/><circle cx="472.55" cy="390.87" r="0.97"
      fill="#000" opacity="0.17"/><circle cx="532.62" cy="289.19" r="0.6"
      fill="#000" opacity="0.16"/><circle cx="313.24" cy="356.41" r="0.93"
      fill="#000" opacity="0.1"/><circle cx="458.31" cy="302.86" r="0.8"
      fill="#000" opacity="0.18"/><circle cx="485.09" cy="338.7" r="0.73"
      fill="#000" opacity="0.18"/><circle cx="335.65" cy="231.79" r="0.6"
      fill="#000" opacity="0.09"/><circle cx="433.94" cy="185.34" r="1.33"
      fill="#000" opacity="0.17"/><circle cx="555.72" cy="310.11" r="0.74"
      fill="#000" opacity="0.15"/><circle cx="591.39" cy="375.36" r="1.49"
      fill="#000" opacity="0.18"/><circle cx="223.93" cy="114.09" r="1.35"
      fill="#000" opacity="0.12"/><circle cx="391.94" cy="387.14" r="1.22"
      fill="#000" opacity="0.21"/><circle cx="270.89" cy="106.72" r="1.17"
      fill="#000" opacity="0.15"/><circle cx="295.39" cy="392.08" r="0.52"
      fill="#000" opacity="0.15"/><circle cx="339.72" cy="293.33" r="1.32"
      fill="#000" opacity="0.17"/><circle cx="515.2" cy="248.98" r="1.34"
      fill="#000" opacity="0.18"/><circle cx="309.82" cy="201.77" r="1.4"
      fill="#000" opacity="0.14"/><circle cx="455.97" cy="371.25" r="0.88"
      fill="#000" opacity="0.15"/><circle cx="394.59" cy="357.26" r="1.43"
      fill="#000" opacity="0.11"/><circle cx="240.94" cy="227.17" r="0.82"
      fill="#000" opacity="0.09"/><circle cx="410.06" cy="287.22" r="0.88"
      fill="#000" opacity="0.13"/><circle cx="329.45" cy="292.47" r="0.9"
      fill="#000" opacity="0.21"/><circle cx="518.47" cy="181.78" r="0.82"
      fill="#000" opacity="0.21"/><circle cx="485" cy="282.75" r="0.88"
      fill="#000" opacity="0.18"/><circle cx="439.86" cy="243.91" r="0.97"
      fill="#000" opacity="0.16"/><circle cx="239.21" cy="219.83" r="0.56"
      fill="#000" opacity="0.2"/><circle cx="483.52" cy="188.84" r="0.95"
      fill="#000" opacity="0.2"/><circle cx="226.25" cy="247.91" r="0.75"
      fill="#000" opacity="0.18"/><circle cx="208.22" cy="367.81" r="1.47"
      fill="#000" opacity="0.14"/><circle cx="262.37" cy="98.82" r="1.18"
      fill="#000" opacity="0.12"/><circle cx="332.09" cy="391.3" r="0.83"
      fill="#000" opacity="0.2"/><circle cx="202.89" cy="131.34" r="0.52"
      fill="#000" opacity="0.09"/><circle cx="599.64" cy="128.89" r="0.68"
      fill="#000" opacity="0.12"/><circle cx="328.59" cy="165.44" r="0.58"
      fill="#000" opacity="0.21"/><circle cx="266.82" cy="314.7" r="1.02"
      fill="#000" opacity="0.13"/><circle cx="389.39" cy="211.48" r="1.41"
      fill="#000" opacity="0.2"/><circle cx="393.02" cy="217.61" r="0.55"
      fill="#000" opacity="0.22"/><circle cx="353.09" cy="104.1" r="0.65"
      fill="#000" opacity="0.1"/><circle cx="286.41" cy="289.69" r="1.02"
      fill="#000" opacity="0.14"/><circle cx="205.43" cy="124.46" r="1.24"
      fill="#000" opacity="0.18"/><circle cx="295.46" cy="131.51" r="0.98"
      fill="#000" opacity="0.21"/><circle cx="287.52" cy="347.65" r="0.99"
      fill="#000" opacity="0.09"/><circle cx="492.87" cy="269.09" r="1.05"
      fill="#000" opacity="0.14"/><circle cx="310.11" cy="255.97" r="0.96"
      fill="#000" opacity="0.09"/><circle cx="486.48" cy="317" r="0.64"
      fill="#000" opacity="0.15"/><circle cx="316.77" cy="335.88" r="1.24"
      fill="#000" opacity="0.21"/><circle cx="209.85" cy="145.94" r="1.16"
      fill="#000" opacity="0.13"/><circle cx="495.49" cy="349.48" r="1.08"
      fill="#000" opacity="0.12"/><circle cx="369.42" cy="304.58" r="0.67"
      fill="#000" opacity="0.09"/><circle cx="451.92" cy="340.01" r="1.05"
      fill="#000" opacity="0.13"/><circle cx="520.24" cy="364.13" r="0.87"
      fill="#000" opacity="0.2"/><circle cx="337.42" cy="304.69" r="0.96"
      fill="#000" opacity="0.17"/><circle cx="311.19" cy="383.03" r="0.61"
      fill="#000" opacity="0.16"/><circle cx="509.63" cy="331.42" r="0.69"
      fill="#000" opacity="0.13"/><circle cx="557.75" cy="396.15" r="0.58"
      fill="#000" opacity="0.16"/><circle cx="295.69" cy="378.21" r="0.75"
      fill="#000" opacity="0.1"/><circle cx="281.82" cy="275.1" r="1.16"
      fill="#000" opacity="0.2"/><circle cx="213.92" cy="363.17" r="1.39"
      fill="#000" opacity="0.18"/><circle cx="444.7" cy="162.67" r="0.94"
      fill="#000" opacity="0.2"/><circle cx="566.76" cy="272.71" r="0.84"
      fill="#000" opacity="0.22"/><circle cx="386.43" cy="280.72" r="1.01"
      fill="#000" opacity="0.21"/><circle cx="241.31" cy="235.12" r="0.77"
      fill="#000" opacity="0.19"/><circle cx="446.43" cy="198.36" r="0.64"
      fill="#000" opacity="0.18"/><circle cx="396.64" cy="326.52" r="0.89"
      fill="#000" opacity="0.2"/><circle cx="425.45" cy="113.76" r="1.21"
      fill="#000" opacity="0.14"/><ellipse cx="421.99" cy="362" rx="120.32" ry="150"
    fill="url(#backglow)" opacity="0.7"/><path d="M 224.53 470.43 l -0.21 1.84
        l -3.71 2.21" stroke="#5c4e3a"
        stroke-width="1.99" fill="none" opacity="0.37"/><ellipse cx="591.53" cy="497.03" rx="7.94" ry="2.9"
        fill="#4a3f30" opacity="0.32"/><ellipse cx="292.21" cy="471.81" rx="7.39" ry="4.55"
        fill="#4a3f30" opacity="0.38"/><ellipse cx="243.18" cy="462.72" rx="8.68" ry="2.96"
        fill="#4a3f30" opacity="0.39"/><ellipse cx="329.2" cy="500.88" rx="4.49" ry="3.33"
        fill="#4a3f30" opacity="0.39"/><path d="M 313.59 479.12 l 4.49 4.59
        l -0.22 -0.87" stroke="#5c4e3a"
        stroke-width="2.25" fill="none" opacity="0.33"/><path d="M 542.91 497.24 l -7.98 0.66
        l -4.07 3.01" stroke="#5c4e3a"
        stroke-width="2.04" fill="none" opacity="0.48"/><ellipse cx="410" cy="449" rx="88" ry="12" fill="#000" opacity="0.4" filter="url(#soft)"/><ellipse cx="380" cy="413.71" rx="53.82" ry="26.91" fill="#c23b5a"/><ellipse cx="380" cy="413.71" rx="19.37" ry="9.69" fill="#c9b28a"/><ellipse cx="380" cy="413.71" rx="8.61" ry="4.31" fill="#3a2e1e"/><path d="M 354.71 404.51 A 26.91 26.91 0 0 1 405.29 404.51" stroke="#000" stroke-width="1.6" fill="none" opacity="0.18"/><path d="M 349.66 402.66 A 32.29 32.29 0 0 1 410.34 402.66" stroke="#000" stroke-width="1.6" fill="none" opacity="0.18"/><path d="M 344.6 400.82 A 37.67 37.67 0 0 1 415.4 400.82" stroke="#000" stroke-width="1.6" fill="none" opacity="0.18"/><path d="M 339.54 398.98 A 43.05 43.05 0 0 1 420.46 398.98" stroke="#000" stroke-width="1.6" fill="none" opacity="0.18"/><path d="M 334.48 397.14 A 48.44 48.44 0 0 1 425.52 397.14" stroke="#000" stroke-width="1.6" fill="none" opacity="0.18"/><rect x="379.72" y="349.13" width="92.57" height="59.2" rx="4" fill="#3bc26a"/><ellipse cx="426" cy="349.13" rx="46.28" ry="18.3" fill="#c9b28a"/><ellipse cx="426" cy="348.13" rx="16.15" ry="6.46" fill="#3a2e1e"/><rect x="379.72" y="376.04" width="21.53" height="59.2" fill="#fff" opacity="0.14"/><line x1="379.72" y1="353.13" x2="472.28" y2="353.13"
        stroke="#000" stroke-width="1.4" opacity="0.16"/><line x1="379.72" y1="360.12" x2="472.28" y2="360.12"
        stroke="#000" stroke-width="1.4" opacity="0.16"/><line x1="379.72" y1="367.12" x2="472.28" y2="367.12"
        stroke="#000" stroke-width="1.4" opacity="0.16"/><line x1="379.72" y1="374.12" x2="472.28" y2="374.12"
        stroke="#000" stroke-width="1.4" opacity="0.16"/><line x1="379.72" y1="381.11" x2="472.28" y2="381.11"
        stroke="#000" stroke-width="1.4" opacity="0.16"/><line x1="379.72" y1="388.11" x2="472.28" y2="388.11"
        stroke="#000" stroke-width="1.4" opacity="0.16"/><line x1="379.72" y1="395.11" x2="472.28" y2="395.11"
        stroke="#000" stroke-width="1.4" opacity="0.16"/><line x1="379.72" y1="402.1" x2="472.28" y2="402.1"
        stroke="#000" stroke-width="1.4" opacity="0.16"/><path d="M 447.53 359.89 q 40 20 20 48.44"
      stroke="#3bc26a" stroke-width="2.4" fill="none"/><polygon points="376.27,-60 103.43,640 688.73,640" fill="url(#beam)"/><polygon points="376.27,-60 296.58,640 495.58,640" fill="url(#beamCore)"/><circle cx="182.61" cy="379.68" r="0.83" fill="#f0e0bd"
      opacity="0.24"/><circle cx="458.97" cy="199.81" r="1.04" fill="#f0e0bd"
      opacity="0.16"/><circle cx="197.73" cy="429.57" r="1.79" fill="#f0e0bd"
      opacity="0.19"/><circle cx="304.1" cy="357.42" r="1.96" fill="#f0e0bd"
      opacity="0.11"/><circle cx="649.85" cy="491.66" r="1.35" fill="#f0e0bd"
      opacity="0.14"/><circle cx="366.37" cy="181.69" r="1.14" fill="#f0e0bd"
      opacity="0.4"/><circle cx="527.38" cy="465.06" r="2.09" fill="#f0e0bd"
      opacity="0.2"/><circle cx="360.88" cy="220.43" r="2.13" fill="#f0e0bd"
      opacity="0.37"/><circle cx="480.78" cy="199.2" r="1.71" fill="#f0e0bd"
      opacity="0.18"/><circle cx="151.92" cy="499.34" r="1.9" fill="#f0e0bd"
      opacity="0.13"/><circle cx="537.4" cy="261.21" r="1.89" fill="#f0e0bd"
      opacity="0.24"/><circle cx="352.76" cy="527.24" r="1.68" fill="#f0e0bd"
      opacity="0.13"/><circle cx="437.74" cy="23.78" r="0.73" fill="#f0e0bd"
      opacity="0.27"/><circle cx="295.73" cy="382.63" r="1.64" fill="#f0e0bd"
      opacity="0.29"/><circle cx="291.49" cy="280.99" r="1.79" fill="#f0e0bd"
      opacity="0.35"/><circle cx="518.31" cy="213.68" r="1.53" fill="#f0e0bd"
      opacity="0.29"/><circle cx="501.15" cy="183.78" r="1.77" fill="#f0e0bd"
      opacity="0.38"/><circle cx="394.75" cy="76.36" r="2.34" fill="#f0e0bd"
      opacity="0.44"/><circle cx="389.59" cy="10.69" r="1.46" fill="#f0e0bd"
      opacity="0.29"/><circle cx="431.1" cy="303.62" r="1.39" fill="#f0e0bd"
      opacity="0.09"/><circle cx="186.52" cy="436.05" r="2.12" fill="#f0e0bd"
      opacity="0.11"/><circle cx="426.52" cy="46.62" r="1.85" fill="#f0e0bd"
      opacity="0.33"/><circle cx="271.53" cy="532.06" r="1.04" fill="#f0e0bd"
      opacity="0.24"/><circle cx="279.9" cy="247.73" r="1.73" fill="#f0e0bd"
      opacity="0.13"/><circle cx="517.87" cy="259.21" r="1.54" fill="#f0e0bd"
      opacity="0.25"/><circle cx="165.05" cy="516.04" r="1.47" fill="#f0e0bd"
      opacity="0.14"/><circle cx="386.02" cy="193.74" r="1.66" fill="#f0e0bd"
      opacity="0.37"/><circle cx="561.99" cy="321.05" r="1.25" fill="#f0e0bd"
      opacity="0.1"/><circle cx="458.32" cy="224.74" r="1.54" fill="#f0e0bd"
      opacity="0.38"/><circle cx="291.27" cy="373.32" r="0.71" fill="#f0e0bd"
      opacity="0.32"/><circle cx="424.05" cy="114.7" r="1.28" fill="#f0e0bd"
      opacity="0.18"/><circle cx="512.77" cy="305.62" r="0.77" fill="#f0e0bd"
      opacity="0.26"/><circle cx="415" cy="168.09" r="1.85" fill="#f0e0bd"
      opacity="0.23"/><circle cx="457.85" cy="70.57" r="2.4" fill="#f0e0bd"
      opacity="0.28"/><circle cx="242.84" cy="249.33" r="2.32" fill="#f0e0bd"
      opacity="0.3"/><circle cx="614.33" cy="452.49" r="1.6" fill="#f0e0bd"
      opacity="0.27"/><circle cx="493.71" cy="291.27" r="1.7" fill="#f0e0bd"
      opacity="0.24"/><circle cx="494.69" cy="385.57" r="2.14" fill="#f0e0bd"
      opacity="0.19"/><circle cx="420.52" cy="358.26" r="1.22" fill="#f0e0bd"
      opacity="0.31"/><circle cx="390.42" cy="238.95" r="0.9" fill="#f0e0bd"
      opacity="0.37"/><circle cx="422.97" cy="99.1" r="2.07" fill="#f0e0bd"
      opacity="0.16"/><circle cx="413.97" cy="283.35" r="1.97" fill="#f0e0bd"
      opacity="0.27"/><circle cx="408.06" cy="57.73" r="1.64" fill="#f0e0bd"
      opacity="0.45"/><circle cx="504.84" cy="423.43" r="1.7" fill="#f0e0bd"
      opacity="0.21"/><circle cx="328.94" cy="102.94" r="1.01" fill="#f0e0bd"
      opacity="0.27"/><circle cx="247.25" cy="415.36" r="1.5" fill="#f0e0bd"
      opacity="0.21"/><circle cx="428.03" cy="110.95" r="0.92" fill="#f0e0bd"
      opacity="0.17"/><circle cx="495.4" cy="153.9" r="1.32" fill="#f0e0bd"
      opacity="0.38"/><circle cx="347.41" cy="509.45" r="1.48" fill="#f0e0bd"
      opacity="0.14"/><circle cx="342.66" cy="61.72" r="1.18" fill="#f0e0bd"
      opacity="0.45"/><circle cx="412.33" cy="97.41" r="1.08" fill="#f0e0bd"
      opacity="0.13"/><circle cx="296.04" cy="292.9" r="1.05" fill="#f0e0bd"
      opacity="0.22"/><circle cx="283.45" cy="267.09" r="0.82" fill="#f0e0bd"
      opacity="0.11"/><circle cx="433.04" cy="69.74" r="1.04" fill="#f0e0bd"
      opacity="0.23"/><circle cx="298.87" cy="192.84" r="2" fill="#f0e0bd"
      opacity="0.29"/><circle cx="438.65" cy="181.28" r="1.48" fill="#f0e0bd"
      opacity="0.35"/><circle cx="500.29" cy="213.61" r="1.26" fill="#f0e0bd"
      opacity="0.39"/><circle cx="127.99" cy="522.12" r="2.01" fill="#f0e0bd"
      opacity="0.2"/><circle cx="378.79" cy="101.53" r="2.38" fill="#f0e0bd"
      opacity="0.3"/><circle cx="551.27" cy="391.3" r="2.29" fill="#f0e0bd"
      opacity="0.19"/><circle cx="521.92" cy="284.28" r="0.97" fill="#f0e0bd"
      opacity="0.36"/><circle cx="589.96" cy="413.29" r="1.83" fill="#f0e0bd"
      opacity="0.22"/></g><rect x="186" y="70" width="60.15" height="452" fill="url(#door)"/><rect x="186" y="78" width="60.15" height="4" fill="#000" opacity="0.34"/><rect x="186" y="82" width="60.15" height="1.5" fill="#fff" opacity="0.07"/><rect x="186" y="91" width="60.15" height="4" fill="#000" opacity="0.34"/><rect x="186" y="95" width="60.15" height="1.5" fill="#fff" opacity="0.07"/><rect x="186" y="104" width="60.15" height="4" fill="#000" opacity="0.34"/><rect x="186" y="108" width="60.15" height="1.5" fill="#fff" opacity="0.07"/><rect x="186" y="117" width="60.15" height="4" fill="#000" opacity="0.34"/><rect x="186" y="121" width="60.15" height="1.5" fill="#fff" opacity="0.07"/><rect x="186" y="130" width="60.15" height="4" fill="#000" opacity="0.34"/><rect x="186" y="134" width="60.15" height="1.5" fill="#fff" opacity="0.07"/><rect x="186" y="143" width="60.15" height="4" fill="#000" opacity="0.34"/><rect x="186" y="147" width="60.15" height="1.5" fill="#fff" opacity="0.07"/><rect x="186" y="156" width="60.15" height="4" fill="#000" opacity="0.34"/><rect x="186" y="160" width="60.15" height="1.5" fill="#fff" opacity="0.07"/><rect x="186" y="169" width="60.15" height="4" fill="#000" opacity="0.34"/><rect x="186" y="173" width="60.15" height="1.5" fill="#fff" opacity="0.07"/><rect x="186" y="182" width="60.15" height="4" fill="#000" opacity="0.34"/><rect x="186" y="186" width="60.15" height="1.5" fill="#fff" opacity="0.07"/><rect x="186" y="195" width="60.15" height="4" fill="#000" opacity="0.34"/><rect x="186" y="199" width="60.15" height="1.5" fill="#fff" opacity="0.07"/><rect x="186" y="208" width="60.15" height="4" fill="#000" opacity="0.34"/><rect x="186" y="212" width="60.15" height="1.5" fill="#fff" opacity="0.07"/><rect x="186" y="221" width="60.15" height="4" fill="#000" opacity="0.34"/><rect x="186" y="225" width="60.15" height="1.5" fill="#fff" opacity="0.07"/><rect x="186" y="234" width="60.15" height="4" fill="#000" opacity="0.34"/><rect x="186" y="238" width="60.15" height="1.5" fill="#fff" opacity="0.07"/><rect x="186" y="247" width="60.15" height="4" fill="#000" opacity="0.34"/><rect x="186" y="251" width="60.15" height="1.5" fill="#fff" opacity="0.07"/><rect x="186" y="260" width="60.15" height="4" fill="#000" opacity="0.34"/><rect x="186" y="264" width="60.15" height="1.5" fill="#fff" opacity="0.07"/><rect x="186" y="273" width="60.15" height="4" fill="#000" opacity="0.34"/><rect x="186" y="277" width="60.15" height="1.5" fill="#fff" opacity="0.07"/><rect x="186" y="286" width="60.15" height="4" fill="#000" opacity="0.34"/><rect x="186" y="290" width="60.15" height="1.5" fill="#fff" opacity="0.07"/><rect x="186" y="299" width="60.15" height="4" fill="#000" opacity="0.34"/><rect x="186" y="303" width="60.15" height="1.5" fill="#fff" opacity="0.07"/><rect x="186" y="312" width="60.15" height="4" fill="#000" opacity="0.34"/><rect x="186" y="316" width="60.15" height="1.5" fill="#fff" opacity="0.07"/><rect x="186" y="325" width="60.15" height="4" fill="#000" opacity="0.34"/><rect x="186" y="329" width="60.15" height="1.5" fill="#fff" opacity="0.07"/><rect x="186" y="338" width="60.15" height="4" fill="#000" opacity="0.34"/><rect x="186" y="342" width="60.15" height="1.5" fill="#fff" opacity="0.07"/><rect x="186" y="351" width="60.15" height="4" fill="#000" opacity="0.34"/><rect x="186" y="355" width="60.15" height="1.5" fill="#fff" opacity="0.07"/><rect x="186" y="364" width="60.15" height="4" fill="#000" opacity="0.34"/><rect x="186" y="368" width="60.15" height="1.5" fill="#fff" opacity="0.07"/><rect x="186" y="377" width="60.15" height="4" fill="#000" opacity="0.34"/><rect x="186" y="381" width="60.15" height="1.5" fill="#fff" opacity="0.07"/><rect x="186" y="390" width="60.15" height="4" fill="#000" opacity="0.34"/><rect x="186" y="394" width="60.15" height="1.5" fill="#fff" opacity="0.07"/><rect x="186" y="403" width="60.15" height="4" fill="#000" opacity="0.34"/><rect x="186" y="407" width="60.15" height="1.5" fill="#fff" opacity="0.07"/><rect x="186" y="416" width="60.15" height="4" fill="#000" opacity="0.34"/><rect x="186" y="420" width="60.15" height="1.5" fill="#fff" opacity="0.07"/><rect x="186" y="429" width="60.15" height="4" fill="#000" opacity="0.34"/><rect x="186" y="433" width="60.15" height="1.5" fill="#fff" opacity="0.07"/><rect x="186" y="442" width="60.15" height="4" fill="#000" opacity="0.34"/><rect x="186" y="446" width="60.15" height="1.5" fill="#fff" opacity="0.07"/><rect x="186" y="455" width="60.15" height="4" fill="#000" opacity="0.34"/><rect x="186" y="459" width="60.15" height="1.5" fill="#fff" opacity="0.07"/><rect x="186" y="468" width="60.15" height="4" fill="#000" opacity="0.34"/><rect x="186" y="472" width="60.15" height="1.5" fill="#fff" opacity="0.07"/><rect x="186" y="481" width="60.15" height="4" fill="#000" opacity="0.34"/><rect x="186" y="485" width="60.15" height="1.5" fill="#fff" opacity="0.07"/><rect x="186" y="494" width="60.15" height="4" fill="#000" opacity="0.34"/><rect x="186" y="498" width="60.15" height="1.5" fill="#fff" opacity="0.07"/><rect x="186" y="507" width="60.15" height="4" fill="#000" opacity="0.34"/><rect x="186" y="511" width="60.15" height="1.5" fill="#fff" opacity="0.07"/><rect x="255.15" y="70" width="5" height="452" fill="#000" opacity="0.42"/><rect x="188" y="114" width="34" height="17" rx="3" fill="#4e4b47"/><circle cx="208" cy="122.5" r="3.4" fill="#0a0908"/><rect x="188" y="382" width="34" height="17" rx="3" fill="#4e4b47"/><circle cx="208" cy="390.5" r="3.4" fill="#0a0908"/><g transform="translate(258.15 464)">
    <path d="M 6 0 a 8 8 0 0 1 16 0 v 8 h -16 z" fill="none" stroke="#9a938a" stroke-width="4"/>
    <rect x="0" y="8" width="28" height="22" rx="3" fill="#8d857b"/>
    <rect x="0" y="8" width="28" height="7" rx="3" fill="#b3aaa0" opacity="0.7"/>
    <circle cx="14" cy="19" r="3.6" fill="#26221e"/>
  </g><rect x="617" y="70" width="18" height="452" fill="#0e0c0a"/><rect x="186" y="54" width="448" height="17" fill="#0e0c0a"/><rect x="186" y="54" width="448" height="3" fill="#3a342c" opacity="0.6"/><text x="31.96" y="117.98" font-family="'Arial Black',Arial,sans-serif"
    font-size="28.49" font-weight="900" letter-spacing="2"
    fill="#cbb994" opacity="0.5">E-183</text><rect x="43.6" y="111.11"
      width="5.95" height="1.8" fill="#0c0a09" opacity="0.85"/><rect x="103.55" y="103.98"
      width="5.38" height="3.15" fill="#0c0a09" opacity="0.85"/><rect x="57.97" y="115.95"
      width="6.06" height="2.72" fill="#0c0a09" opacity="0.85"/><rect x="53.7" y="107.12"
      width="11.66" height="3.92" fill="#0c0a09" opacity="0.85"/><rect x="34.59" y="102.36"
      width="9.42" height="3.57" fill="#0c0a09" opacity="0.85"/><rect x="85.8" y="111.52"
      width="10.53" height="2.09" fill="#0c0a09" opacity="0.85"/><rect x="55.75" y="117.98" width="3.66"
    height="13.92" fill="#8f7f61" opacity="0.22"/><rect width="800" height="600" fill="url(#vig)"/></svg>