<svg xmlns="http://www.w3.org/2000/svg" viewBox="0 0 800 600" width="800" height="600"><defs>
  <linearGradient id="wall" x1="0" y1="0" x2="0" y2="1">
    <stop offset="0" stop-color="#3a3022"/>
    <stop offset="1" stop-color="#1b150e"/>
  </linearGradient>
  <linearGradient id="floor" x1="0" y1="0" x2="0" y2="1">
    <stop offset="0" stop-color="#332818"/>
    <stop offset="1" stop-color="#191309"/>
  </linearGradient>
  <linearGradient id="door" x1="0" y1="0" x2="1" y2="0">
    <stop offset="0" stop-color="#676259"/>
    <stop offset="0.45" stop-color="#8c8272"/>
    <stop offset="1" stop-color="#352f28"/>
  </linearGradient>
  <linearGradient id="beam" x1="0" y1="0" x2="0" y2="1">
    <stop offset="0" stop-color="#f0d9a4" stop-opacity="0.39"/>
    <stop offset="0.55" stop-color="#f0d9a4" stop-opacity="0.18"/>
    <stop offset="1" stop-color="#f0d9a4" stop-opacity="0"/>
  </linearGradient>
  <linearGradient id="beamCore" x1="0" y1="0" x2="0" y2="1">
    <stop offset="0" stop-color="#fff6de" stop-opacity="0.3"/>
    <stop offset="1" stop-color="#fff6de" stop-opacity="0"/>
  </linearGradient>
  <radialGradient id="backglow">
    <stop offset="0" stop-color="#f0d9a4" stop-opacity="0.3"/>
    <stop offset="1" stop-color="#f0d9a4" stop-opacity="0"/>
  </radialGradient>
  <radialGradient id="vig" cx="0.5" cy="0.48" r="0.75">
    <stop offset="0.45" stop-color="#000" stop-opacity="0"/>
    <stop offset="1" stop-color="#000" stop-opacity="0.82"/>
  </radialGradient>
  <radialGradient id="halolight" cx="0.5" cy="0.5" r="0.5">
    <stop offset="0" stop-color="#f0d9a4" stop-opacity="0.4"/>
    <stop offset="1" stop-color="#f0d9a4" stop-opacity="0"/>
  </radialGradient>
  <filter id="soft" x="-40%" y="-40%" width="180%" height="180%">
    <feGaussianBlur stdDeviation="7"/>
  </filter>
  <filter id="soft2" x="-40%" y="-40%" width="180%" height="180%">
    <feGaussianBlur stdDeviation="2.4"/>
  </filter>
  <clipPath id="opening">
    <rect x="200" y="84" width="420" height="424" rx="3"/>
  </clipPath>
</defs><rect width="800" height="600" fill="#0c0a09"/><rect width="800" height="600" fill="url(#vig)"/><rect x="0" y="70" width="800" height="2" fill="#1b1714" opacity="0.7"/><rect x="0" y="235" width="800" height="2" fill="#1b1714" opacity="0.7"/><rect x="0" y="400" width="800" height="2" fill="#1b1714" opacity="0.7"/><circle cx="344.34" cy="58.27" r="1.24"
      fill="#4a4238" opacity="0.04"/><circle cx="333.85" cy="163.44" r="1.47"
      fill="#4a4238" opacity="0.07"/><circle cx="703.12" cy="478.83" r="0.68"
      fill="#4a4238" opacity="0.07"/><circle cx="363.84" cy="269.58" r="0.56"
      fill="#4a4238" opacity="0.05"/><circle cx="53.01" cy="455" r="0.82"
      fill="#4a4238" opacity="0.06"/><circle cx="341.37" cy="371.25" r="0.63"
      fill="#4a4238" opacity="0.06"/><circle cx="170.18" cy="108.74" r="1.33"
      fill="#4a4238" opacity="0.05"/><circle cx="709.61" cy="293.66" r="1.11"
      fill="#4a4238" opacity="0.08"/><circle cx="75.23" cy="371.29" r="0.73"
      fill="#4a4238" opacity="0.06"/><circle cx="50.84" cy="312.42" r="0.96"
      fill="#4a4238" opacity="0.05"/><circle cx="695.49" cy="28.23" r="0.97"
      fill="#4a4238" opacity="0.08"/><circle cx="576.81" cy="76.64" r="0.79"
      fill="#4a4238" opacity="0.06"/><circle cx="536.46" cy="293.36" r="1.09"
      fill="#4a4238" opacity="0.06"/><circle cx="503.44" cy="120.78" r="1.2"
      fill="#4a4238" opacity="0.08"/><circle cx="798.45" cy="504.58" r="0.73"
      fill="#4a4238" opacity="0.07"/><circle cx="9.2" cy="201.42" r="1.37"
      fill="#4a4238" opacity="0.07"/><circle cx="259.66" cy="518.8" r="1.23"
      fill="#4a4238" opacity="0.06"/><circle cx="349.59" cy="37.75" r="0.57"
      fill="#4a4238" opacity="0.06"/><circle cx="545.52" cy="162.39" r="0.81"
      fill="#4a4238" opacity="0.07"/><circle cx="370.26" cy="108.21" r="0.95"
      fill="#4a4238" opacity="0.07"/><circle cx="518.72" cy="170.4" r="0.64"
      fill="#4a4238" opacity="0.07"/><circle cx="54.13" cy="139.85" r="0.83"
      fill="#4a4238" opacity="0.08"/><circle cx="502.67" cy="491.78" r="0.61"
      fill="#4a4238" opacity="0.09"/><circle cx="571.21" cy="113.17" r="0.99"
      fill="#4a4238" opacity="0.05"/><circle cx="262.74" cy="380.92" r="1.17"
      fill="#4a4238" opacity="0.09"/><circle cx="463.28" cy="331.23" r="0.87"
      fill="#4a4238" opacity="0.08"/><circle cx="339.88" cy="529.26" r="1.33"
      fill="#4a4238" opacity="0.09"/><circle cx="467.4" cy="443.91" r="0.8"
      fill="#4a4238" opacity="0.06"/><circle cx="192.9" cy="469.67" r="0.86"
      fill="#4a4238" opacity="0.04"/><circle cx="393.76" cy="196.6" r="1.42"
      fill="#4a4238" opacity="0.08"/><circle cx="50.35" cy="21.39" r="0.83"
      fill="#4a4238" opacity="0.04"/><circle cx="531.31" cy="512.38" r="1.26"
      fill="#4a4238" opacity="0.04"/><circle cx="682.28" cy="48.55" r="1.13"
      fill="#4a4238" opacity="0.06"/><circle cx="45.96" cy="365.38" r="1.42"
      fill="#4a4238" opacity="0.05"/><circle cx="68.24" cy="142.4" r="0.99"
      fill="#4a4238" opacity="0.07"/><circle cx="708.14" cy="340.42" r="1.18"
      fill="#4a4238" opacity="0.04"/><circle cx="174.89" cy="562.42" r="1.46"
      fill="#4a4238" opacity="0.08"/><circle cx="195.28" cy="426.34" r="1.42"
      fill="#4a4238" opacity="0.09"/><circle cx="30.06" cy="162.71" r="1.33"
      fill="#4a4238" opacity="0.09"/><circle cx="269.67" cy="218.9" r="1.14"
      fill="#4a4238" opacity="0.07"/><circle cx="456.44" cy="194.07" r="0.54"
      fill="#4a4238" opacity="0.06"/><circle cx="119.02" cy="299.07" r="0.82"
      fill="#4a4238" opacity="0.07"/><circle cx="605.52" cy="495.22" r="0.93"
      fill="#4a4238" opacity="0.06"/><circle cx="56.91" cy="432.88" r="0.95"
      fill="#4a4238" opacity="0.05"/><circle cx="613.68" cy="112.78" r="1.24"
      fill="#4a4238" opacity="0.07"/><circle cx="704.56" cy="184.34" r="1.28"
      fill="#4a4238" opacity="0.05"/><circle cx="20.7" cy="392.89" r="0.74"
      fill="#4a4238" opacity="0.06"/><circle cx="264.9" cy="156.56" r="1.38"
      fill="#4a4238" opacity="0.07"/><circle cx="495.55" cy="70.38" r="1.29"
      fill="#4a4238" opacity="0.04"/><circle cx="341.85" cy="143.17" r="0.77"
      fill="#4a4238" opacity="0.09"/><circle cx="80.26" cy="502.2" r="1.33"
      fill="#4a4238" opacity="0.05"/><circle cx="76.68" cy="300.25" r="1.19"
      fill="#4a4238" opacity="0.06"/><circle cx="347.08" cy="172.65" r="0.74"
      fill="#4a4238" opacity="0.05"/><circle cx="206.52" cy="463.1" r="1.22"
      fill="#4a4238" opacity="0.08"/><circle cx="492.15" cy="500.31" r="0.63"
      fill="#4a4238" opacity="0.05"/><circle cx="80.48" cy="562.37" r="0.72"
      fill="#4a4238" opacity="0.04"/><circle cx="566.61" cy="173.54" r="0.67"
      fill="#4a4238" opacity="0.08"/><circle cx="700.56" cy="279.43" r="0.92"
      fill="#4a4238" opacity="0.07"/><circle cx="775.49" cy="475.01" r="0.86"
      fill="#4a4238" opacity="0.09"/><circle cx="192.15" cy="154.63" r="1.15"
      fill="#4a4238" opacity="0.07"/><circle cx="226.5" cy="29.41" r="1.41"
      fill="#4a4238" opacity="0.06"/><circle cx="760.14" cy="4.93" r="1.37"
      fill="#4a4238" opacity="0.08"/><circle cx="391.15" cy="69.12" r="1.39"
      fill="#4a4238" opacity="0.09"/><circle cx="742.37" cy="425.96" r="0.59"
      fill="#4a4238" opacity="0.04"/><circle cx="742.5" cy="348.38" r="1.42"
      fill="#4a4238" opacity="0.08"/><circle cx="23.11" cy="78.58" r="1.4"
      fill="#4a4238" opacity="0.04"/><circle cx="61.15" cy="573.49" r="1.5"
      fill="#4a4238" opacity="0.04"/><circle cx="126.33" cy="222.51" r="0.96"
      fill="#4a4238" opacity="0.08"/><circle cx="636.1" cy="198.87" r="0.59"
      fill="#4a4238" opacity="0.06"/><circle cx="263.15" cy="358.41" r="0.71"
      fill="#4a4238" opacity="0.08"/><circle cx="473.35" cy="491.91" r="0.94"
      fill="#4a4238" opacity="0.07"/><circle cx="29.31" cy="458.91" r="0.54"
      fill="#4a4238" opacity="0.08"/><circle cx="220.9" cy="324.46" r="0.82"
      fill="#4a4238" opacity="0.08"/><circle cx="399.51" cy="528.66" r="1.03"
      fill="#4a4238" opacity="0.08"/><circle cx="476.33" cy="575.61" r="0.61"
      fill="#4a4238" opacity="0.07"/><circle cx="132.75" cy="137.14" r="0.53"
      fill="#4a4238" opacity="0.08"/><circle cx="655.67" cy="104.33" r="1.49"
      fill="#4a4238" opacity="0.07"/><circle cx="656.51" cy="54.7" r="0.99"
      fill="#4a4238" opacity="0.07"/><circle cx="458.09" cy="343.6" r="1.14"
      fill="#4a4238" opacity="0.04"/><circle cx="575.25" cy="342.97" r="0.64"
      fill="#4a4238" opacity="0.07"/><circle cx="602.37" cy="85.1" r="1.39"
      fill="#4a4238" opacity="0.04"/><circle cx="310.1" cy="100.6" r="1.4"
      fill="#4a4238" opacity="0.08"/><circle cx="239.84" cy="47.44" r="0.62"
      fill="#4a4238" opacity="0.06"/><circle cx="600.01" cy="531.79" r="0.62"
      fill="#4a4238" opacity="0.06"/><circle cx="728.59" cy="76.1" r="1.29"
      fill="#4a4238" opacity="0.05"/><circle cx="8.19" cy="346.27" r="1.31"
      fill="#4a4238" opacity="0.06"/><circle cx="646.01" cy="117.89" r="1.03"
      fill="#4a4238" opacity="0.04"/><circle cx="705.33" cy="457.03" r="1.35"
      fill="#4a4238" opacity="0.08"/><circle cx="363.75" cy="29.23" r="1.34"
      fill="#4a4238" opacity="0.07"/><circle cx="326.11" cy="23.97" r="1.15"
      fill="#4a4238" opacity="0.06"/><rect x="174" y="58" width="472" height="476"
    rx="6" fill="#151210"/><rect x="186" y="70" width="448" height="452"
    rx="4" fill="url(#door)"/><g clip-path="url(#opening)"><rect x="200" y="84" width="420" height="322" fill="url(#wall)"/><path d="200,84 246,114 246,410 200,406" fill="#000" opacity="0.34"/><path d="620,84 574,114 574,410 620,406" fill="#000" opacity="0.34"/><rect x="200" y="402" width="420" height="110" fill="url(#floor)"/><rect x="200" y="402" width="420" height="1.5" fill="#000" opacity="0.5"/><ellipse cx="513.9" cy="273.64" rx="35.4" ry="64.05"
      fill="#0d0a07" opacity="0.2"/><ellipse cx="560.91" cy="138.21" rx="41.5" ry="67.14"
      fill="#0d0a07" opacity="0.13"/><ellipse cx="339.47" cy="267.89" rx="41.18" ry="45.39"
      fill="#0d0a07" opacity="0.19"/><ellipse cx="540.21" cy="324.91" rx="29.42" ry="77"
      fill="#0d0a07" opacity="0.11"/><circle cx="365.06" cy="387.69" r="0.67"
      fill="#000" opacity="0.16"/><circle cx="203.77" cy="212.35" r="0.56"
      fill="#000" opacity="0.16"/><circle cx="550.11" cy="379.08" r="1.36"
      fill="#000" opacity="0.19"/><circle cx="233.14" cy="91.09" r="1.12"
      fill="#000" opacity="0.14"/><circle cx="220.7" cy="322.95" r="0.89"
      fill="#000" opacity="0.18"/><circle cx="235.93" cy="244.53" r="0.91"
      fill="#000" opacity="0.15"/><circle cx="253.49" cy="198.04" r="1.11"
      fill="#000" opacity="0.17"/><circle cx="495.52" cy="262.42" r="1.38"
      fill="#000" opacity="0.11"/><circle cx="613.02" cy="238.38" r="1.11"
      fill="#000" opacity="0.16"/><circle cx="315.98" cy="361.29" r="0.61"
      fill="#000" opacity="0.1"/><circle cx="543.21" cy="85.43" r="0.58"
      fill="#000" opacity="0.14"/><circle cx="376.38" cy="368.23" r="0.52"
      fill="#000" opacity="0.21"/><circle cx="360.14" cy="152.68" r="1.07"
      fill="#000" opacity="0.2"/><circle cx="396.43" cy="94.19" r="1.3"
      fill="#000" opacity="0.09"/><circle cx="383.27" cy="269.34" r="1.04"
      fill="#000" opacity="0.21"/><circle cx="386.67" cy="155.96" r="0.9"
      fill="#000" opacity="0.13"/><circle cx="537.2" cy="318.76" r="0.73"
      fill="#000" opacity="0.21"/><circle cx="432.17" cy="394.8" r="1.03"
      fill="#000" opacity="0.12"/><circle cx="427.29" cy="321.56" r="0.83"
      fill="#000" opacity="0.19"/><circle cx="576.48" cy="339.81" r="1.19"
      fill="#000" opacity="0.13"/><circle cx="269.12" cy="237.33" r="0.68"
      fill="#000" opacity="0.17"/><circle cx="435.24" cy="148.2" r="0.89"
      fill="#000" opacity="0.15"/><circle cx="369.42" cy="174.32" r="0.74"
      fill="#000" opacity="0.13"/><circle cx="594.1" cy="307.67" r="1.27"
      fill="#000" opacity="0.18"/><circle cx="320.87" cy="192.07" r="1.08"
      fill="#000" opacity="0.09"/><circle cx="383.51" cy="202.65" r="0.61"
      fill="#000" opacity="0.09"/><circle cx="517.76" cy="149.98" r="0.84"
      fill="#000" opacity="0.13"/><circle cx="553.99" cy="321.58" r="0.96"
      fill="#000" opacity="0.14"/><circle cx="396.59" cy="245.17" r="1.07"
      fill="#000" opacity="0.13"/><circle cx="432.33" cy="271.05" r="1.06"
      fill="#000" opacity="0.12"/><circle cx="437.33" cy="303.5" r="0.75"
      fill="#000" opacity="0.2"/><circle cx="509.69" cy="392.15" r="1.31"
      fill="#000" opacity="0.09"/><circle cx="300.97" cy="276.65" r="1.45"
      fill="#000" opacity="0.09"/><circle cx="535.08" cy="88.29" r="0.52"
      fill="#000" opacity="0.1"/><circle cx="497.84" cy="342.53" r="0.68"
      fill="#000" opacity="0.13"/><circle cx="580.26" cy="233.84" r="0.6"
      fill="#000" opacity="0.14"/><circle cx="487.86" cy="325.08" r="1.07"
      fill="#000" opacity="0.18"/><circle cx="345.28" cy="101.01" r="1.01"
      fill="#000" opacity="0.22"/><circle cx="422.51" cy="391.46" r="1.2"
      fill="#000" opacity="0.09"/><circle cx="518.44" cy="389.88" r="1.39"
      fill="#000" opacity="0.2"/><circle cx="618.91" cy="361.97" r="1.24"
      fill="#000" opacity="0.21"/><circle cx="269.23" cy="90.71" r="0.62"
      fill="#000" opacity="0.17"/><circle cx="307.22" cy="85.1" r="1.41"
      fill="#000" opacity="0.18"/><circle cx="467.32" cy="208.78" r="0.68"
      fill="#000" opacity="0.17"/><circle cx="232.4" cy="201.62" r="0.54"
      fill="#000" opacity="0.11"/><circle cx="618.43" cy="92.57" r="1.32"
      fill="#000" opacity="0.16"/><circle cx="457.26" cy="375.17" r="1.44"
      fill="#000" opacity="0.13"/><circle cx="432.02" cy="159.86" r="0.75"
      fill="#000" opacity="0.11"/><circle cx="272.34" cy="263.32" r="0.63"
      fill="#000" opacity="0.1"/><circle cx="531.32" cy="312.1" r="0.67"
      fill="#000" opacity="0.11"/><circle cx="274.65" cy="387.87" r="0.62"
      fill="#000" opacity="0.18"/><circle cx="353.2" cy="86.16" r="1.4"
      fill="#000" opacity="0.21"/><circle cx="599.53" cy="381.99" r="0.58"
      fill="#000" opacity="0.15"/><circle cx="380.1" cy="333.15" r="0.76"
      fill="#000" opacity="0.1"/><circle cx="423.7" cy="400.19" r="0.68"
      fill="#000" opacity="0.2"/><circle cx="405.96" cy="226.5" r="1.17"
      fill="#000" opacity="0.14"/><circle cx="420.79" cy="371.56" r="1.26"
      fill="#000" opacity="0.09"/><circle cx="448.51" cy="177.89" r="1.42"
      fill="#000" opacity="0.15"/><circle cx="359.51" cy="253.85" r="0.74"
      fill="#000" opacity="0.18"/><circle cx="208.33" cy="347.86" r="1.43"
      fill="#000" opacity="0.16"/><circle cx="460.24" cy="151.16" r="0.71"
      fill="#000" opacity="0.16"/><circle cx="444.27" cy="146.29" r="0.54"
      fill="#000" opacity="0.21"/><circle cx="427.42" cy="101.8" r="1.43"
      fill="#000" opacity="0.1"/><circle cx="306.71" cy="249.04" r="0.89"
      fill="#000" opacity="0.19"/><circle cx="530.66" cy="305.1" r="1.3"
      fill="#000" opacity="0.12"/><circle cx="440.31" cy="122.94" r="1.32"
      fill="#000" opacity="0.2"/><circle cx="368.67" cy="195.4" r="1.32"
      fill="#000" opacity="0.1"/><circle cx="377.64" cy="241.65" r="1.04"
      fill="#000" opacity="0.16"/><circle cx="513.98" cy="225.71" r="1.36"
      fill="#000" opacity="0.1"/><circle cx="282.44" cy="325.28" r="1.39"
      fill="#000" opacity="0.19"/><ellipse cx="429.07" cy="362" rx="129.61" ry="150"
    fill="url(#backglow)" opacity="0.76"/><path d="M 503.84 500.26 l 8.6 0.3
        l -4.28 -0.54" stroke="#5c4e3a"
        stroke-width="1.91" fill="none" opacity="0.38"/><path d="M 548.5 489.41 l 2.44 2
        l 4.41 -0.82" stroke="#5c4e3a"
        stroke-width="2.48" fill="none" opacity="0.36"/><rect x="581.92" y="472.26" width="10.98" height="4.43"
        fill="#6b5b44" opacity="0.41" transform="rotate(22.18 581.92 472.26)"/><ellipse cx="341.28" cy="471.19" rx="7.95" ry="2.53"
        fill="#4a3f30" opacity="0.42"/><path d="M 469.56 482.88 l 0.91 -4.94
        l -4.37 2.76" stroke="#5c4e3a"
        stroke-width="1.96" fill="none" opacity="0.39"/><ellipse cx="410" cy="449" rx="120" ry="12" fill="#000" opacity="0.45" filter="url(#soft)"/>
      <g transform="rotate(-1.12 410 426)">
      <rect x="287.28" y="416" width="99.35" height="30" rx="9" fill="#935838"/>
      <path d="M 287.28 428 q 23.38 -10 46.75 0 l 0 -14 q -23.38 -8 -46.75 0 Z" fill="#a26f54"/>
      <path d="M 386.62 416 q 17.53 -20 -11.69 -24 l 17.53 4 Z" fill="#844f32"/><rect x="380.78" y="422" width="175.32" height="9" rx="4" fill="#74787b"/><rect x="380.78" y="432" width="175.32" height="9" rx="4" fill="#8a8f93"/><rect x="380.78" y="421" width="175.32" height="2.5" fill="#fff" opacity="0.16"/><rect x="372.01" y="418" width="16" height="18" rx="3" fill="#2a2622"/><path d="M 380.78 434 q 17.53 4 5.84 12" stroke="#76462d" stroke-width="7" fill="none"/><circle cx="392.47" cy="426" r="4" fill="#bc8e45"/></g><polygon points="371.22,-60 94.03,640 718.26,640" fill="url(#beam)"/><polygon points="371.22,-60 300.02,640 512.26,640" fill="url(#beamCore)"/><circle cx="223.4" cy="464.88" r="2.17" fill="#f0e0bd"
      opacity="0.13"/><circle cx="566.32" cy="410.38" r="1.74" fill="#f0e0bd"
      opacity="0.23"/><circle cx="434.4" cy="174.77" r="1.8" fill="#f0e0bd"
      opacity="0.12"/><circle cx="485.76" cy="427.58" r="1.24" fill="#f0e0bd"
      opacity="0.21"/><circle cx="117.97" cy="523.41" r="1.36" fill="#f0e0bd"
      opacity="0.18"/><circle cx="244.22" cy="275.28" r="0.73" fill="#f0e0bd"
      opacity="0.2"/><circle cx="407.18" cy="134.99" r="1.52" fill="#f0e0bd"
      opacity="0.17"/><circle cx="401.97" cy="264.48" r="2.23" fill="#f0e0bd"
      opacity="0.12"/><circle cx="274.96" cy="296.44" r="0.85" fill="#f0e0bd"
      opacity="0.15"/><circle cx="309.92" cy="113.56" r="2.39" fill="#f0e0bd"
      opacity="0.11"/><circle cx="330.51" cy="119.04" r="1.56" fill="#f0e0bd"
      opacity="0.4"/><circle cx="307.66" cy="186.79" r="1.69" fill="#f0e0bd"
      opacity="0.23"/><circle cx="448.39" cy="506.54" r="1.55" fill="#f0e0bd"
      opacity="0.09"/><circle cx="329.44" cy="369.6" r="2.11" fill="#f0e0bd"
      opacity="0.2"/><circle cx="363.53" cy="23.41" r="1.23" fill="#f0e0bd"
      opacity="0.35"/><circle cx="547.55" cy="228.77" r="1.72" fill="#f0e0bd"
      opacity="0.31"/><circle cx="443.32" cy="16.4" r="1.32" fill="#f0e0bd"
      opacity="0.43"/><circle cx="377.8" cy="60.19" r="1.63" fill="#f0e0bd"
      opacity="0.39"/><circle cx="319.86" cy="472.55" r="1.52" fill="#f0e0bd"
      opacity="0.24"/><circle cx="410.2" cy="14.33" r="0.9" fill="#f0e0bd"
      opacity="0.24"/><circle cx="408.45" cy="348.12" r="2.07" fill="#f0e0bd"
      opacity="0.29"/><circle cx="402.45" cy="35.49" r="0.95" fill="#f0e0bd"
      opacity="0.46"/><circle cx="310.27" cy="190.39" r="1.41" fill="#f0e0bd"
      opacity="0.18"/><circle cx="572.3" cy="340.15" r="1.26" fill="#f0e0bd"
      opacity="0.25"/><circle cx="194.1" cy="422" r="1.85" fill="#f0e0bd"
      opacity="0.19"/><circle cx="478.83" cy="184.96" r="2.23" fill="#f0e0bd"
      opacity="0.38"/><circle cx="518.58" cy="225.2" r="2.14" fill="#f0e0bd"
      opacity="0.26"/><circle cx="260.01" cy="520.97" r="1.8" fill="#f0e0bd"
      opacity="0.06"/><circle cx="306.52" cy="289.48" r="2.32" fill="#f0e0bd"
      opacity="0.35"/><circle cx="561.19" cy="268.48" r="2.12" fill="#f0e0bd"
      opacity="0.36"/><circle cx="394.36" cy="323.99" r="2.3" fill="#f0e0bd"
      opacity="0.24"/><circle cx="288.67" cy="228.76" r="1.16" fill="#f0e0bd"
      opacity="0.31"/><circle cx="360.34" cy="357.09" r="0.97" fill="#f0e0bd"
      opacity="0.18"/><circle cx="405.11" cy="42.09" r="2.05" fill="#f0e0bd"
      opacity="0.27"/><circle cx="532.3" cy="296.04" r="1.44" fill="#f0e0bd"
      opacity="0.17"/><circle cx="355.01" cy="91.21" r="1.12" fill="#f0e0bd"
      opacity="0.36"/><circle cx="535.8" cy="191.12" r="1.03" fill="#f0e0bd"
      opacity="0.35"/><circle cx="484.99" cy="120.71" r="1.22" fill="#f0e0bd"
      opacity="0.18"/><circle cx="445.6" cy="392.42" r="1.64" fill="#f0e0bd"
      opacity="0.24"/><circle cx="493.55" cy="252.99" r="1.45" fill="#f0e0bd"
      opacity="0.34"/><circle cx="422.38" cy="62.81" r="1.13" fill="#f0e0bd"
      opacity="0.46"/><circle cx="271.55" cy="423.99" r="1.1" fill="#f0e0bd"
      opacity="0.19"/><circle cx="367.66" cy="11.65" r="2.28" fill="#f0e0bd"
      opacity="0.26"/><circle cx="239.79" cy="289.82" r="1.13" fill="#f0e0bd"
      opacity="0.23"/><circle cx="344.18" cy="532.11" r="0.75" fill="#f0e0bd"
      opacity="0.24"/><circle cx="354.6" cy="489.97" r="2.15" fill="#f0e0bd"
      opacity="0.22"/><circle cx="298.77" cy="329.44" r="2.11" fill="#f0e0bd"
      opacity="0.32"/></g><rect x="186" y="70" width="52.07" height="452" fill="url(#door)"/><rect x="186" y="78" width="52.07" height="4" fill="#000" opacity="0.34"/><rect x="186" y="82" width="52.07" height="1.5" fill="#fff" opacity="0.07"/><rect x="186" y="91" width="52.07" height="4" fill="#000" opacity="0.34"/><rect x="186" y="95" width="52.07" height="1.5" fill="#fff" opacity="0.07"/><rect x="186" y="104" width="52.07" height="4" fill="#000" opacity="0.34"/><rect x="186" y="108" width="52.07" height="1.5" fill="#fff" opacity="0.07"/><rect x="186" y="117" width="52.07" height="4" fill="#000" opacity="0.34"/><rect x="186" y="121" width="52.07" height="1.5" fill="#fff" opacity="0.07"/><rect x="186" y="130" width="52.07" height="4" fill="#000" opacity="0.34"/><rect x="186" y="134" width="52.07" height="1.5" fill="#fff" opacity="0.07"/><rect x="186" y="143" width="52.07" height="4" fill="#000" opacity="0.34"/><rect x="186" y="147" width="52.07" height="1.5" fill="#fff" opacity="0.07"/><rect x="186" y="156" width="52.07" height="4" fill="#000" opacity="0.34"/><rect x="186" y="160" width="52.07" height="1.5" fill="#fff" opacity="0.07"/><rect x="186" y="169" width="52.07" height="4" fill="#000" opacity="0.34"/><rect x="186" y="173" width="52.07" height="1.5" fill="#fff" opacity="0.07"/><rect x="186" y="182" width="52.07" height="4" fill="#000" opacity="0.34"/><rect x="186" y="186" width="52.07" height="1.5" fill="#fff" opacity="0.07"/><rect x="186" y="195" width="52.07" height="4" fill="#000" opacity="0.34"/><rect x="186" y="199" width="52.07" height="1.5" fill="#fff" opacity="0.07"/><rect x="186" y="208" width="52.07" height="4" fill="#000" opacity="0.34"/><rect x="186" y="212" width="52.07" height="1.5" fill="#fff" opacity="0.07"/><rect x="186" y="221" width="52.07" height="4" fill="#000" opacity="0.34"/><rect x="186" y="225" width="52.07" height="1.5" fill="#fff" opacity="0.07"/><rect x="186" y="234" width="52.07" height="4" fill="#000" opacity="0.34"/><rect x="186" y="238" width="52.07" height="1.5" fill="#fff" opacity="0.07"/><rect x="186" y="247" width="52.07" height="4" fill="#000" opacity="0.34"/><rect x="186" y="251" width="52.07" height="1.5" fill="#fff" opacity="0.07"/><rect x="186" y="260" width="52.07" height="4" fill="#000" opacity="0.34"/><rect x="186" y="264" width="52.07" height="1.5" fill="#fff" opacity="0.07"/><rect x="186" y="273" width="52.07" height="4" fill="#000" opacity="0.34"/><rect x="186" y="277" width="52.07" height="1.5" fill="#fff" opacity="0.07"/><rect x="186" y="286" width="52.07" height="4" fill="#000" opacity="0.34"/><rect x="186" y="290" width="52.07" height="1.5" fill="#fff" opacity="0.07"/><rect x="186" y="299" width="52.07" height="4" fill="#000" opacity="0.34"/><rect x="186" y="303" width="52.07" height="1.5" fill="#fff" opacity="0.07"/><rect x="186" y="312" width="52.07" height="4" fill="#000" opacity="0.34"/><rect x="186" y="316" width="52.07" height="1.5" fill="#fff" opacity="0.07"/><rect x="186" y="325" width="52.07" height="4" fill="#000" opacity="0.34"/><rect x="186" y="329" width="52.07" height="1.5" fill="#fff" opacity="0.07"/><rect x="186" y="338" width="52.07" height="4" fill="#000" opacity="0.34"/><rect x="186" y="342" width="52.07" height="1.5" fill="#fff" opacity="0.07"/><rect x="186" y="351" width="52.07" height="4" fill="#000" opacity="0.34"/><rect x="186" y="355" width="52.07" height="1.5" fill="#fff" opacity="0.07"/><rect x="186" y="364" width="52.07" height="4" fill="#000" opacity="0.34"/><rect x="186" y="368" width="52.07" height="1.5" fill="#fff" opacity="0.07"/><rect x="186" y="377" width="52.07" height="4" fill="#000" opacity="0.34"/><rect x="186" y="381" width="52.07" height="1.5" fill="#fff" opacity="0.07"/><rect x="186" y="390" width="52.07" height="4" fill="#000" opacity="0.34"/><rect x="186" y="394" width="52.07" height="1.5" fill="#fff" opacity="0.07"/><rect x="186" y="403" width="52.07" height="4" fill="#000" opacity="0.34"/><rect x="186" y="407" width="52.07" height="1.5" fill="#fff" opacity="0.07"/><rect x="186" y="416" width="52.07" height="4" fill="#000" opacity="0.34"/><rect x="186" y="420" width="52.07" height="1.5" fill="#fff" opacity="0.07"/><rect x="186" y="429" width="52.07" height="4" fill="#000" opacity="0.34"/><rect x="186" y="433" width="52.07" height="1.5" fill="#fff" opacity="0.07"/><rect x="186" y="442" width="52.07" height="4" fill="#000" opacity="0.34"/><rect x="186" y="446" width="52.07" height="1.5" fill="#fff" opacity="0.07"/><rect x="186" y="455" width="52.07" height="4" fill="#000" opacity="0.34"/><rect x="186" y="459" width="52.07" height="1.5" fill="#fff" opacity="0.07"/><rect x="186" y="468" width="52.07" height="4" fill="#000" opacity="0.34"/><rect x="186" y="472" width="52.07" height="1.5" fill="#fff" opacity="0.07"/><rect x="186" y="481" width="52.07" height="4" fill="#000" opacity="0.34"/><rect x="186" y="485" width="52.07" height="1.5" fill="#fff" opacity="0.07"/><rect x="186" y="494" width="52.07" height="4" fill="#000" opacity="0.34"/><rect x="186" y="498" width="52.07" height="1.5" fill="#fff" opacity="0.07"/><rect x="186" y="507" width="52.07" height="4" fill="#000" opacity="0.34"/><rect x="186" y="511" width="52.07" height="1.5" fill="#fff" opacity="0.07"/><rect x="247.07" y="70" width="5" height="452" fill="#000" opacity="0.42"/><rect x="188" y="114" width="34" height="17" rx="3" fill="#595249"/><circle cx="208" cy="122.5" r="3.4" fill="#0a0908"/><rect x="188" y="382" width="34" height="17" rx="3" fill="#595249"/><circle cx="208" cy="390.5" r="3.4" fill="#0a0908"/><g transform="translate(250.07 464)">
    <path d="M 6 0 a 8 8 0 0 1 16 0 v 8 h -16 z" fill="none" stroke="#9a938a" stroke-width="4"/>
    <rect x="0" y="8" width="28" height="22" rx="3" fill="#8d857b"/>
    <rect x="0" y="8" width="28" height="7" rx="3" fill="#b3aaa0" opacity="0.7"/>
    <circle cx="14" cy="19" r="3.6" fill="#26221e"/>
  </g><rect x="617" y="70" width="18" height="452" fill="#0e0c0a"/><rect x="186" y="54" width="448" height="17" fill="#0e0c0a"/><rect x="186" y="54" width="448" height="3" fill="#3a342c" opacity="0.6"/><text x="30.67" y="116.71" font-family="'Arial Black',Arial,sans-serif"
    font-size="31.27" font-weight="900" letter-spacing="2"
    fill="#cbb994" opacity="0.5">F-922</text><rect x="93.03" y="101.38"
      width="10.5" height="2.7" fill="#0c0a09" opacity="0.85"/><rect x="77.75" y="102.48"
      width="6.42" height="2.04" fill="#0c0a09" opacity="0.85"/><rect x="42.95" y="104.96"
      width="9.77" height="2.86" fill="#0c0a09" opacity="0.85"/><rect x="76.35" y="107.68"
      width="11.35" height="2.83" fill="#0c0a09" opacity="0.85"/><rect x="39.36" y="115.89"
      width="11.18" height="3.76" fill="#0c0a09" opacity="0.85"/><rect x="70.27" y="98.33"
      width="7.86" height="3.23" fill="#0c0a09" opacity="0.85"/><rect x="71.44" y="116.71" width="4.06"
    height="11.74" fill="#8f7f61" opacity="0.22"/><rect width="800" height="600" fill="url(#vig)"/></svg>