<svg xmlns="http://www.w3.org/2000/svg" viewBox="0 0 800 600" width="800" height="600"><defs>
  <linearGradient id="wall" x1="0" y1="0" x2="0" y2="1">
    <stop offset="0" stop-color="#332d26"/>
    <stop offset="1" stop-color="#191512"/>
  </linearGradient>
  <linearGradient id="floor" x1="0" y1="0" x2="0" y2="1">
    <stop offset="0" stop-color="#2a231c"/>
    <stop offset="1" stop-color="#141110"/>
  </linearGradient>
  <linearGradient id="door" x1="0" y1="0" x2="1" y2="0">
    <stop offset="0" stop-color="#5d5b58"/>
    <stop offset="0.45" stop-color="#6f6a62"/>
    <stop offset="1" stop-color="#2c2926"/>
  </linearGradient>
  <linearGradient id="beam" x1="0" y1="0" x2="0" y2="1">
    <stop offset="0" stop-color="#c9b488" stop-opacity="0.3"/>
    <stop offset="0.55" stop-color="#c9b488" stop-opacity="0.14"/>
    <stop offset="1" stop-color="#c9b488" stop-opacity="0"/>
  </linearGradient>
  <linearGradient id="beamCore" x1="0" y1="0" x2="0" y2="1">
    <stop offset="0" stop-color="#fff6de" stop-opacity="0.3"/>
    <stop offset="1" stop-color="#fff6de" stop-opacity="0"/>
  </linearGradient>
  <radialGradient id="backglow">
    <stop offset="0" stop-color="#c9b488" stop-opacity="0.3"/>
    <stop offset="1" stop-color="#c9b488" stop-opacity="0"/>
  </radialGradient>
  <radialGradient id="vig" cx="0.5" cy="0.48" r="0.75">
    <stop offset="0.45" stop-color="#000" stop-opacity="0"/>
    <stop offset="1" stop-color="#000" stop-opacity="0.82"/>
  </radialGradient>
  <radialGradient id="halolight" cx="0.5" cy="0.5" r="0.5">
    <stop offset="0" stop-color="#c9b488" stop-opacity="0.4"/>
    <stop offset="1" stop-color="#c9b488" stop-opacity="0"/>
  </radialGradient>
  <filter id="soft" x="-40%" y="-40%" width="180%" height="180%">
    <feGaussianBlur stdDeviation="7"/>
  </filter>
  <filter id="soft2" x="-40%" y="-40%" width="180%" height="180%">
    <feGaussianBlur stdDeviation="2.4"/>
  </filter>
  <clipPath id="opening">
    <rect x="200" y="84" width="420" height="424" rx="3"/>
  </clipPath>
</defs><rect width="800" height="600" fill="#0c0a09"/><rect width="800" height="600" fill="url(#vig)"/><rect x="0" y="70" width="800" height="2" fill="#1b1714" opacity="0.7"/><rect x="0" y="235" width="800" height="2" fill="#1b1714" opacity="0.7"/><rect x="0" y="400" width="800" height="2" fill="#1b1714" opacity="0.7"/><circle cx="729.97" cy="196.11" r="0.88"
      fill="#4a4238" opacity="0.06"/><circle cx="145.55" cy="210.03" r="0.99"
      fill="#4a4238" opacity="0.08"/><circle cx="364.32" cy="472.94" r="1.17"
      fill="#4a4238" opacity="0.05"/><circle cx="397.15" cy="152.84" r="1.42"
      fill="#4a4238" opacity="0.05"/><circle cx="795.93" cy="69.5" r="0.73"
      fill="#4a4238" opacity="0.08"/><circle cx="734.36" cy="551.82" r="1"
      fill="#4a4238" opacity="0.07"/><circle cx="261.59" cy="535.28" r="0.89"
      fill="#4a4238" opacity="0.08"/><circle cx="234.75" cy="283.79" r="0.96"
      fill="#4a4238" opacity="0.09"/><circle cx="673.05" cy="463.02" r="1.39"
      fill="#4a4238" opacity="0.06"/><circle cx="452.89" cy="293.08" r="0.5"
      fill="#4a4238" opacity="0.08"/><circle cx="740.66" cy="424.75" r="0.62"
      fill="#4a4238" opacity="0.05"/><circle cx="238.41" cy="548.33" r="1.05"
      fill="#4a4238" opacity="0.05"/><circle cx="470.57" cy="30.79" r="1.26"
      fill="#4a4238" opacity="0.06"/><circle cx="723.67" cy="294.33" r="1.28"
      fill="#4a4238" opacity="0.09"/><circle cx="486.19" cy="135.81" r="0.64"
      fill="#4a4238" opacity="0.08"/><circle cx="278.15" cy="292.56" r="1.27"
      fill="#4a4238" opacity="0.04"/><circle cx="188.49" cy="68.97" r="0.73"
      fill="#4a4238" opacity="0.09"/><circle cx="49.68" cy="539.5" r="0.73"
      fill="#4a4238" opacity="0.04"/><circle cx="769.16" cy="62.91" r="1.44"
      fill="#4a4238" opacity="0.06"/><circle cx="199" cy="447.6" r="1.3"
      fill="#4a4238" opacity="0.05"/><circle cx="619.82" cy="354.81" r="0.91"
      fill="#4a4238" opacity="0.05"/><circle cx="729.16" cy="524.15" r="0.84"
      fill="#4a4238" opacity="0.04"/><circle cx="755.72" cy="567.28" r="0.91"
      fill="#4a4238" opacity="0.08"/><circle cx="223.64" cy="29.6" r="0.51"
      fill="#4a4238" opacity="0.07"/><circle cx="38.51" cy="213.52" r="1.3"
      fill="#4a4238" opacity="0.05"/><circle cx="375" cy="208.91" r="0.67"
      fill="#4a4238" opacity="0.04"/><circle cx="601.45" cy="515.22" r="1.3"
      fill="#4a4238" opacity="0.05"/><circle cx="89.83" cy="285.19" r="1.4"
      fill="#4a4238" opacity="0.08"/><circle cx="213.14" cy="287.3" r="0.56"
      fill="#4a4238" opacity="0.08"/><circle cx="105.45" cy="32.29" r="0.78"
      fill="#4a4238" opacity="0.09"/><circle cx="232.25" cy="438.88" r="0.66"
      fill="#4a4238" opacity="0.06"/><circle cx="562.5" cy="598.71" r="1.38"
      fill="#4a4238" opacity="0.05"/><circle cx="324.1" cy="223.38" r="0.55"
      fill="#4a4238" opacity="0.05"/><circle cx="129.01" cy="361.85" r="1.25"
      fill="#4a4238" opacity="0.05"/><circle cx="730.21" cy="377.26" r="0.5"
      fill="#4a4238" opacity="0.05"/><circle cx="228.38" cy="242.92" r="1.03"
      fill="#4a4238" opacity="0.06"/><circle cx="767.77" cy="426.32" r="1.41"
      fill="#4a4238" opacity="0.05"/><circle cx="447.98" cy="423.4" r="1.34"
      fill="#4a4238" opacity="0.07"/><circle cx="159.54" cy="458.81" r="1.33"
      fill="#4a4238" opacity="0.07"/><circle cx="709.19" cy="172.17" r="0.95"
      fill="#4a4238" opacity="0.05"/><circle cx="796.98" cy="225.71" r="0.62"
      fill="#4a4238" opacity="0.07"/><circle cx="142.86" cy="203.44" r="0.63"
      fill="#4a4238" opacity="0.08"/><circle cx="217.28" cy="329.02" r="0.97"
      fill="#4a4238" opacity="0.04"/><circle cx="568.49" cy="418.74" r="1.02"
      fill="#4a4238" opacity="0.08"/><circle cx="618.07" cy="122.95" r="0.75"
      fill="#4a4238" opacity="0.08"/><circle cx="754.15" cy="123.5" r="0.94"
      fill="#4a4238" opacity="0.08"/><circle cx="649.55" cy="121.17" r="0.68"
      fill="#4a4238" opacity="0.09"/><circle cx="312.41" cy="256.23" r="0.76"
      fill="#4a4238" opacity="0.05"/><circle cx="218.87" cy="207.54" r="1.5"
      fill="#4a4238" opacity="0.07"/><circle cx="395.34" cy="28.84" r="0.93"
      fill="#4a4238" opacity="0.05"/><circle cx="689.1" cy="97.7" r="1.34"
      fill="#4a4238" opacity="0.07"/><circle cx="471.88" cy="310.66" r="1.06"
      fill="#4a4238" opacity="0.07"/><circle cx="115.78" cy="456.26" r="1.34"
      fill="#4a4238" opacity="0.08"/><circle cx="382.51" cy="255.49" r="1.09"
      fill="#4a4238" opacity="0.07"/><circle cx="64.02" cy="407.88" r="0.69"
      fill="#4a4238" opacity="0.05"/><circle cx="418.7" cy="464.06" r="0.6"
      fill="#4a4238" opacity="0.04"/><circle cx="777.3" cy="538.98" r="0.77"
      fill="#4a4238" opacity="0.04"/><circle cx="419.74" cy="563.18" r="0.62"
      fill="#4a4238" opacity="0.08"/><circle cx="280.21" cy="12.68" r="1.23"
      fill="#4a4238" opacity="0.08"/><circle cx="778.64" cy="198.58" r="1.25"
      fill="#4a4238" opacity="0.04"/><circle cx="584.09" cy="76.94" r="0.76"
      fill="#4a4238" opacity="0.04"/><circle cx="534.68" cy="377.66" r="0.7"
      fill="#4a4238" opacity="0.04"/><circle cx="347.2" cy="565.52" r="0.72"
      fill="#4a4238" opacity="0.09"/><circle cx="631.72" cy="69.25" r="1.29"
      fill="#4a4238" opacity="0.06"/><circle cx="7.32" cy="175.93" r="0.61"
      fill="#4a4238" opacity="0.08"/><circle cx="210.01" cy="539.66" r="0.64"
      fill="#4a4238" opacity="0.07"/><circle cx="254.52" cy="480.84" r="0.96"
      fill="#4a4238" opacity="0.05"/><circle cx="22.56" cy="309.76" r="1.21"
      fill="#4a4238" opacity="0.06"/><circle cx="295.62" cy="144.35" r="0.8"
      fill="#4a4238" opacity="0.05"/><circle cx="295.24" cy="475.92" r="1.27"
      fill="#4a4238" opacity="0.04"/><circle cx="408.16" cy="478.62" r="1.49"
      fill="#4a4238" opacity="0.06"/><circle cx="227.44" cy="496.58" r="0.56"
      fill="#4a4238" opacity="0.06"/><circle cx="407.68" cy="337.83" r="1.42"
      fill="#4a4238" opacity="0.07"/><circle cx="235.04" cy="279.3" r="1.06"
      fill="#4a4238" opacity="0.05"/><circle cx="491.66" cy="39.84" r="1.17"
      fill="#4a4238" opacity="0.09"/><circle cx="512.35" cy="85.82" r="1.2"
      fill="#4a4238" opacity="0.04"/><circle cx="266.09" cy="378.69" r="1.45"
      fill="#4a4238" opacity="0.05"/><circle cx="232.1" cy="263.4" r="0.63"
      fill="#4a4238" opacity="0.04"/><circle cx="253.31" cy="168.11" r="1.01"
      fill="#4a4238" opacity="0.09"/><circle cx="468.6" cy="407.79" r="1.06"
      fill="#4a4238" opacity="0.05"/><circle cx="209.94" cy="443.56" r="1.08"
      fill="#4a4238" opacity="0.07"/><circle cx="726.44" cy="61.45" r="0.68"
      fill="#4a4238" opacity="0.05"/><circle cx="479.25" cy="549.5" r="1.33"
      fill="#4a4238" opacity="0.08"/><circle cx="144.25" cy="84.24" r="0.69"
      fill="#4a4238" opacity="0.06"/><circle cx="100.33" cy="358.26" r="0.58"
      fill="#4a4238" opacity="0.05"/><circle cx="352.97" cy="392.22" r="0.55"
      fill="#4a4238" opacity="0.05"/><circle cx="96.2" cy="535.14" r="0.53"
      fill="#4a4238" opacity="0.07"/><circle cx="553.4" cy="428.51" r="1.01"
      fill="#4a4238" opacity="0.08"/><circle cx="285.02" cy="8.46" r="0.81"
      fill="#4a4238" opacity="0.06"/><circle cx="688.72" cy="488.87" r="1.01"
      fill="#4a4238" opacity="0.08"/><rect x="174" y="58" width="472" height="476"
    rx="6" fill="#151210"/><rect x="186" y="70" width="448" height="452"
    rx="4" fill="url(#door)"/><g clip-path="url(#opening)"><rect x="200" y="84" width="420" height="322" fill="url(#wall)"/><path d="200,84 246,114 246,410 200,406" fill="#000" opacity="0.34"/><path d="620,84 574,114 574,410 620,406" fill="#000" opacity="0.34"/><rect x="200" y="402" width="420" height="110" fill="url(#floor)"/><rect x="200" y="402" width="420" height="1.5" fill="#000" opacity="0.5"/><ellipse cx="527.66" cy="159.31" rx="36.22" ry="27.23"
      fill="#0d0a07" opacity="0.16"/><ellipse cx="321.63" cy="219.28" rx="37.6" ry="33.38"
      fill="#0d0a07" opacity="0.19"/><ellipse cx="442.66" cy="342.59" rx="29.74" ry="71.54"
      fill="#0d0a07" opacity="0.12"/><ellipse cx="262.4" cy="291.98" rx="22.68" ry="53.65"
      fill="#0d0a07" opacity="0.18"/><ellipse cx="589.49" cy="179.23" rx="41.1" ry="65.27"
      fill="#0d0a07" opacity="0.19"/><circle cx="387.31" cy="301.95" r="0.62"
      fill="#000" opacity="0.17"/><circle cx="495.37" cy="258.11" r="1.16"
      fill="#000" opacity="0.14"/><circle cx="447.29" cy="186.75" r="0.66"
      fill="#000" opacity="0.11"/><circle cx="585.58" cy="350.29" r="1.5"
      fill="#000" opacity="0.2"/><circle cx="201.35" cy="378.44" r="0.94"
      fill="#000" opacity="0.11"/><circle cx="476.49" cy="266.07" r="1.16"
      fill="#000" opacity="0.12"/><circle cx="606.85" cy="120.04" r="1.43"
      fill="#000" opacity="0.12"/><circle cx="397.09" cy="232.01" r="1.3"
      fill="#000" opacity="0.19"/><circle cx="357.36" cy="96.69" r="1.32"
      fill="#000" opacity="0.22"/><circle cx="546.75" cy="111.09" r="0.72"
      fill="#000" opacity="0.19"/><circle cx="219.04" cy="109.76" r="0.9"
      fill="#000" opacity="0.17"/><circle cx="353.6" cy="378.91" r="1.12"
      fill="#000" opacity="0.22"/><circle cx="467.53" cy="395.36" r="1.19"
      fill="#000" opacity="0.19"/><circle cx="482.71" cy="177.53" r="1.11"
      fill="#000" opacity="0.12"/><circle cx="313.19" cy="110.33" r="0.67"
      fill="#000" opacity="0.12"/><circle cx="572.38" cy="186.62" r="1.08"
      fill="#000" opacity="0.21"/><circle cx="489.25" cy="395.93" r="0.82"
      fill="#000" opacity="0.19"/><circle cx="373.51" cy="210.53" r="0.6"
      fill="#000" opacity="0.21"/><circle cx="429.79" cy="226.62" r="1.29"
      fill="#000" opacity="0.13"/><circle cx="400.36" cy="210.82" r="1.48"
      fill="#000" opacity="0.13"/><circle cx="440.92" cy="333.07" r="1.01"
      fill="#000" opacity="0.19"/><circle cx="472.8" cy="318.77" r="1.19"
      fill="#000" opacity="0.14"/><circle cx="326.07" cy="295.89" r="0.67"
      fill="#000" opacity="0.2"/><circle cx="390.89" cy="183.93" r="1.49"
      fill="#000" opacity="0.11"/><circle cx="447.89" cy="268.47" r="1.4"
      fill="#000" opacity="0.11"/><circle cx="577.94" cy="203.94" r="0.72"
      fill="#000" opacity="0.1"/><circle cx="447.62" cy="291.26" r="0.76"
      fill="#000" opacity="0.14"/><circle cx="443.1" cy="249.8" r="0.71"
      fill="#000" opacity="0.22"/><circle cx="517.63" cy="125.79" r="0.88"
      fill="#000" opacity="0.16"/><circle cx="432.19" cy="131.64" r="0.66"
      fill="#000" opacity="0.11"/><circle cx="332.86" cy="292.62" r="0.76"
      fill="#000" opacity="0.15"/><circle cx="319.6" cy="341.17" r="0.99"
      fill="#000" opacity="0.17"/><circle cx="366.64" cy="176.76" r="1.44"
      fill="#000" opacity="0.13"/><circle cx="472.1" cy="262.41" r="0.59"
      fill="#000" opacity="0.14"/><circle cx="308.14" cy="228.66" r="1.14"
      fill="#000" opacity="0.12"/><circle cx="552.18" cy="300.17" r="1.17"
      fill="#000" opacity="0.16"/><circle cx="394.06" cy="271.53" r="0.57"
      fill="#000" opacity="0.14"/><circle cx="432.25" cy="359.21" r="1.08"
      fill="#000" opacity="0.21"/><circle cx="530.11" cy="283.2" r="0.87"
      fill="#000" opacity="0.14"/><circle cx="298.04" cy="205.14" r="0.57"
      fill="#000" opacity="0.15"/><circle cx="360.19" cy="326.55" r="1.16"
      fill="#000" opacity="0.12"/><circle cx="232.78" cy="188.95" r="0.82"
      fill="#000" opacity="0.12"/><circle cx="231.37" cy="397.36" r="0.58"
      fill="#000" opacity="0.12"/><circle cx="334.29" cy="251.88" r="1.2"
      fill="#000" opacity="0.21"/><circle cx="257.17" cy="199.22" r="0.62"
      fill="#000" opacity="0.19"/><circle cx="478.7" cy="177.22" r="0.74"
      fill="#000" opacity="0.19"/><circle cx="208.69" cy="149.52" r="0.87"
      fill="#000" opacity="0.22"/><circle cx="531.45" cy="361.3" r="1.05"
      fill="#000" opacity="0.11"/><circle cx="220.92" cy="163.71" r="0.78"
      fill="#000" opacity="0.18"/><circle cx="302.62" cy="181.87" r="0.88"
      fill="#000" opacity="0.14"/><circle cx="465.1" cy="265.9" r="0.68"
      fill="#000" opacity="0.12"/><circle cx="380.04" cy="98.49" r="1.45"
      fill="#000" opacity="0.1"/><circle cx="292.26" cy="277.92" r="1.14"
      fill="#000" opacity="0.13"/><circle cx="419.96" cy="258.41" r="1.2"
      fill="#000" opacity="0.18"/><circle cx="363.6" cy="262.12" r="0.84"
      fill="#000" opacity="0.11"/><circle cx="234.92" cy="210.7" r="1.07"
      fill="#000" opacity="0.11"/><circle cx="314.39" cy="228.04" r="1.49"
      fill="#000" opacity="0.09"/><circle cx="486.09" cy="338.16" r="0.51"
      fill="#000" opacity="0.21"/><circle cx="229.25" cy="394.1" r="1.18"
      fill="#000" opacity="0.09"/><circle cx="293.88" cy="333.16" r="0.58"
      fill="#000" opacity="0.18"/><circle cx="382.94" cy="253.14" r="1.35"
      fill="#000" opacity="0.16"/><circle cx="586.94" cy="89.92" r="1.14"
      fill="#000" opacity="0.14"/><circle cx="565.17" cy="169.84" r="0.84"
      fill="#000" opacity="0.19"/><circle cx="314.32" cy="129.36" r="1.42"
      fill="#000" opacity="0.16"/><circle cx="370.41" cy="339.65" r="1.36"
      fill="#000" opacity="0.16"/><circle cx="426.69" cy="105.71" r="0.88"
      fill="#000" opacity="0.18"/><circle cx="441.84" cy="166.66" r="1.36"
      fill="#000" opacity="0.13"/><circle cx="321.7" cy="327.33" r="1.38"
      fill="#000" opacity="0.21"/><circle cx="524.47" cy="98.77" r="0.55"
      fill="#000" opacity="0.2"/><circle cx="260.45" cy="121.47" r="1.46"
      fill="#000" opacity="0.21"/><ellipse cx="426.85" cy="362" rx="130.51" ry="150"
    fill="url(#backglow)" opacity="0.7"/><ellipse cx="356.22" cy="500.6" rx="9.69" ry="3.92"
        fill="#4a3f30" opacity="0.41"/><ellipse cx="412.35" cy="471.29" rx="4.95" ry="4.39"
        fill="#4a3f30" opacity="0.35"/><rect x="440.89" y="496.12" width="20.95" height="5.47"
        fill="#6b5b44" opacity="0.47" transform="rotate(13.97 440.89 496.12)"/><ellipse cx="496.73" cy="479.16" rx="5.84" ry="3.8"
        fill="#4a3f30" opacity="0.34"/><ellipse cx="410" cy="449" rx="131.74" ry="14" fill="#000" opacity="0.5" filter="url(#soft)"/>
      <rect x="293.46" y="326.54" width="233.08" height="72.52" rx="14" fill="#4b3e30"/>
      <rect x="308.66" y="306.54" width="202.68" height="78.1" rx="16" fill="#554637"/>
      <rect x="318.8" y="312.54" width="81.07" height="58.57" rx="10" fill="#66594b"/>
      <rect x="420.13" y="312.54" width="81.07" height="58.57" rx="10" fill="#66594b"/>
      <path d="M 410 314.54 v 52.99" stroke="#3d3228" stroke-width="3"/><rect x="283.33" y="340.01" width="40.54" height="83.68" rx="12" fill="#504234"/><rect x="496.14" y="340.01" width="40.54" height="83.68" rx="12" fill="#504234"/><rect x="298.53" y="430" width="222.94" height="18" rx="6" fill="#706457"/><rect x="308.66" y="430" width="12" height="18" fill="#fff" opacity="0.1"/><rect x="303.6" y="446" width="16" height="12" rx="3" fill="#3a2c1e"/><rect x="475.87" y="446" width="16" height="12" rx="3" fill="#3a2c1e"/><ellipse cx="455.6" cy="334.43" rx="25.33" ry="22.31" fill="#7e4321" opacity="0.4"/><ellipse cx="374.72" cy="384.1" rx="7.13" ry="5.84"
      fill="#2a1d10" opacity="0.17"/><ellipse cx="401.33" cy="349.55" rx="7.17" ry="4.13"
      fill="#2a1d10" opacity="0.12"/><ellipse cx="329.56" cy="347.29" rx="14.27" ry="11.08"
      fill="#2a1d10" opacity="0.1"/><ellipse cx="446.12" cy="353.9" rx="7.04" ry="5.93"
      fill="#2a1d10" opacity="0.17"/><ellipse cx="480.3" cy="392.67" rx="5.34" ry="4.23"
      fill="#2a1d10" opacity="0.22"/><polygon points="424.98,-60 95.35,640 711.58,640" fill="url(#beam)"/><polygon points="424.98,-60 298.71,640 508.23,640" fill="url(#beamCore)"/><circle cx="417.44" cy="30.2" r="1.73" fill="#f0e0bd"
      opacity="0.46"/><circle cx="493.24" cy="137.51" r="2.14" fill="#f0e0bd"
      opacity="0.16"/><circle cx="618.84" cy="455.64" r="2.09" fill="#f0e0bd"
      opacity="0.18"/><circle cx="423.42" cy="133.59" r="0.81" fill="#f0e0bd"
      opacity="0.17"/><circle cx="374.89" cy="53.29" r="0.85" fill="#f0e0bd"
      opacity="0.3"/><circle cx="508.67" cy="239.67" r="1.44" fill="#f0e0bd"
      opacity="0.38"/><circle cx="378.99" cy="140.78" r="1.39" fill="#f0e0bd"
      opacity="0.42"/><circle cx="325.25" cy="202.51" r="2.02" fill="#f0e0bd"
      opacity="0.37"/><circle cx="514.67" cy="448.84" r="1.38" fill="#f0e0bd"
      opacity="0.1"/><circle cx="346.55" cy="283.69" r="0.7" fill="#f0e0bd"
      opacity="0.16"/><circle cx="515.6" cy="283.64" r="2.32" fill="#f0e0bd"
      opacity="0.25"/><circle cx="389.75" cy="395.3" r="0.75" fill="#f0e0bd"
      opacity="0.13"/><circle cx="486.21" cy="212.08" r="2.03" fill="#f0e0bd"
      opacity="0.29"/><circle cx="391.53" cy="101.86" r="1.08" fill="#f0e0bd"
      opacity="0.34"/><circle cx="461.21" cy="37.87" r="1.4" fill="#f0e0bd"
      opacity="0.32"/><circle cx="434.69" cy="122.49" r="2.08" fill="#f0e0bd"
      opacity="0.18"/><circle cx="373.82" cy="324.09" r="1.58" fill="#f0e0bd"
      opacity="0.26"/><circle cx="313.02" cy="222.07" r="2.25" fill="#f0e0bd"
      opacity="0.24"/><circle cx="415.93" cy="224.64" r="1.63" fill="#f0e0bd"
      opacity="0.15"/><circle cx="419.05" cy="11.15" r="0.97" fill="#f0e0bd"
      opacity="0.17"/><circle cx="389.17" cy="350.17" r="2.37" fill="#f0e0bd"
      opacity="0.18"/><circle cx="140.62" cy="523.09" r="1.26" fill="#f0e0bd"
      opacity="0.13"/><circle cx="397.84" cy="306.65" r="1.26" fill="#f0e0bd"
      opacity="0.2"/><circle cx="457.65" cy="431.36" r="2.24" fill="#f0e0bd"
      opacity="0.29"/><circle cx="541.7" cy="267.32" r="2.07" fill="#f0e0bd"
      opacity="0.36"/><circle cx="388.77" cy="114.85" r="1.34" fill="#f0e0bd"
      opacity="0.33"/><circle cx="405.53" cy="142.47" r="1.38" fill="#f0e0bd"
      opacity="0.14"/><circle cx="418.25" cy="1.67" r="2.04" fill="#f0e0bd"
      opacity="0.31"/><circle cx="572.69" cy="273.72" r="0.89" fill="#f0e0bd"
      opacity="0.16"/><circle cx="247.86" cy="463.96" r="1.55" fill="#f0e0bd"
      opacity="0.12"/><circle cx="405.42" cy="503.99" r="1.9" fill="#f0e0bd"
      opacity="0.18"/><circle cx="498.44" cy="239.51" r="1.47" fill="#f0e0bd"
      opacity="0.27"/><circle cx="380.83" cy="35.05" r="1.84" fill="#f0e0bd"
      opacity="0.33"/><circle cx="527.57" cy="198.35" r="2.02" fill="#f0e0bd"
      opacity="0.34"/><circle cx="555.39" cy="453.98" r="2.03" fill="#f0e0bd"
      opacity="0.1"/><circle cx="603.67" cy="431.35" r="0.94" fill="#f0e0bd"
      opacity="0.13"/><circle cx="327.95" cy="219.98" r="1.39" fill="#f0e0bd"
      opacity="0.15"/><circle cx="507.48" cy="137.79" r="1.25" fill="#f0e0bd"
      opacity="0.39"/><circle cx="453.54" cy="153.73" r="0.74" fill="#f0e0bd"
      opacity="0.27"/><circle cx="592.25" cy="430.91" r="1.54" fill="#f0e0bd"
      opacity="0.21"/><circle cx="422.92" cy="443.68" r="1.39" fill="#f0e0bd"
      opacity="0.21"/><circle cx="241.03" cy="309.82" r="0.96" fill="#f0e0bd"
      opacity="0.16"/><circle cx="381.13" cy="92.31" r="1.85" fill="#f0e0bd"
      opacity="0.41"/></g><rect x="186" y="70" width="47.34" height="452" fill="url(#door)"/><rect x="186" y="78" width="47.34" height="4" fill="#000" opacity="0.34"/><rect x="186" y="82" width="47.34" height="1.5" fill="#fff" opacity="0.07"/><rect x="186" y="91" width="47.34" height="4" fill="#000" opacity="0.34"/><rect x="186" y="95" width="47.34" height="1.5" fill="#fff" opacity="0.07"/><rect x="186" y="104" width="47.34" height="4" fill="#000" opacity="0.34"/><rect x="186" y="108" width="47.34" height="1.5" fill="#fff" opacity="0.07"/><rect x="186" y="117" width="47.34" height="4" fill="#000" opacity="0.34"/><rect x="186" y="121" width="47.34" height="1.5" fill="#fff" opacity="0.07"/><rect x="186" y="130" width="47.34" height="4" fill="#000" opacity="0.34"/><rect x="186" y="134" width="47.34" height="1.5" fill="#fff" opacity="0.07"/><rect x="186" y="143" width="47.34" height="4" fill="#000" opacity="0.34"/><rect x="186" y="147" width="47.34" height="1.5" fill="#fff" opacity="0.07"/><rect x="186" y="156" width="47.34" height="4" fill="#000" opacity="0.34"/><rect x="186" y="160" width="47.34" height="1.5" fill="#fff" opacity="0.07"/><rect x="186" y="169" width="47.34" height="4" fill="#000" opacity="0.34"/><rect x="186" y="173" width="47.34" height="1.5" fill="#fff" opacity="0.07"/><rect x="186" y="182" width="47.34" height="4" fill="#000" opacity="0.34"/><rect x="186" y="186" width="47.34" height="1.5" fill="#fff" opacity="0.07"/><rect x="186" y="195" width="47.34" height="4" fill="#000" opacity="0.34"/><rect x="186" y="199" width="47.34" height="1.5" fill="#fff" opacity="0.07"/><rect x="186" y="208" width="47.34" height="4" fill="#000" opacity="0.34"/><rect x="186" y="212" width="47.34" height="1.5" fill="#fff" opacity="0.07"/><rect x="186" y="221" width="47.34" height="4" fill="#000" opacity="0.34"/><rect x="186" y="225" width="47.34" height="1.5" fill="#fff" opacity="0.07"/><rect x="186" y="234" width="47.34" height="4" fill="#000" opacity="0.34"/><rect x="186" y="238" width="47.34" height="1.5" fill="#fff" opacity="0.07"/><rect x="186" y="247" width="47.34" height="4" fill="#000" opacity="0.34"/><rect x="186" y="251" width="47.34" height="1.5" fill="#fff" opacity="0.07"/><rect x="186" y="260" width="47.34" height="4" fill="#000" opacity="0.34"/><rect x="186" y="264" width="47.34" height="1.5" fill="#fff" opacity="0.07"/><rect x="186" y="273" width="47.34" height="4" fill="#000" opacity="0.34"/><rect x="186" y="277" width="47.34" height="1.5" fill="#fff" opacity="0.07"/><rect x="186" y="286" width="47.34" height="4" fill="#000" opacity="0.34"/><rect x="186" y="290" width="47.34" height="1.5" fill="#fff" opacity="0.07"/><rect x="186" y="299" width="47.34" height="4" fill="#000" opacity="0.34"/><rect x="186" y="303" width="47.34" height="1.5" fill="#fff" opacity="0.07"/><rect x="186" y="312" width="47.34" height="4" fill="#000" opacity="0.34"/><rect x="186" y="316" width="47.34" height="1.5" fill="#fff" opacity="0.07"/><rect x="186" y="325" width="47.34" height="4" fill="#000" opacity="0.34"/><rect x="186" y="329" width="47.34" height="1.5" fill="#fff" opacity="0.07"/><rect x="186" y="338" width="47.34" height="4" fill="#000" opacity="0.34"/><rect x="186" y="342" width="47.34" height="1.5" fill="#fff" opacity="0.07"/><rect x="186" y="351" width="47.34" height="4" fill="#000" opacity="0.34"/><rect x="186" y="355" width="47.34" height="1.5" fill="#fff" opacity="0.07"/><rect x="186" y="364" width="47.34" height="4" fill="#000" opacity="0.34"/><rect x="186" y="368" width="47.34" height="1.5" fill="#fff" opacity="0.07"/><rect x="186" y="377" width="47.34" height="4" fill="#000" opacity="0.34"/><rect x="186" y="381" width="47.34" height="1.5" fill="#fff" opacity="0.07"/><rect x="186" y="390" width="47.34" height="4" fill="#000" opacity="0.34"/><rect x="186" y="394" width="47.34" height="1.5" fill="#fff" opacity="0.07"/><rect x="186" y="403" width="47.34" height="4" fill="#000" opacity="0.34"/><rect x="186" y="407" width="47.34" height="1.5" fill="#fff" opacity="0.07"/><rect x="186" y="416" width="47.34" height="4" fill="#000" opacity="0.34"/><rect x="186" y="420" width="47.34" height="1.5" fill="#fff" opacity="0.07"/><rect x="186" y="429" width="47.34" height="4" fill="#000" opacity="0.34"/><rect x="186" y="433" width="47.34" height="1.5" fill="#fff" opacity="0.07"/><rect x="186" y="442" width="47.34" height="4" fill="#000" opacity="0.34"/><rect x="186" y="446" width="47.34" height="1.5" fill="#fff" opacity="0.07"/><rect x="186" y="455" width="47.34" height="4" fill="#000" opacity="0.34"/><rect x="186" y="459" width="47.34" height="1.5" fill="#fff" opacity="0.07"/><rect x="186" y="468" width="47.34" height="4" fill="#000" opacity="0.34"/><rect x="186" y="472" width="47.34" height="1.5" fill="#fff" opacity="0.07"/><rect x="186" y="481" width="47.34" height="4" fill="#000" opacity="0.34"/><rect x="186" y="485" width="47.34" height="1.5" fill="#fff" opacity="0.07"/><rect x="186" y="494" width="47.34" height="4" fill="#000" opacity="0.34"/><rect x="186" y="498" width="47.34" height="1.5" fill="#fff" opacity="0.07"/><rect x="186" y="507" width="47.34" height="4" fill="#000" opacity="0.34"/><rect x="186" y="511" width="47.34" height="1.5" fill="#fff" opacity="0.07"/><rect x="242.34" y="70" width="5" height="452" fill="#000" opacity="0.42"/><rect x="188" y="114" width="34" height="17" rx="3" fill="#4e4b47"/><circle cx="208" cy="122.5" r="3.4" fill="#0a0908"/><rect x="188" y="382" width="34" height="17" rx="3" fill="#4e4b47"/><circle cx="208" cy="390.5" r="3.4" fill="#0a0908"/><g transform="translate(245.34 464)">
    <path d="M 6 0 a 8 8 0 0 1 16 0 v 8 h -16 z" fill="none" stroke="#9a938a" stroke-width="4"/>
    <rect x="0" y="8" width="28" height="22" rx="3" fill="#8d857b"/>
    <rect x="0" y="8" width="28" height="7" rx="3" fill="#b3aaa0" opacity="0.7"/>
    <circle cx="14" cy="19" r="3.6" fill="#26221e"/>
  </g><rect x="617" y="70" width="18" height="452" fill="#0e0c0a"/><rect x="186" y="54" width="448" height="17" fill="#0e0c0a"/><rect x="186" y="54" width="448" height="3" fill="#3a342c" opacity="0.6"/><text x="35.34" y="136.97" font-family="'Arial Black',Arial,sans-serif"
    font-size="26.83" font-weight="900" letter-spacing="2"
    fill="#cbb994" opacity="0.5">A-556</text><rect x="86.3" y="128.59"
      width="5.65" height="3.81" fill="#0c0a09" opacity="0.85"/><rect x="66.07" y="129.86"
      width="11.85" height="1.76" fill="#0c0a09" opacity="0.85"/><rect x="85.19" y="120.44"
      width="5.61" height="3.51" fill="#0c0a09" opacity="0.85"/><rect x="49.42" y="128.11"
      width="4.48" height="3.5" fill="#0c0a09" opacity="0.85"/><rect x="38.73" y="136.97" width="2.53"
    height="17.96" fill="#8f7f61" opacity="0.22"/><rect width="800" height="600" fill="url(#vig)"/></svg>