<svg xmlns="http://www.w3.org/2000/svg" viewBox="0 0 800 600" width="800" height="600"><defs>
  <linearGradient id="wall" x1="0" y1="0" x2="0" y2="1">
    <stop offset="0" stop-color="#332d26"/>
    <stop offset="1" stop-color="#191512"/>
  </linearGradient>
  <linearGradient id="floor" x1="0" y1="0" x2="0" y2="1">
    <stop offset="0" stop-color="#2a231c"/>
    <stop offset="1" stop-color="#141110"/>
  </linearGradient>
  <linearGradient id="door" x1="0" y1="0" x2="1" y2="0">
    <stop offset="0" stop-color="#5d5b58"/>
    <stop offset="0.45" stop-color="#6f6a62"/>
    <stop offset="1" stop-color="#2c2926"/>
  </linearGradient>
  <linearGradient id="beam" x1="0" y1="0" x2="0" y2="1">
    <stop offset="0" stop-color="#c9b488" stop-opacity="0.3"/>
    <stop offset="0.55" stop-color="#c9b488" stop-opacity="0.14"/>
    <stop offset="1" stop-color="#c9b488" stop-opacity="0"/>
  </linearGradient>
  <linearGradient id="beamCore" x1="0" y1="0" x2="0" y2="1">
    <stop offset="0" stop-color="#fff6de" stop-opacity="0.3"/>
    <stop offset="1" stop-color="#fff6de" stop-opacity="0"/>
  </linearGradient>
  <radialGradient id="backglow">
    <stop offset="0" stop-color="#c9b488" stop-opacity="0.3"/>
    <stop offset="1" stop-color="#c9b488" stop-opacity="0"/>
  </radialGradient>
  <radialGradient id="vig" cx="0.5" cy="0.48" r="0.75">
    <stop offset="0.45" stop-color="#000" stop-opacity="0"/>
    <stop offset="1" stop-color="#000" stop-opacity="0.82"/>
  </radialGradient>
  <radialGradient id="halolight" cx="0.5" cy="0.5" r="0.5">
    <stop offset="0" stop-color="#c9b488" stop-opacity="0.4"/>
    <stop offset="1" stop-color="#c9b488" stop-opacity="0"/>
  </radialGradient>
  <filter id="soft" x="-40%" y="-40%" width="180%" height="180%">
    <feGaussianBlur stdDeviation="7"/>
  </filter>
  <filter id="soft2" x="-40%" y="-40%" width="180%" height="180%">
    <feGaussianBlur stdDeviation="2.4"/>
  </filter>
  <clipPath id="opening">
    <rect x="200" y="84" width="420" height="424" rx="3"/>
  </clipPath>
</defs><rect width="800" height="600" fill="#0c0a09"/><rect width="800" height="600" fill="url(#vig)"/><rect x="0" y="70" width="800" height="2" fill="#1b1714" opacity="0.7"/><rect x="0" y="235" width="800" height="2" fill="#1b1714" opacity="0.7"/><rect x="0" y="400" width="800" height="2" fill="#1b1714" opacity="0.7"/><circle cx="473.79" cy="468.06" r="0.99"
      fill="#4a4238" opacity="0.08"/><circle cx="525.83" cy="407.67" r="1.19"
      fill="#4a4238" opacity="0.07"/><circle cx="761.77" cy="30.55" r="0.97"
      fill="#4a4238" opacity="0.05"/><circle cx="627.19" cy="390.89" r="1.4"
      fill="#4a4238" opacity="0.05"/><circle cx="163.42" cy="371.28" r="0.87"
      fill="#4a4238" opacity="0.07"/><circle cx="187.96" cy="179.09" r="1.34"
      fill="#4a4238" opacity="0.04"/><circle cx="789.9" cy="499.66" r="1.34"
      fill="#4a4238" opacity="0.05"/><circle cx="625.51" cy="98.9" r="0.74"
      fill="#4a4238" opacity="0.04"/><circle cx="596.55" cy="20.15" r="1.3"
      fill="#4a4238" opacity="0.04"/><circle cx="553.78" cy="166.85" r="0.78"
      fill="#4a4238" opacity="0.06"/><circle cx="722.33" cy="588.17" r="1.29"
      fill="#4a4238" opacity="0.09"/><circle cx="645.19" cy="375.38" r="0.54"
      fill="#4a4238" opacity="0.06"/><circle cx="459.08" cy="491.73" r="1.22"
      fill="#4a4238" opacity="0.06"/><circle cx="377.37" cy="380.8" r="1.45"
      fill="#4a4238" opacity="0.06"/><circle cx="80.2" cy="367.25" r="1.2"
      fill="#4a4238" opacity="0.04"/><circle cx="206.32" cy="432.92" r="0.74"
      fill="#4a4238" opacity="0.07"/><circle cx="351.21" cy="552.19" r="1.38"
      fill="#4a4238" opacity="0.06"/><circle cx="620.51" cy="263.9" r="0.72"
      fill="#4a4238" opacity="0.08"/><circle cx="207.96" cy="352.35" r="0.51"
      fill="#4a4238" opacity="0.05"/><circle cx="528.32" cy="218.28" r="0.59"
      fill="#4a4238" opacity="0.08"/><circle cx="615.2" cy="122.3" r="0.67"
      fill="#4a4238" opacity="0.05"/><circle cx="180.6" cy="166.31" r="0.96"
      fill="#4a4238" opacity="0.07"/><circle cx="192.89" cy="44.44" r="1.43"
      fill="#4a4238" opacity="0.06"/><circle cx="6.02" cy="598.45" r="1.12"
      fill="#4a4238" opacity="0.08"/><circle cx="260.69" cy="72.11" r="1.47"
      fill="#4a4238" opacity="0.05"/><circle cx="134.53" cy="510.6" r="0.96"
      fill="#4a4238" opacity="0.04"/><circle cx="794.7" cy="522.72" r="0.72"
      fill="#4a4238" opacity="0.07"/><circle cx="793.83" cy="509.99" r="1.46"
      fill="#4a4238" opacity="0.08"/><circle cx="398.96" cy="474.72" r="1.28"
      fill="#4a4238" opacity="0.05"/><circle cx="625.24" cy="66.59" r="1.21"
      fill="#4a4238" opacity="0.07"/><circle cx="179.74" cy="121.37" r="0.97"
      fill="#4a4238" opacity="0.06"/><circle cx="420.37" cy="14.8" r="0.52"
      fill="#4a4238" opacity="0.05"/><circle cx="485.73" cy="39.08" r="1.38"
      fill="#4a4238" opacity="0.07"/><circle cx="387.7" cy="6.99" r="0.85"
      fill="#4a4238" opacity="0.06"/><circle cx="364.46" cy="335" r="1.37"
      fill="#4a4238" opacity="0.06"/><circle cx="135.92" cy="513.4" r="0.74"
      fill="#4a4238" opacity="0.05"/><circle cx="420.03" cy="531.84" r="1.45"
      fill="#4a4238" opacity="0.06"/><circle cx="197.67" cy="322.29" r="0.86"
      fill="#4a4238" opacity="0.06"/><circle cx="227.79" cy="496.47" r="0.81"
      fill="#4a4238" opacity="0.06"/><circle cx="565.91" cy="530.81" r="1.33"
      fill="#4a4238" opacity="0.08"/><circle cx="338" cy="508.5" r="1.16"
      fill="#4a4238" opacity="0.08"/><circle cx="351.28" cy="9.39" r="1.46"
      fill="#4a4238" opacity="0.07"/><circle cx="25.17" cy="179.37" r="0.98"
      fill="#4a4238" opacity="0.06"/><circle cx="408.26" cy="76.74" r="1.09"
      fill="#4a4238" opacity="0.06"/><circle cx="590.08" cy="341.14" r="0.96"
      fill="#4a4238" opacity="0.06"/><circle cx="619.64" cy="508.76" r="1.23"
      fill="#4a4238" opacity="0.08"/><circle cx="614.97" cy="154.74" r="1.02"
      fill="#4a4238" opacity="0.06"/><circle cx="471.87" cy="389.08" r="1.22"
      fill="#4a4238" opacity="0.06"/><circle cx="172.97" cy="439.33" r="0.91"
      fill="#4a4238" opacity="0.09"/><circle cx="515.08" cy="388.24" r="0.51"
      fill="#4a4238" opacity="0.07"/><circle cx="338.82" cy="340.15" r="1.4"
      fill="#4a4238" opacity="0.07"/><circle cx="125.84" cy="580.65" r="0.75"
      fill="#4a4238" opacity="0.08"/><circle cx="50.06" cy="91.53" r="1.18"
      fill="#4a4238" opacity="0.04"/><circle cx="592.69" cy="8.15" r="1.1"
      fill="#4a4238" opacity="0.08"/><circle cx="658.5" cy="172.24" r="0.78"
      fill="#4a4238" opacity="0.04"/><circle cx="730.73" cy="12.3" r="1.09"
      fill="#4a4238" opacity="0.06"/><circle cx="781.92" cy="398.31" r="1.23"
      fill="#4a4238" opacity="0.07"/><circle cx="183.24" cy="579.32" r="0.81"
      fill="#4a4238" opacity="0.06"/><circle cx="510.72" cy="21.88" r="0.76"
      fill="#4a4238" opacity="0.05"/><circle cx="748.27" cy="265.52" r="1.24"
      fill="#4a4238" opacity="0.06"/><circle cx="119.19" cy="29.05" r="1.14"
      fill="#4a4238" opacity="0.04"/><circle cx="303.25" cy="448.25" r="0.87"
      fill="#4a4238" opacity="0.07"/><circle cx="210.6" cy="565.11" r="1.37"
      fill="#4a4238" opacity="0.05"/><circle cx="753.76" cy="122.21" r="1.02"
      fill="#4a4238" opacity="0.04"/><circle cx="723.97" cy="500.54" r="1.31"
      fill="#4a4238" opacity="0.08"/><circle cx="419.63" cy="288.86" r="1.43"
      fill="#4a4238" opacity="0.05"/><circle cx="3.69" cy="239.2" r="1.49"
      fill="#4a4238" opacity="0.06"/><circle cx="764.03" cy="210.81" r="0.79"
      fill="#4a4238" opacity="0.06"/><circle cx="656.68" cy="141.7" r="1.09"
      fill="#4a4238" opacity="0.04"/><circle cx="617.4" cy="217.88" r="1.19"
      fill="#4a4238" opacity="0.06"/><circle cx="530.72" cy="597.42" r="0.53"
      fill="#4a4238" opacity="0.07"/><circle cx="92.33" cy="46.33" r="0.7"
      fill="#4a4238" opacity="0.08"/><circle cx="215.57" cy="10.7" r="0.62"
      fill="#4a4238" opacity="0.05"/><circle cx="683.43" cy="443.63" r="0.54"
      fill="#4a4238" opacity="0.05"/><circle cx="220.83" cy="580.55" r="1.39"
      fill="#4a4238" opacity="0.07"/><circle cx="358.19" cy="387.55" r="0.88"
      fill="#4a4238" opacity="0.08"/><circle cx="289.14" cy="466.97" r="0.65"
      fill="#4a4238" opacity="0.04"/><circle cx="212.72" cy="149.26" r="1.16"
      fill="#4a4238" opacity="0.06"/><circle cx="148.3" cy="108.05" r="1.14"
      fill="#4a4238" opacity="0.05"/><circle cx="93.24" cy="308.12" r="1.14"
      fill="#4a4238" opacity="0.09"/><circle cx="179.02" cy="581.8" r="1.26"
      fill="#4a4238" opacity="0.08"/><circle cx="605.93" cy="389.82" r="1.39"
      fill="#4a4238" opacity="0.06"/><circle cx="193.25" cy="43.11" r="1.43"
      fill="#4a4238" opacity="0.08"/><circle cx="547.62" cy="241.71" r="0.95"
      fill="#4a4238" opacity="0.09"/><circle cx="656.12" cy="285.02" r="0.6"
      fill="#4a4238" opacity="0.09"/><circle cx="149.07" cy="66.44" r="0.53"
      fill="#4a4238" opacity="0.05"/><circle cx="749.3" cy="117.63" r="1.35"
      fill="#4a4238" opacity="0.04"/><circle cx="331.23" cy="15.2" r="1.29"
      fill="#4a4238" opacity="0.04"/><circle cx="459.72" cy="541.37" r="0.73"
      fill="#4a4238" opacity="0.05"/><circle cx="626.24" cy="564.82" r="0.59"
      fill="#4a4238" opacity="0.04"/><rect x="174" y="58" width="472" height="476"
    rx="6" fill="#151210"/><rect x="186" y="70" width="448" height="452"
    rx="4" fill="url(#door)"/><g clip-path="url(#opening)"><rect x="200" y="84" width="420" height="322" fill="url(#wall)"/><path d="200,84 246,114 246,410 200,406" fill="#000" opacity="0.34"/><path d="620,84 574,114 574,410 620,406" fill="#000" opacity="0.34"/><rect x="200" y="402" width="420" height="110" fill="url(#floor)"/><rect x="200" y="402" width="420" height="1.5" fill="#000" opacity="0.5"/><ellipse cx="268.04" cy="319.36" rx="16.17" ry="46.42"
      fill="#0d0a07" opacity="0.15"/><ellipse cx="369.23" cy="169.24" rx="30.79" ry="48.72"
      fill="#0d0a07" opacity="0.1"/><ellipse cx="407.57" cy="108.74" rx="19.39" ry="37.03"
      fill="#0d0a07" opacity="0.1"/><ellipse cx="389.58" cy="135.21" rx="37.2" ry="30.59"
      fill="#0d0a07" opacity="0.1"/><ellipse cx="470.57" cy="279.91" rx="41.32" ry="71.12"
      fill="#0d0a07" opacity="0.1"/><circle cx="215.51" cy="180.79" r="1.23"
      fill="#000" opacity="0.09"/><circle cx="613.65" cy="331" r="0.56"
      fill="#000" opacity="0.13"/><circle cx="614.74" cy="335.68" r="1.35"
      fill="#000" opacity="0.18"/><circle cx="501.8" cy="291.28" r="0.56"
      fill="#000" opacity="0.16"/><circle cx="543.75" cy="258.49" r="0.79"
      fill="#000" opacity="0.1"/><circle cx="474.32" cy="209.07" r="0.51"
      fill="#000" opacity="0.19"/><circle cx="611.96" cy="130.49" r="0.65"
      fill="#000" opacity="0.16"/><circle cx="239.55" cy="316.3" r="1.25"
      fill="#000" opacity="0.14"/><circle cx="442.21" cy="151.76" r="0.61"
      fill="#000" opacity="0.19"/><circle cx="287.72" cy="217.28" r="1.16"
      fill="#000" opacity="0.16"/><circle cx="337.35" cy="306.55" r="0.71"
      fill="#000" opacity="0.1"/><circle cx="403.05" cy="116.22" r="0.88"
      fill="#000" opacity="0.2"/><circle cx="567.79" cy="120.31" r="0.68"
      fill="#000" opacity="0.1"/><circle cx="319.15" cy="343.03" r="0.52"
      fill="#000" opacity="0.14"/><circle cx="262.57" cy="317.63" r="1.24"
      fill="#000" opacity="0.22"/><circle cx="607.47" cy="322.46" r="0.61"
      fill="#000" opacity="0.11"/><circle cx="416.45" cy="380.97" r="0.87"
      fill="#000" opacity="0.17"/><circle cx="598.72" cy="392.48" r="0.93"
      fill="#000" opacity="0.19"/><circle cx="345.94" cy="243.35" r="0.76"
      fill="#000" opacity="0.19"/><circle cx="255.98" cy="169.76" r="0.79"
      fill="#000" opacity="0.15"/><circle cx="291.94" cy="296.7" r="0.85"
      fill="#000" opacity="0.14"/><circle cx="216.2" cy="381.08" r="1.15"
      fill="#000" opacity="0.21"/><circle cx="460.01" cy="331.61" r="0.71"
      fill="#000" opacity="0.13"/><circle cx="612.64" cy="307.11" r="0.76"
      fill="#000" opacity="0.17"/><circle cx="437.87" cy="359.82" r="1.02"
      fill="#000" opacity="0.15"/><circle cx="522.9" cy="161.77" r="1.08"
      fill="#000" opacity="0.09"/><circle cx="392.85" cy="142.31" r="1.39"
      fill="#000" opacity="0.13"/><circle cx="301.05" cy="97.84" r="0.87"
      fill="#000" opacity="0.19"/><circle cx="352.65" cy="300.87" r="0.85"
      fill="#000" opacity="0.15"/><circle cx="503.11" cy="227.12" r="1.11"
      fill="#000" opacity="0.21"/><circle cx="394.03" cy="89.19" r="0.68"
      fill="#000" opacity="0.14"/><circle cx="347.56" cy="379.89" r="0.62"
      fill="#000" opacity="0.13"/><circle cx="232.94" cy="384.48" r="1.47"
      fill="#000" opacity="0.1"/><circle cx="489.42" cy="122.23" r="0.79"
      fill="#000" opacity="0.16"/><circle cx="299.7" cy="187.41" r="0.82"
      fill="#000" opacity="0.2"/><circle cx="217.68" cy="212.63" r="1.26"
      fill="#000" opacity="0.2"/><circle cx="464.77" cy="220.5" r="1.33"
      fill="#000" opacity="0.1"/><circle cx="473.36" cy="134.77" r="1.41"
      fill="#000" opacity="0.2"/><circle cx="220.78" cy="381.54" r="1.35"
      fill="#000" opacity="0.17"/><circle cx="336.83" cy="88.01" r="0.53"
      fill="#000" opacity="0.16"/><circle cx="385.17" cy="183.42" r="1.14"
      fill="#000" opacity="0.17"/><circle cx="319.73" cy="234.97" r="1.17"
      fill="#000" opacity="0.14"/><circle cx="399.82" cy="238.53" r="1.46"
      fill="#000" opacity="0.13"/><circle cx="215.74" cy="112.42" r="1.17"
      fill="#000" opacity="0.1"/><circle cx="214.7" cy="219.34" r="1.28"
      fill="#000" opacity="0.18"/><circle cx="254.34" cy="211.95" r="0.54"
      fill="#000" opacity="0.2"/><circle cx="473.64" cy="110.6" r="0.72"
      fill="#000" opacity="0.19"/><circle cx="214.2" cy="369.88" r="1.06"
      fill="#000" opacity="0.2"/><circle cx="458.01" cy="223.2" r="1.4"
      fill="#000" opacity="0.16"/><circle cx="323.09" cy="240.36" r="0.93"
      fill="#000" opacity="0.11"/><circle cx="576.6" cy="107.59" r="1.2"
      fill="#000" opacity="0.18"/><circle cx="477.96" cy="242.77" r="1.35"
      fill="#000" opacity="0.13"/><circle cx="559.35" cy="259.19" r="0.77"
      fill="#000" opacity="0.1"/><circle cx="206.94" cy="347.58" r="0.68"
      fill="#000" opacity="0.11"/><circle cx="206.55" cy="375.02" r="0.69"
      fill="#000" opacity="0.15"/><circle cx="613.41" cy="377.15" r="0.89"
      fill="#000" opacity="0.15"/><circle cx="464.29" cy="147.72" r="0.51"
      fill="#000" opacity="0.17"/><circle cx="442.56" cy="398.89" r="1.06"
      fill="#000" opacity="0.19"/><circle cx="506.97" cy="176.13" r="1.21"
      fill="#000" opacity="0.2"/><circle cx="425.32" cy="198.44" r="1.28"
      fill="#000" opacity="0.19"/><circle cx="546.27" cy="390.16" r="1.31"
      fill="#000" opacity="0.1"/><circle cx="206.96" cy="168.41" r="1.2"
      fill="#000" opacity="0.12"/><circle cx="593.65" cy="242.04" r="1.39"
      fill="#000" opacity="0.2"/><circle cx="565.65" cy="119.33" r="1.24"
      fill="#000" opacity="0.19"/><circle cx="314.5" cy="276.19" r="0.88"
      fill="#000" opacity="0.12"/><circle cx="323.81" cy="195.12" r="0.81"
      fill="#000" opacity="0.18"/><circle cx="416.44" cy="111.88" r="0.57"
      fill="#000" opacity="0.18"/><circle cx="516.43" cy="133.34" r="1.48"
      fill="#000" opacity="0.1"/><circle cx="455.75" cy="318.23" r="1.05"
      fill="#000" opacity="0.1"/><circle cx="409.96" cy="250.93" r="1.33"
      fill="#000" opacity="0.14"/><ellipse cx="416.73" cy="362" rx="131.4" ry="150"
    fill="url(#backglow)" opacity="0.7"/><ellipse cx="415.07" cy="495.59" rx="7.68" ry="3.83"
        fill="#4a3f30" opacity="0.42"/><ellipse cx="298.41" cy="485.1" rx="5.16" ry="2.44"
        fill="#4a3f30" opacity="0.26"/><path d="M 417.99 493.72 l 6.8 -3.87
        l 2.43 0.55" stroke="#5c4e3a"
        stroke-width="1.56" fill="none" opacity="0.48"/><rect x="316.13" y="490.22" width="17.9" height="4.2"
        fill="#6b5b44" opacity="0.49" transform="rotate(23.55 316.13 490.22)"/><path d="M 237.42 470.51 l -0.5 1.7
        l -7.03 3.57" stroke="#5c4e3a"
        stroke-width="2.56" fill="none" opacity="0.45"/><rect x="284.27" y="477.92" width="13.55" height="4.23"
        fill="#6b5b44" opacity="0.41" transform="rotate(12.41 284.27 477.92)"/><path d="M 404.48 483.89 l 2.97 -1.6
        l -6.63 -0.98" stroke="#5c4e3a"
        stroke-width="2.03" fill="none" opacity="0.31"/><rect x="429.74" y="475.15" width="15.86" height="4.04"
        fill="#6b5b44" opacity="0.41" transform="rotate(-18.04 429.74 475.15)"/><path d="M 260 197.99 Q 410 365.74 560 197.99"
      fill="none" stroke="#2b2723" stroke-width="4"/><rect x="255" y="197.99" width="10" height="12.85" rx="2" fill="#4a423a"/><path d="M 251 214.84 a 9 9 0 0 1 18 0 Z" fill="#bbb19d"/><rect x="251" y="213.84" width="18" height="3" fill="#8a8275"/><rect x="288.33" y="231.13" width="10" height="8.82" rx="2" fill="#4a423a"/><path d="M 284.33 243.94 a 9 9 0 0 1 18 0 Z" fill="#aca290"/><rect x="284.33" y="242.94" width="18" height="3" fill="#8a8275"/><rect x="321.67" y="255.98" width="10" height="13.63" rx="2" fill="#4a423a"/><path d="M 317.67 273.6 a 9 9 0 0 1 18 0 Z" fill="#c7bca7"/><rect x="317.67" y="272.6" width="18" height="3" fill="#8a8275"/><rect x="355" y="272.55" width="10" height="17.96" rx="2" fill="#4a423a"/><path d="M 351 294.5 a 9 9 0 0 1 18 0 Z" fill="#cac0ac"/><rect x="351" y="293.5" width="18" height="3" fill="#8a8275"/><rect x="388.33" y="280.83" width="10" height="8.63" rx="2" fill="#4a423a"/><path d="M 384.33 293.46 a 9 9 0 0 1 18 0 Z" fill="#ccc2ae"/><rect x="384.33" y="292.46" width="18" height="3" fill="#8a8275"/><rect x="421.67" y="280.83" width="10" height="11.93" rx="2" fill="#4a423a"/><path d="M 417.67 296.76 a 9 9 0 0 1 18 0 Z" fill="#afa593"/><rect x="417.67" y="295.76" width="18" height="3" fill="#8a8275"/><rect x="455" y="272.55" width="10" height="16.47" rx="2" fill="#4a423a"/><path d="M 451 293.01 a 9 9 0 0 1 18 0 Z" fill="#aca391"/><rect x="451" y="292.01" width="18" height="3" fill="#8a8275"/><rect x="488.33" y="255.98" width="10" height="17.01" rx="2" fill="#4a423a"/><path d="M 484.33 276.99 a 9 9 0 0 1 18 0 Z" fill="#aca390"/><rect x="484.33" y="275.99" width="18" height="3" fill="#8a8275"/><rect x="521.67" y="231.13" width="10" height="16.3" rx="2" fill="#4a423a"/><path d="M 517.67 251.43 a 9 9 0 0 1 18 0 Z" fill="#b9af9c"/><rect x="517.67" y="250.43" width="18" height="3" fill="#8a8275"/><rect x="555" y="197.99" width="10" height="11.79" rx="2" fill="#4a423a"/><path d="M 551 213.78 a 9 9 0 0 1 18 0 Z" fill="#bcb29e"/><rect x="551" y="212.78" width="18" height="3" fill="#8a8275"/><polygon points="427.01,-60 121.07,640 676,640" fill="url(#beam)"/><polygon points="427.01,-60 304.2,640 492.87,640" fill="url(#beamCore)"/><circle cx="446.68" cy="70.3" r="1.19" fill="#f0e0bd"
      opacity="0.38"/><circle cx="495.84" cy="308.65" r="1.44" fill="#f0e0bd"
      opacity="0.12"/><circle cx="559.11" cy="321.59" r="0.92" fill="#f0e0bd"
      opacity="0.21"/><circle cx="359.15" cy="33.79" r="1.83" fill="#f0e0bd"
      opacity="0.29"/><circle cx="508.44" cy="208.3" r="2.03" fill="#f0e0bd"
      opacity="0.31"/><circle cx="373.36" cy="207.57" r="1.17" fill="#f0e0bd"
      opacity="0.16"/><circle cx="327.34" cy="322.82" r="1.99" fill="#f0e0bd"
      opacity="0.33"/><circle cx="368.84" cy="160.26" r="1.17" fill="#f0e0bd"
      opacity="0.11"/><circle cx="187.87" cy="413.64" r="1.62" fill="#f0e0bd"
      opacity="0.14"/><circle cx="374.63" cy="198.09" r="2.02" fill="#f0e0bd"
      opacity="0.4"/><circle cx="367.59" cy="292.78" r="1.74" fill="#f0e0bd"
      opacity="0.12"/><circle cx="400.91" cy="74.28" r="1.51" fill="#f0e0bd"
      opacity="0.19"/><circle cx="402.55" cy="436.99" r="0.74" fill="#f0e0bd"
      opacity="0.24"/><circle cx="512.83" cy="296.81" r="1.23" fill="#f0e0bd"
      opacity="0.27"/><circle cx="410.68" cy="472.89" r="1.8" fill="#f0e0bd"
      opacity="0.2"/><circle cx="482.2" cy="251.98" r="2.22" fill="#f0e0bd"
      opacity="0.26"/><circle cx="381.8" cy="324.85" r="1.21" fill="#f0e0bd"
      opacity="0.3"/><circle cx="520.01" cy="223" r="1.13" fill="#f0e0bd"
      opacity="0.13"/><circle cx="473.53" cy="475.83" r="0.92" fill="#f0e0bd"
      opacity="0.11"/><circle cx="441.79" cy="31.74" r="1.36" fill="#f0e0bd"
      opacity="0.19"/><circle cx="416.55" cy="356.09" r="1.02" fill="#f0e0bd"
      opacity="0.15"/><circle cx="531.49" cy="541.35" r="1.25" fill="#f0e0bd"
      opacity="0.22"/><circle cx="437.06" cy="8.53" r="1.96" fill="#f0e0bd"
      opacity="0.39"/><circle cx="346.64" cy="224.55" r="0.77" fill="#f0e0bd"
      opacity="0.21"/><circle cx="288.64" cy="231.19" r="1.22" fill="#f0e0bd"
      opacity="0.17"/><circle cx="338.41" cy="252.03" r="0.83" fill="#f0e0bd"
      opacity="0.12"/><circle cx="546.52" cy="333.42" r="2.23" fill="#f0e0bd"
      opacity="0.25"/><circle cx="281.5" cy="274.81" r="1.66" fill="#f0e0bd"
      opacity="0.21"/><circle cx="359.65" cy="97.07" r="2.25" fill="#f0e0bd"
      opacity="0.41"/><circle cx="232.84" cy="485.85" r="1.25" fill="#f0e0bd"
      opacity="0.08"/><circle cx="310.04" cy="326.04" r="0.78" fill="#f0e0bd"
      opacity="0.22"/><circle cx="371.45" cy="496.67" r="1.5" fill="#f0e0bd"
      opacity="0.12"/><circle cx="411.82" cy="4.26" r="1.73" fill="#f0e0bd"
      opacity="0.38"/><circle cx="494.48" cy="132.45" r="0.97" fill="#f0e0bd"
      opacity="0.14"/><circle cx="540.97" cy="381.65" r="2.24" fill="#f0e0bd"
      opacity="0.26"/><circle cx="381.42" cy="502.64" r="0.94" fill="#f0e0bd"
      opacity="0.13"/><circle cx="275.55" cy="463.42" r="1.93" fill="#f0e0bd"
      opacity="0.18"/><circle cx="415.6" cy="0.54" r="0.73" fill="#f0e0bd"
      opacity="0.37"/><circle cx="306.98" cy="158.94" r="1.15" fill="#f0e0bd"
      opacity="0.33"/><circle cx="435.74" cy="437.59" r="1.04" fill="#f0e0bd"
      opacity="0.17"/><circle cx="404.81" cy="494.73" r="1.77" fill="#f0e0bd"
      opacity="0.23"/><circle cx="324.44" cy="334.41" r="1.97" fill="#f0e0bd"
      opacity="0.19"/><circle cx="406.04" cy="169.06" r="1" fill="#f0e0bd"
      opacity="0.41"/><circle cx="519.57" cy="399.08" r="1.58" fill="#f0e0bd"
      opacity="0.29"/><circle cx="465.9" cy="332.87" r="2.39" fill="#f0e0bd"
      opacity="0.19"/></g><rect x="186" y="70" width="55.22" height="452" fill="url(#door)"/><rect x="186" y="78" width="55.22" height="4" fill="#000" opacity="0.34"/><rect x="186" y="82" width="55.22" height="1.5" fill="#fff" opacity="0.07"/><rect x="186" y="91" width="55.22" height="4" fill="#000" opacity="0.34"/><rect x="186" y="95" width="55.22" height="1.5" fill="#fff" opacity="0.07"/><rect x="186" y="104" width="55.22" height="4" fill="#000" opacity="0.34"/><rect x="186" y="108" width="55.22" height="1.5" fill="#fff" opacity="0.07"/><rect x="186" y="117" width="55.22" height="4" fill="#000" opacity="0.34"/><rect x="186" y="121" width="55.22" height="1.5" fill="#fff" opacity="0.07"/><rect x="186" y="130" width="55.22" height="4" fill="#000" opacity="0.34"/><rect x="186" y="134" width="55.22" height="1.5" fill="#fff" opacity="0.07"/><rect x="186" y="143" width="55.22" height="4" fill="#000" opacity="0.34"/><rect x="186" y="147" width="55.22" height="1.5" fill="#fff" opacity="0.07"/><rect x="186" y="156" width="55.22" height="4" fill="#000" opacity="0.34"/><rect x="186" y="160" width="55.22" height="1.5" fill="#fff" opacity="0.07"/><rect x="186" y="169" width="55.22" height="4" fill="#000" opacity="0.34"/><rect x="186" y="173" width="55.22" height="1.5" fill="#fff" opacity="0.07"/><rect x="186" y="182" width="55.22" height="4" fill="#000" opacity="0.34"/><rect x="186" y="186" width="55.22" height="1.5" fill="#fff" opacity="0.07"/><rect x="186" y="195" width="55.22" height="4" fill="#000" opacity="0.34"/><rect x="186" y="199" width="55.22" height="1.5" fill="#fff" opacity="0.07"/><rect x="186" y="208" width="55.22" height="4" fill="#000" opacity="0.34"/><rect x="186" y="212" width="55.22" height="1.5" fill="#fff" opacity="0.07"/><rect x="186" y="221" width="55.22" height="4" fill="#000" opacity="0.34"/><rect x="186" y="225" width="55.22" height="1.5" fill="#fff" opacity="0.07"/><rect x="186" y="234" width="55.22" height="4" fill="#000" opacity="0.34"/><rect x="186" y="238" width="55.22" height="1.5" fill="#fff" opacity="0.07"/><rect x="186" y="247" width="55.22" height="4" fill="#000" opacity="0.34"/><rect x="186" y="251" width="55.22" height="1.5" fill="#fff" opacity="0.07"/><rect x="186" y="260" width="55.22" height="4" fill="#000" opacity="0.34"/><rect x="186" y="264" width="55.22" height="1.5" fill="#fff" opacity="0.07"/><rect x="186" y="273" width="55.22" height="4" fill="#000" opacity="0.34"/><rect x="186" y="277" width="55.22" height="1.5" fill="#fff" opacity="0.07"/><rect x="186" y="286" width="55.22" height="4" fill="#000" opacity="0.34"/><rect x="186" y="290" width="55.22" height="1.5" fill="#fff" opacity="0.07"/><rect x="186" y="299" width="55.22" height="4" fill="#000" opacity="0.34"/><rect x="186" y="303" width="55.22" height="1.5" fill="#fff" opacity="0.07"/><rect x="186" y="312" width="55.22" height="4" fill="#000" opacity="0.34"/><rect x="186" y="316" width="55.22" height="1.5" fill="#fff" opacity="0.07"/><rect x="186" y="325" width="55.22" height="4" fill="#000" opacity="0.34"/><rect x="186" y="329" width="55.22" height="1.5" fill="#fff" opacity="0.07"/><rect x="186" y="338" width="55.22" height="4" fill="#000" opacity="0.34"/><rect x="186" y="342" width="55.22" height="1.5" fill="#fff" opacity="0.07"/><rect x="186" y="351" width="55.22" height="4" fill="#000" opacity="0.34"/><rect x="186" y="355" width="55.22" height="1.5" fill="#fff" opacity="0.07"/><rect x="186" y="364" width="55.22" height="4" fill="#000" opacity="0.34"/><rect x="186" y="368" width="55.22" height="1.5" fill="#fff" opacity="0.07"/><rect x="186" y="377" width="55.22" height="4" fill="#000" opacity="0.34"/><rect x="186" y="381" width="55.22" height="1.5" fill="#fff" opacity="0.07"/><rect x="186" y="390" width="55.22" height="4" fill="#000" opacity="0.34"/><rect x="186" y="394" width="55.22" height="1.5" fill="#fff" opacity="0.07"/><rect x="186" y="403" width="55.22" height="4" fill="#000" opacity="0.34"/><rect x="186" y="407" width="55.22" height="1.5" fill="#fff" opacity="0.07"/><rect x="186" y="416" width="55.22" height="4" fill="#000" opacity="0.34"/><rect x="186" y="420" width="55.22" height="1.5" fill="#fff" opacity="0.07"/><rect x="186" y="429" width="55.22" height="4" fill="#000" opacity="0.34"/><rect x="186" y="433" width="55.22" height="1.5" fill="#fff" opacity="0.07"/><rect x="186" y="442" width="55.22" height="4" fill="#000" opacity="0.34"/><rect x="186" y="446" width="55.22" height="1.5" fill="#fff" opacity="0.07"/><rect x="186" y="455" width="55.22" height="4" fill="#000" opacity="0.34"/><rect x="186" y="459" width="55.22" height="1.5" fill="#fff" opacity="0.07"/><rect x="186" y="468" width="55.22" height="4" fill="#000" opacity="0.34"/><rect x="186" y="472" width="55.22" height="1.5" fill="#fff" opacity="0.07"/><rect x="186" y="481" width="55.22" height="4" fill="#000" opacity="0.34"/><rect x="186" y="485" width="55.22" height="1.5" fill="#fff" opacity="0.07"/><rect x="186" y="494" width="55.22" height="4" fill="#000" opacity="0.34"/><rect x="186" y="498" width="55.22" height="1.5" fill="#fff" opacity="0.07"/><rect x="186" y="507" width="55.22" height="4" fill="#000" opacity="0.34"/><rect x="186" y="511" width="55.22" height="1.5" fill="#fff" opacity="0.07"/><rect x="250.22" y="70" width="5" height="452" fill="#000" opacity="0.42"/><rect x="188" y="114" width="34" height="17" rx="3" fill="#4e4b47"/><circle cx="208" cy="122.5" r="3.4" fill="#0a0908"/><rect x="188" y="382" width="34" height="17" rx="3" fill="#4e4b47"/><circle cx="208" cy="390.5" r="3.4" fill="#0a0908"/><g transform="translate(253.22 464)">
    <path d="M 6 0 a 8 8 0 0 1 16 0 v 8 h -16 z" fill="none" stroke="#9a938a" stroke-width="4"/>
    <rect x="0" y="8" width="28" height="22" rx="3" fill="#8d857b"/>
    <rect x="0" y="8" width="28" height="7" rx="3" fill="#b3aaa0" opacity="0.7"/>
    <circle cx="14" cy="19" r="3.6" fill="#26221e"/>
  </g><rect x="617" y="70" width="18" height="452" fill="#0e0c0a"/><rect x="186" y="54" width="448" height="17" fill="#0e0c0a"/><rect x="186" y="54" width="448" height="3" fill="#3a342c" opacity="0.6"/><text x="34.09" y="117.77" font-family="'Arial Black',Arial,sans-serif"
    font-size="29.14" font-weight="900" letter-spacing="2"
    fill="#cbb994" opacity="0.5">R-110</text><rect x="47.24" y="103.21"
      width="4.72" height="2.71" fill="#0c0a09" opacity="0.85"/><rect x="92.19" y="105.81"
      width="5.46" height="3.08" fill="#0c0a09" opacity="0.85"/><rect x="48.12" y="111.33"
      width="6.26" height="1.74" fill="#0c0a09" opacity="0.85"/><rect x="102.85" y="109.04"
      width="8.62" height="2.54" fill="#0c0a09" opacity="0.85"/><rect x="74.87" y="105.75"
      width="11.96" height="2.6" fill="#0c0a09" opacity="0.85"/><rect x="37.05" y="116.3"
      width="10.53" height="3.45" fill="#0c0a09" opacity="0.85"/><rect x="80.78" y="117.77" width="2.02"
    height="14" fill="#8f7f61" opacity="0.22"/><rect width="800" height="600" fill="url(#vig)"/></svg>