<svg xmlns="http://www.w3.org/2000/svg" viewBox="0 0 800 600" width="800" height="600"><defs>
  <linearGradient id="wall" x1="0" y1="0" x2="0" y2="1">
    <stop offset="0" stop-color="#332d26"/>
    <stop offset="1" stop-color="#191512"/>
  </linearGradient>
  <linearGradient id="floor" x1="0" y1="0" x2="0" y2="1">
    <stop offset="0" stop-color="#2a231c"/>
    <stop offset="1" stop-color="#141110"/>
  </linearGradient>
  <linearGradient id="door" x1="0" y1="0" x2="1" y2="0">
    <stop offset="0" stop-color="#5d5b58"/>
    <stop offset="0.45" stop-color="#6f6a62"/>
    <stop offset="1" stop-color="#2c2926"/>
  </linearGradient>
  <linearGradient id="beam" x1="0" y1="0" x2="0" y2="1">
    <stop offset="0" stop-color="#c9b488" stop-opacity="0.3"/>
    <stop offset="0.55" stop-color="#c9b488" stop-opacity="0.14"/>
    <stop offset="1" stop-color="#c9b488" stop-opacity="0"/>
  </linearGradient>
  <linearGradient id="beamCore" x1="0" y1="0" x2="0" y2="1">
    <stop offset="0" stop-color="#fff6de" stop-opacity="0.3"/>
    <stop offset="1" stop-color="#fff6de" stop-opacity="0"/>
  </linearGradient>
  <radialGradient id="backglow">
    <stop offset="0" stop-color="#c9b488" stop-opacity="0.3"/>
    <stop offset="1" stop-color="#c9b488" stop-opacity="0"/>
  </radialGradient>
  <radialGradient id="vig" cx="0.5" cy="0.48" r="0.75">
    <stop offset="0.45" stop-color="#000" stop-opacity="0"/>
    <stop offset="1" stop-color="#000" stop-opacity="0.82"/>
  </radialGradient>
  <radialGradient id="halolight" cx="0.5" cy="0.5" r="0.5">
    <stop offset="0" stop-color="#c9b488" stop-opacity="0.4"/>
    <stop offset="1" stop-color="#c9b488" stop-opacity="0"/>
  </radialGradient>
  <filter id="soft" x="-40%" y="-40%" width="180%" height="180%">
    <feGaussianBlur stdDeviation="7"/>
  </filter>
  <filter id="soft2" x="-40%" y="-40%" width="180%" height="180%">
    <feGaussianBlur stdDeviation="2.4"/>
  </filter>
  <clipPath id="opening">
    <rect x="200" y="84" width="420" height="424" rx="3"/>
  </clipPath>
</defs><rect width="800" height="600" fill="#0c0a09"/><rect width="800" height="600" fill="url(#vig)"/><rect x="0" y="70" width="800" height="2" fill="#1b1714" opacity="0.7"/><rect x="0" y="235" width="800" height="2" fill="#1b1714" opacity="0.7"/><rect x="0" y="400" width="800" height="2" fill="#1b1714" opacity="0.7"/><circle cx="694.17" cy="582.17" r="0.92"
      fill="#4a4238" opacity="0.04"/><circle cx="472.51" cy="377.11" r="1.49"
      fill="#4a4238" opacity="0.07"/><circle cx="18.49" cy="201.88" r="0.8"
      fill="#4a4238" opacity="0.05"/><circle cx="303.44" cy="428.25" r="0.55"
      fill="#4a4238" opacity="0.08"/><circle cx="752.99" cy="335.3" r="1.15"
      fill="#4a4238" opacity="0.04"/><circle cx="219.28" cy="324.7" r="0.75"
      fill="#4a4238" opacity="0.08"/><circle cx="563.45" cy="100.16" r="0.79"
      fill="#4a4238" opacity="0.04"/><circle cx="188.44" cy="94.08" r="0.51"
      fill="#4a4238" opacity="0.09"/><circle cx="151.25" cy="215.04" r="1.31"
      fill="#4a4238" opacity="0.04"/><circle cx="267.1" cy="324.48" r="1.46"
      fill="#4a4238" opacity="0.04"/><circle cx="100.04" cy="126.87" r="1.41"
      fill="#4a4238" opacity="0.04"/><circle cx="448.27" cy="408.39" r="0.78"
      fill="#4a4238" opacity="0.07"/><circle cx="180.45" cy="117.96" r="1.41"
      fill="#4a4238" opacity="0.08"/><circle cx="17.17" cy="570.59" r="0.82"
      fill="#4a4238" opacity="0.04"/><circle cx="758.94" cy="340.71" r="0.54"
      fill="#4a4238" opacity="0.06"/><circle cx="661.97" cy="476.67" r="0.91"
      fill="#4a4238" opacity="0.04"/><circle cx="633.59" cy="351.9" r="1.34"
      fill="#4a4238" opacity="0.06"/><circle cx="417.97" cy="435.03" r="0.99"
      fill="#4a4238" opacity="0.06"/><circle cx="344.98" cy="485.99" r="0.9"
      fill="#4a4238" opacity="0.07"/><circle cx="16.28" cy="222.46" r="0.56"
      fill="#4a4238" opacity="0.04"/><circle cx="610.09" cy="351.89" r="0.99"
      fill="#4a4238" opacity="0.07"/><circle cx="264.21" cy="208.99" r="1.08"
      fill="#4a4238" opacity="0.05"/><circle cx="655.59" cy="377.75" r="0.81"
      fill="#4a4238" opacity="0.04"/><circle cx="88.13" cy="241.85" r="0.67"
      fill="#4a4238" opacity="0.06"/><circle cx="491.66" cy="294.01" r="1.17"
      fill="#4a4238" opacity="0.05"/><circle cx="738.66" cy="349.89" r="0.85"
      fill="#4a4238" opacity="0.04"/><circle cx="107.91" cy="59.41" r="1.05"
      fill="#4a4238" opacity="0.08"/><circle cx="760.95" cy="352.07" r="1.39"
      fill="#4a4238" opacity="0.08"/><circle cx="403.84" cy="11.22" r="0.57"
      fill="#4a4238" opacity="0.06"/><circle cx="291.31" cy="357.32" r="0.55"
      fill="#4a4238" opacity="0.06"/><circle cx="56.47" cy="548.55" r="1.31"
      fill="#4a4238" opacity="0.07"/><circle cx="731.87" cy="580.11" r="1.02"
      fill="#4a4238" opacity="0.04"/><circle cx="195.64" cy="460.88" r="0.96"
      fill="#4a4238" opacity="0.07"/><circle cx="684.81" cy="66.41" r="0.68"
      fill="#4a4238" opacity="0.08"/><circle cx="709.22" cy="119.89" r="0.58"
      fill="#4a4238" opacity="0.08"/><circle cx="497.38" cy="41.3" r="0.95"
      fill="#4a4238" opacity="0.07"/><circle cx="388.64" cy="291.26" r="1.43"
      fill="#4a4238" opacity="0.04"/><circle cx="672.08" cy="12.83" r="1.35"
      fill="#4a4238" opacity="0.07"/><circle cx="127.04" cy="568.57" r="1.26"
      fill="#4a4238" opacity="0.08"/><circle cx="419.61" cy="563.9" r="0.81"
      fill="#4a4238" opacity="0.04"/><circle cx="379.18" cy="354.23" r="0.51"
      fill="#4a4238" opacity="0.05"/><circle cx="308.02" cy="5.65" r="1.28"
      fill="#4a4238" opacity="0.08"/><circle cx="72.87" cy="158.77" r="1.33"
      fill="#4a4238" opacity="0.06"/><circle cx="183.19" cy="424.52" r="0.76"
      fill="#4a4238" opacity="0.09"/><circle cx="56.38" cy="507.35" r="1.17"
      fill="#4a4238" opacity="0.06"/><circle cx="490.38" cy="45.4" r="1.12"
      fill="#4a4238" opacity="0.06"/><circle cx="523.55" cy="190.36" r="1.06"
      fill="#4a4238" opacity="0.04"/><circle cx="657.17" cy="426.09" r="1.21"
      fill="#4a4238" opacity="0.06"/><circle cx="89.17" cy="396.53" r="0.66"
      fill="#4a4238" opacity="0.07"/><circle cx="583.71" cy="64.96" r="1.02"
      fill="#4a4238" opacity="0.05"/><circle cx="750.58" cy="191.88" r="0.73"
      fill="#4a4238" opacity="0.08"/><circle cx="309.03" cy="212.99" r="0.76"
      fill="#4a4238" opacity="0.06"/><circle cx="101.23" cy="140.39" r="1.38"
      fill="#4a4238" opacity="0.09"/><circle cx="281.64" cy="259.52" r="1.17"
      fill="#4a4238" opacity="0.06"/><circle cx="376.83" cy="33.12" r="1.46"
      fill="#4a4238" opacity="0.07"/><circle cx="636.9" cy="383.86" r="0.92"
      fill="#4a4238" opacity="0.08"/><circle cx="560.64" cy="157.27" r="1.21"
      fill="#4a4238" opacity="0.09"/><circle cx="752.1" cy="198.12" r="1.35"
      fill="#4a4238" opacity="0.09"/><circle cx="473.91" cy="368.69" r="0.85"
      fill="#4a4238" opacity="0.05"/><circle cx="267.37" cy="387.47" r="0.98"
      fill="#4a4238" opacity="0.06"/><circle cx="596.87" cy="337.83" r="0.9"
      fill="#4a4238" opacity="0.07"/><circle cx="172.6" cy="478.57" r="0.57"
      fill="#4a4238" opacity="0.09"/><circle cx="315.74" cy="199.47" r="1.05"
      fill="#4a4238" opacity="0.09"/><circle cx="615.36" cy="301.48" r="1.3"
      fill="#4a4238" opacity="0.08"/><circle cx="54.56" cy="291.25" r="1.33"
      fill="#4a4238" opacity="0.07"/><circle cx="299.59" cy="121.52" r="0.87"
      fill="#4a4238" opacity="0.09"/><circle cx="782.17" cy="226.48" r="0.88"
      fill="#4a4238" opacity="0.08"/><circle cx="168.07" cy="480.74" r="0.92"
      fill="#4a4238" opacity="0.04"/><circle cx="707.02" cy="361.25" r="0.54"
      fill="#4a4238" opacity="0.04"/><circle cx="446.29" cy="406.83" r="1.11"
      fill="#4a4238" opacity="0.05"/><circle cx="512.8" cy="533.11" r="0.68"
      fill="#4a4238" opacity="0.09"/><circle cx="389.86" cy="309.4" r="1.06"
      fill="#4a4238" opacity="0.04"/><circle cx="140.65" cy="77.14" r="0.98"
      fill="#4a4238" opacity="0.05"/><circle cx="483.7" cy="562.16" r="0.66"
      fill="#4a4238" opacity="0.04"/><circle cx="196.93" cy="162.52" r="1.35"
      fill="#4a4238" opacity="0.05"/><circle cx="12.93" cy="163.88" r="1.13"
      fill="#4a4238" opacity="0.09"/><circle cx="230.08" cy="100.7" r="1.28"
      fill="#4a4238" opacity="0.09"/><circle cx="713.8" cy="30.39" r="0.93"
      fill="#4a4238" opacity="0.04"/><circle cx="240.48" cy="285.14" r="0.54"
      fill="#4a4238" opacity="0.07"/><circle cx="188.03" cy="553.45" r="1.12"
      fill="#4a4238" opacity="0.06"/><circle cx="459.98" cy="460.86" r="1.27"
      fill="#4a4238" opacity="0.07"/><circle cx="414.76" cy="354.7" r="1.4"
      fill="#4a4238" opacity="0.08"/><circle cx="411.02" cy="366.79" r="1.02"
      fill="#4a4238" opacity="0.06"/><circle cx="737.45" cy="537.38" r="0.58"
      fill="#4a4238" opacity="0.06"/><circle cx="459" cy="101.28" r="1.49"
      fill="#4a4238" opacity="0.06"/><circle cx="484.92" cy="321.68" r="1.28"
      fill="#4a4238" opacity="0.06"/><circle cx="171.35" cy="285.41" r="0.74"
      fill="#4a4238" opacity="0.08"/><circle cx="699.35" cy="435.65" r="1.16"
      fill="#4a4238" opacity="0.04"/><circle cx="768.81" cy="71.29" r="0.93"
      fill="#4a4238" opacity="0.05"/><circle cx="40.64" cy="587.64" r="1.04"
      fill="#4a4238" opacity="0.07"/><rect x="174" y="58" width="472" height="476"
    rx="6" fill="#151210"/><rect x="186" y="70" width="448" height="452"
    rx="4" fill="url(#door)"/><g clip-path="url(#opening)"><rect x="200" y="84" width="420" height="322" fill="url(#wall)"/><path d="200,84 246,114 246,410 200,406" fill="#000" opacity="0.34"/><path d="620,84 574,114 574,410 620,406" fill="#000" opacity="0.34"/><rect x="200" y="402" width="420" height="110" fill="url(#floor)"/><rect x="200" y="402" width="420" height="1.5" fill="#000" opacity="0.5"/><ellipse cx="345.93" cy="103.01" rx="24.07" ry="77.57"
      fill="#0d0a07" opacity="0.09"/><ellipse cx="431.13" cy="192.77" rx="19.41" ry="56.78"
      fill="#0d0a07" opacity="0.19"/><ellipse cx="306.81" cy="278.26" rx="35.18" ry="25.54"
      fill="#0d0a07" opacity="0.19"/><ellipse cx="577.25" cy="155.89" rx="32.65" ry="56.74"
      fill="#0d0a07" opacity="0.12"/><circle cx="415.58" cy="377.38" r="0.53"
      fill="#000" opacity="0.12"/><circle cx="606.71" cy="365.76" r="1.33"
      fill="#000" opacity="0.19"/><circle cx="321.38" cy="303.99" r="1.02"
      fill="#000" opacity="0.1"/><circle cx="569.64" cy="95.32" r="1.37"
      fill="#000" opacity="0.12"/><circle cx="486.16" cy="393.29" r="1.06"
      fill="#000" opacity="0.1"/><circle cx="481.84" cy="262.04" r="0.72"
      fill="#000" opacity="0.13"/><circle cx="309.5" cy="166.53" r="1.11"
      fill="#000" opacity="0.22"/><circle cx="594.99" cy="236.09" r="1.05"
      fill="#000" opacity="0.1"/><circle cx="219.24" cy="121.49" r="1.22"
      fill="#000" opacity="0.17"/><circle cx="209.22" cy="356.01" r="1.42"
      fill="#000" opacity="0.17"/><circle cx="414.33" cy="326.7" r="0.79"
      fill="#000" opacity="0.17"/><circle cx="304.34" cy="249.83" r="1.33"
      fill="#000" opacity="0.17"/><circle cx="616.3" cy="365.09" r="1"
      fill="#000" opacity="0.12"/><circle cx="281.78" cy="314.37" r="1.43"
      fill="#000" opacity="0.12"/><circle cx="562.79" cy="177.41" r="1.25"
      fill="#000" opacity="0.1"/><circle cx="614.36" cy="361.9" r="0.83"
      fill="#000" opacity="0.17"/><circle cx="228.63" cy="180.99" r="0.67"
      fill="#000" opacity="0.17"/><circle cx="323.41" cy="257.49" r="0.64"
      fill="#000" opacity="0.18"/><circle cx="557.43" cy="323.75" r="1.22"
      fill="#000" opacity="0.14"/><circle cx="598.53" cy="186.58" r="1.47"
      fill="#000" opacity="0.22"/><circle cx="219.4" cy="117.99" r="0.55"
      fill="#000" opacity="0.11"/><circle cx="507.67" cy="197.77" r="0.7"
      fill="#000" opacity="0.19"/><circle cx="253.14" cy="238.83" r="1.04"
      fill="#000" opacity="0.12"/><circle cx="612.38" cy="87.6" r="0.66"
      fill="#000" opacity="0.22"/><circle cx="497.67" cy="158.33" r="1.42"
      fill="#000" opacity="0.16"/><circle cx="422.52" cy="224.74" r="1.07"
      fill="#000" opacity="0.15"/><circle cx="529.08" cy="151.24" r="1.19"
      fill="#000" opacity="0.22"/><circle cx="348.28" cy="85.81" r="0.7"
      fill="#000" opacity="0.1"/><circle cx="230.74" cy="371.18" r="1.26"
      fill="#000" opacity="0.11"/><circle cx="255.58" cy="232.05" r="1.24"
      fill="#000" opacity="0.17"/><circle cx="438.57" cy="97.75" r="0.63"
      fill="#000" opacity="0.11"/><circle cx="511.86" cy="383.01" r="0.74"
      fill="#000" opacity="0.09"/><circle cx="523.7" cy="394.28" r="1.1"
      fill="#000" opacity="0.09"/><circle cx="322.71" cy="167.56" r="1.47"
      fill="#000" opacity="0.1"/><circle cx="398.55" cy="305.85" r="1.24"
      fill="#000" opacity="0.14"/><circle cx="375.89" cy="319.54" r="0.61"
      fill="#000" opacity="0.2"/><circle cx="471.51" cy="343.68" r="0.63"
      fill="#000" opacity="0.21"/><circle cx="312.71" cy="306.95" r="0.81"
      fill="#000" opacity="0.17"/><circle cx="357.12" cy="358.81" r="1.33"
      fill="#000" opacity="0.13"/><circle cx="461.89" cy="140.61" r="0.75"
      fill="#000" opacity="0.21"/><circle cx="313.57" cy="285.02" r="1.48"
      fill="#000" opacity="0.21"/><circle cx="544.88" cy="85.96" r="0.89"
      fill="#000" opacity="0.18"/><circle cx="484.02" cy="274.56" r="1.27"
      fill="#000" opacity="0.16"/><circle cx="306.5" cy="109.11" r="1.24"
      fill="#000" opacity="0.21"/><circle cx="583.95" cy="99.91" r="1.34"
      fill="#000" opacity="0.12"/><circle cx="387.18" cy="365.6" r="0.76"
      fill="#000" opacity="0.14"/><circle cx="513.95" cy="252.81" r="0.52"
      fill="#000" opacity="0.13"/><circle cx="339.39" cy="372.45" r="1.43"
      fill="#000" opacity="0.11"/><circle cx="309.82" cy="396.94" r="1.07"
      fill="#000" opacity="0.09"/><circle cx="550.87" cy="224.33" r="0.7"
      fill="#000" opacity="0.17"/><circle cx="305.57" cy="221.43" r="0.79"
      fill="#000" opacity="0.13"/><circle cx="524.19" cy="327.92" r="1.49"
      fill="#000" opacity="0.15"/><circle cx="504.85" cy="185.05" r="1.33"
      fill="#000" opacity="0.2"/><circle cx="380.44" cy="338.12" r="0.96"
      fill="#000" opacity="0.22"/><circle cx="577.54" cy="194.52" r="0.69"
      fill="#000" opacity="0.13"/><circle cx="386.65" cy="301.36" r="0.91"
      fill="#000" opacity="0.09"/><circle cx="291.39" cy="303.3" r="1.41"
      fill="#000" opacity="0.18"/><circle cx="326.9" cy="89.41" r="1.1"
      fill="#000" opacity="0.21"/><circle cx="565.97" cy="265.23" r="0.79"
      fill="#000" opacity="0.16"/><circle cx="363.73" cy="159.52" r="0.7"
      fill="#000" opacity="0.09"/><circle cx="321.23" cy="162.23" r="1.45"
      fill="#000" opacity="0.19"/><circle cx="218.37" cy="148.44" r="1.09"
      fill="#000" opacity="0.2"/><circle cx="429.49" cy="363.55" r="0.54"
      fill="#000" opacity="0.19"/><circle cx="324.78" cy="360.3" r="1.01"
      fill="#000" opacity="0.13"/><circle cx="530.64" cy="257.18" r="0.81"
      fill="#000" opacity="0.15"/><circle cx="555.4" cy="159.4" r="1.03"
      fill="#000" opacity="0.19"/><circle cx="311.44" cy="252.77" r="1.07"
      fill="#000" opacity="0.1"/><circle cx="590.02" cy="247.11" r="0.6"
      fill="#000" opacity="0.14"/><circle cx="226.63" cy="166.9" r="0.53"
      fill="#000" opacity="0.11"/><circle cx="411.1" cy="380.7" r="0.69"
      fill="#000" opacity="0.16"/><ellipse cx="407.97" cy="362" rx="128.41" ry="150"
    fill="url(#backglow)" opacity="0.7"/><ellipse cx="446.66" cy="487.27" rx="8.99" ry="3.73"
        fill="#4a3f30" opacity="0.39"/><path d="M 310.86 463.54 l -5.87 2.48
        l -5.88 2.3" stroke="#5c4e3a"
        stroke-width="2.08" fill="none" opacity="0.39"/><ellipse cx="242.35" cy="472.86" rx="7.88" ry="4.7"
        fill="#4a3f30" opacity="0.39"/><path d="M 432.82 474.6 l -5.03 -2.91
        l -1.99 -3.1" stroke="#5c4e3a"
        stroke-width="2.01" fill="none" opacity="0.35"/><rect x="285.72" y="479.59" width="24.85" height="4.48"
        fill="#6b5b44" opacity="0.41" transform="rotate(3.48 285.72 479.59)"/><rect x="529.92" y="468.45" width="21.89" height="4.2"
        fill="#6b5b44" opacity="0.46" transform="rotate(0.3 529.92 468.45)"/><ellipse cx="432.19" cy="479.23" rx="4.48" ry="3.46"
        fill="#4a3f30" opacity="0.42"/><path d="M 394.07 473.16 l 2.07 4.6
        l 2.31 -0.49" stroke="#5c4e3a"
        stroke-width="1.87" fill="none" opacity="0.36"/><rect x="566.71" y="484.17" width="25.07" height="4.58"
        fill="#6b5b44" opacity="0.38" transform="rotate(14.89 566.71 484.17)"/><ellipse cx="410" cy="449" rx="87.48" ry="12" fill="#000" opacity="0.5" filter="url(#soft)"/>
      <rect x="330.48" y="331.74" width="159.05" height="114.26" rx="5" fill="#6d6d6e"/>
      <rect x="334.48" y="335.74" width="31.81" height="106.26" fill="#fff" opacity="0.1"/>
      <rect x="336.48" y="337.74" width="147.05" height="16" rx="3" fill="#474748"/>
      <ellipse cx="375.01" cy="345.74" rx="10" ry="4" fill="#e8c96a" opacity="0.7"/>
      <ellipse cx="448.17" cy="345.74" rx="10" ry="4" fill="#e8c96a" opacity="0.7"/>
      <rect x="336.48" y="361.74" width="147.05" height="57.13" rx="4" fill="#4e4e4f"/>
      <rect x="362.29" y="367.74" width="89.07" height="41.13" rx="3" fill="#0f0d0b" opacity="0.8"/>
      <rect x="368.65" y="371.74" width="63.62" height="22.85" fill="#7a6a4a" opacity="0.35"/>
      <rect x="336.48" y="420" width="147.05" height="20" rx="3" fill="#414142"/><circle cx="357.51" cy="430" r="9" fill="#474748"/><circle cx="357.51" cy="430" r="4.5" fill="#1a1713"/><circle cx="355.51" cy="428" r="2" fill="#fff" opacity="0.18"/><circle cx="392.5" cy="430" r="9" fill="#474748"/><circle cx="392.5" cy="430" r="4.5" fill="#1a1713"/><circle cx="390.5" cy="428" r="2" fill="#fff" opacity="0.18"/><circle cx="427.5" cy="430" r="9" fill="#474748"/><circle cx="427.5" cy="430" r="4.5" fill="#1a1713"/><circle cx="425.5" cy="428" r="2" fill="#fff" opacity="0.18"/><circle cx="462.49" cy="430" r="9" fill="#474748"/><circle cx="462.49" cy="430" r="4.5" fill="#1a1713"/><circle cx="460.49" cy="428" r="2" fill="#fff" opacity="0.18"/><ellipse cx="426.05" cy="413.88" rx="3.48" ry="2"
      fill="#2a1d10" opacity="0.15"/><ellipse cx="431.03" cy="377.66" rx="2.73" ry="1.69"
      fill="#2a1d10" opacity="0.24"/><ellipse cx="413.24" cy="426.76" rx="9.06" ry="6.67"
      fill="#2a1d10" opacity="0.1"/><ellipse cx="387.15" cy="395.16" rx="4.69" ry="3.26"
      fill="#2a1d10" opacity="0.23"/><ellipse cx="452.8" cy="372.95" rx="9.44" ry="6.7"
      fill="#2a1d10" opacity="0.12"/><polygon points="485.4,-60 132.56,640 702.61,640" fill="url(#beam)"/><polygon points="485.4,-60 320.68,640 514.5,640" fill="url(#beamCore)"/><circle cx="435.91" cy="288.08" r="1.17" fill="#f0e0bd"
      opacity="0.36"/><circle cx="470.42" cy="210.16" r="2.05" fill="#f0e0bd"
      opacity="0.21"/><circle cx="570.83" cy="450.12" r="0.86" fill="#f0e0bd"
      opacity="0.19"/><circle cx="213.21" cy="397.07" r="0.96" fill="#f0e0bd"
      opacity="0.16"/><circle cx="370.77" cy="379.11" r="1.96" fill="#f0e0bd"
      opacity="0.14"/><circle cx="421.25" cy="407.51" r="1.55" fill="#f0e0bd"
      opacity="0.08"/><circle cx="558.45" cy="311.59" r="1.08" fill="#f0e0bd"
      opacity="0.11"/><circle cx="197.29" cy="504.37" r="1.54" fill="#f0e0bd"
      opacity="0.25"/><circle cx="374.61" cy="232.92" r="1.55" fill="#f0e0bd"
      opacity="0.11"/><circle cx="461.43" cy="236.46" r="2.2" fill="#f0e0bd"
      opacity="0.17"/><circle cx="401.65" cy="307.19" r="0.9" fill="#f0e0bd"
      opacity="0.35"/><circle cx="518.93" cy="359.05" r="2.25" fill="#f0e0bd"
      opacity="0.19"/><circle cx="488.46" cy="382.59" r="1.7" fill="#f0e0bd"
      opacity="0.13"/><circle cx="383.74" cy="247.99" r="1.27" fill="#f0e0bd"
      opacity="0.28"/><circle cx="388.57" cy="21.28" r="1.66" fill="#f0e0bd"
      opacity="0.39"/><circle cx="423.59" cy="90.96" r="2.25" fill="#f0e0bd"
      opacity="0.11"/><circle cx="277.06" cy="521.34" r="2.23" fill="#f0e0bd"
      opacity="0.17"/><circle cx="620" cy="418.52" r="2.3" fill="#f0e0bd"
      opacity="0.22"/><circle cx="617.05" cy="508.79" r="2.12" fill="#f0e0bd"
      opacity="0.17"/><circle cx="327.22" cy="180.5" r="1.43" fill="#f0e0bd"
      opacity="0.3"/><circle cx="184.16" cy="454.46" r="2.09" fill="#f0e0bd"
      opacity="0.19"/><circle cx="461.69" cy="9.83" r="1.53" fill="#f0e0bd"
      opacity="0.32"/><circle cx="440.68" cy="31.38" r="1.9" fill="#f0e0bd"
      opacity="0.44"/><circle cx="407.77" cy="97.7" r="2.02" fill="#f0e0bd"
      opacity="0.39"/><circle cx="429.42" cy="495.88" r="2.09" fill="#f0e0bd"
      opacity="0.19"/><circle cx="567.5" cy="258.87" r="1.41" fill="#f0e0bd"
      opacity="0.27"/><circle cx="419.38" cy="14.25" r="0.73" fill="#f0e0bd"
      opacity="0.19"/><circle cx="309.3" cy="321.66" r="0.77" fill="#f0e0bd"
      opacity="0.35"/><circle cx="647.88" cy="500.89" r="2.06" fill="#f0e0bd"
      opacity="0.16"/><circle cx="597.24" cy="525.33" r="1.44" fill="#f0e0bd"
      opacity="0.07"/><circle cx="414.5" cy="45.16" r="1.77" fill="#f0e0bd"
      opacity="0.21"/><circle cx="354.69" cy="61.24" r="1.71" fill="#f0e0bd"
      opacity="0.29"/><circle cx="518.83" cy="479.57" r="2.11" fill="#f0e0bd"
      opacity="0.16"/><circle cx="519.12" cy="289.71" r="1.97" fill="#f0e0bd"
      opacity="0.32"/><circle cx="347.34" cy="239.64" r="1.43" fill="#f0e0bd"
      opacity="0.13"/><circle cx="413.49" cy="355.78" r="2.02" fill="#f0e0bd"
      opacity="0.14"/><circle cx="458.83" cy="176.22" r="1.97" fill="#f0e0bd"
      opacity="0.42"/><circle cx="555.33" cy="267.48" r="2.05" fill="#f0e0bd"
      opacity="0.28"/><circle cx="460.72" cy="342.62" r="1.88" fill="#f0e0bd"
      opacity="0.15"/><circle cx="383.31" cy="2.23" r="1.25" fill="#f0e0bd"
      opacity="0.21"/><circle cx="214.18" cy="410.52" r="1.71" fill="#f0e0bd"
      opacity="0.12"/><circle cx="455.27" cy="505.4" r="1.69" fill="#f0e0bd"
      opacity="0.13"/><circle cx="312.82" cy="362.63" r="1.15" fill="#f0e0bd"
      opacity="0.24"/><circle cx="585.1" cy="336.53" r="1.2" fill="#f0e0bd"
      opacity="0.3"/><circle cx="504.92" cy="248" r="0.71" fill="#f0e0bd"
      opacity="0.37"/><circle cx="565.96" cy="297.31" r="1.7" fill="#f0e0bd"
      opacity="0.18"/><circle cx="438.02" cy="424.85" r="1.07" fill="#f0e0bd"
      opacity="0.11"/><circle cx="435.37" cy="37.05" r="1.25" fill="#f0e0bd"
      opacity="0.43"/><circle cx="206.67" cy="432.34" r="1.83" fill="#f0e0bd"
      opacity="0.13"/><circle cx="385.94" cy="6.76" r="2.12" fill="#f0e0bd"
      opacity="0.45"/><circle cx="260.6" cy="414.11" r="2.09" fill="#f0e0bd"
      opacity="0.25"/><circle cx="508.56" cy="142.39" r="1.01" fill="#f0e0bd"
      opacity="0.41"/><circle cx="593.34" cy="476.4" r="1.19" fill="#f0e0bd"
      opacity="0.1"/><circle cx="447.15" cy="30.78" r="2.13" fill="#f0e0bd"
      opacity="0.28"/><circle cx="424.93" cy="275.75" r="2.08" fill="#f0e0bd"
      opacity="0.12"/><circle cx="407.68" cy="392.45" r="0.98" fill="#f0e0bd"
      opacity="0.21"/><circle cx="389.64" cy="449.57" r="1.18" fill="#f0e0bd"
      opacity="0.11"/><circle cx="322.65" cy="463.99" r="1.31" fill="#f0e0bd"
      opacity="0.29"/><circle cx="478.57" cy="152.58" r="1.09" fill="#f0e0bd"
      opacity="0.14"/><circle cx="340.77" cy="140.36" r="0.97" fill="#f0e0bd"
      opacity="0.38"/><circle cx="415.69" cy="81.98" r="1.66" fill="#f0e0bd"
      opacity="0.34"/><circle cx="400.38" cy="15.69" r="1.62" fill="#f0e0bd"
      opacity="0.3"/><circle cx="371.23" cy="262.44" r="0.73" fill="#f0e0bd"
      opacity="0.14"/><circle cx="315.32" cy="333.97" r="0.81" fill="#f0e0bd"
      opacity="0.28"/><circle cx="346.89" cy="331.99" r="1.89" fill="#f0e0bd"
      opacity="0.22"/><circle cx="305.28" cy="294.92" r="2.37" fill="#f0e0bd"
      opacity="0.32"/><circle cx="573.13" cy="282.49" r="1.37" fill="#f0e0bd"
      opacity="0.1"/><circle cx="439.11" cy="289.55" r="1.29" fill="#f0e0bd"
      opacity="0.12"/><circle cx="332.19" cy="415.7" r="1.2" fill="#f0e0bd"
      opacity="0.17"/></g><rect x="186" y="70" width="51.83" height="452" fill="url(#door)"/><rect x="186" y="78" width="51.83" height="4" fill="#000" opacity="0.34"/><rect x="186" y="82" width="51.83" height="1.5" fill="#fff" opacity="0.07"/><rect x="186" y="91" width="51.83" height="4" fill="#000" opacity="0.34"/><rect x="186" y="95" width="51.83" height="1.5" fill="#fff" opacity="0.07"/><rect x="186" y="104" width="51.83" height="4" fill="#000" opacity="0.34"/><rect x="186" y="108" width="51.83" height="1.5" fill="#fff" opacity="0.07"/><rect x="186" y="117" width="51.83" height="4" fill="#000" opacity="0.34"/><rect x="186" y="121" width="51.83" height="1.5" fill="#fff" opacity="0.07"/><rect x="186" y="130" width="51.83" height="4" fill="#000" opacity="0.34"/><rect x="186" y="134" width="51.83" height="1.5" fill="#fff" opacity="0.07"/><rect x="186" y="143" width="51.83" height="4" fill="#000" opacity="0.34"/><rect x="186" y="147" width="51.83" height="1.5" fill="#fff" opacity="0.07"/><rect x="186" y="156" width="51.83" height="4" fill="#000" opacity="0.34"/><rect x="186" y="160" width="51.83" height="1.5" fill="#fff" opacity="0.07"/><rect x="186" y="169" width="51.83" height="4" fill="#000" opacity="0.34"/><rect x="186" y="173" width="51.83" height="1.5" fill="#fff" opacity="0.07"/><rect x="186" y="182" width="51.83" height="4" fill="#000" opacity="0.34"/><rect x="186" y="186" width="51.83" height="1.5" fill="#fff" opacity="0.07"/><rect x="186" y="195" width="51.83" height="4" fill="#000" opacity="0.34"/><rect x="186" y="199" width="51.83" height="1.5" fill="#fff" opacity="0.07"/><rect x="186" y="208" width="51.83" height="4" fill="#000" opacity="0.34"/><rect x="186" y="212" width="51.83" height="1.5" fill="#fff" opacity="0.07"/><rect x="186" y="221" width="51.83" height="4" fill="#000" opacity="0.34"/><rect x="186" y="225" width="51.83" height="1.5" fill="#fff" opacity="0.07"/><rect x="186" y="234" width="51.83" height="4" fill="#000" opacity="0.34"/><rect x="186" y="238" width="51.83" height="1.5" fill="#fff" opacity="0.07"/><rect x="186" y="247" width="51.83" height="4" fill="#000" opacity="0.34"/><rect x="186" y="251" width="51.83" height="1.5" fill="#fff" opacity="0.07"/><rect x="186" y="260" width="51.83" height="4" fill="#000" opacity="0.34"/><rect x="186" y="264" width="51.83" height="1.5" fill="#fff" opacity="0.07"/><rect x="186" y="273" width="51.83" height="4" fill="#000" opacity="0.34"/><rect x="186" y="277" width="51.83" height="1.5" fill="#fff" opacity="0.07"/><rect x="186" y="286" width="51.83" height="4" fill="#000" opacity="0.34"/><rect x="186" y="290" width="51.83" height="1.5" fill="#fff" opacity="0.07"/><rect x="186" y="299" width="51.83" height="4" fill="#000" opacity="0.34"/><rect x="186" y="303" width="51.83" height="1.5" fill="#fff" opacity="0.07"/><rect x="186" y="312" width="51.83" height="4" fill="#000" opacity="0.34"/><rect x="186" y="316" width="51.83" height="1.5" fill="#fff" opacity="0.07"/><rect x="186" y="325" width="51.83" height="4" fill="#000" opacity="0.34"/><rect x="186" y="329" width="51.83" height="1.5" fill="#fff" opacity="0.07"/><rect x="186" y="338" width="51.83" height="4" fill="#000" opacity="0.34"/><rect x="186" y="342" width="51.83" height="1.5" fill="#fff" opacity="0.07"/><rect x="186" y="351" width="51.83" height="4" fill="#000" opacity="0.34"/><rect x="186" y="355" width="51.83" height="1.5" fill="#fff" opacity="0.07"/><rect x="186" y="364" width="51.83" height="4" fill="#000" opacity="0.34"/><rect x="186" y="368" width="51.83" height="1.5" fill="#fff" opacity="0.07"/><rect x="186" y="377" width="51.83" height="4" fill="#000" opacity="0.34"/><rect x="186" y="381" width="51.83" height="1.5" fill="#fff" opacity="0.07"/><rect x="186" y="390" width="51.83" height="4" fill="#000" opacity="0.34"/><rect x="186" y="394" width="51.83" height="1.5" fill="#fff" opacity="0.07"/><rect x="186" y="403" width="51.83" height="4" fill="#000" opacity="0.34"/><rect x="186" y="407" width="51.83" height="1.5" fill="#fff" opacity="0.07"/><rect x="186" y="416" width="51.83" height="4" fill="#000" opacity="0.34"/><rect x="186" y="420" width="51.83" height="1.5" fill="#fff" opacity="0.07"/><rect x="186" y="429" width="51.83" height="4" fill="#000" opacity="0.34"/><rect x="186" y="433" width="51.83" height="1.5" fill="#fff" opacity="0.07"/><rect x="186" y="442" width="51.83" height="4" fill="#000" opacity="0.34"/><rect x="186" y="446" width="51.83" height="1.5" fill="#fff" opacity="0.07"/><rect x="186" y="455" width="51.83" height="4" fill="#000" opacity="0.34"/><rect x="186" y="459" width="51.83" height="1.5" fill="#fff" opacity="0.07"/><rect x="186" y="468" width="51.83" height="4" fill="#000" opacity="0.34"/><rect x="186" y="472" width="51.83" height="1.5" fill="#fff" opacity="0.07"/><rect x="186" y="481" width="51.83" height="4" fill="#000" opacity="0.34"/><rect x="186" y="485" width="51.83" height="1.5" fill="#fff" opacity="0.07"/><rect x="186" y="494" width="51.83" height="4" fill="#000" opacity="0.34"/><rect x="186" y="498" width="51.83" height="1.5" fill="#fff" opacity="0.07"/><rect x="186" y="507" width="51.83" height="4" fill="#000" opacity="0.34"/><rect x="186" y="511" width="51.83" height="1.5" fill="#fff" opacity="0.07"/><rect x="246.83" y="70" width="5" height="452" fill="#000" opacity="0.42"/><rect x="188" y="114" width="34" height="17" rx="3" fill="#4e4b47"/><circle cx="208" cy="122.5" r="3.4" fill="#0a0908"/><rect x="188" y="382" width="34" height="17" rx="3" fill="#4e4b47"/><circle cx="208" cy="390.5" r="3.4" fill="#0a0908"/><g transform="translate(249.83 464)">
    <path d="M 6 0 a 8 8 0 0 1 16 0 v 8 h -16 z" fill="none" stroke="#9a938a" stroke-width="4"/>
    <rect x="0" y="8" width="28" height="22" rx="3" fill="#8d857b"/>
    <rect x="0" y="8" width="28" height="7" rx="3" fill="#b3aaa0" opacity="0.7"/>
    <circle cx="14" cy="19" r="3.6" fill="#26221e"/>
  </g><rect x="617" y="70" width="18" height="452" fill="#0e0c0a"/><rect x="186" y="54" width="448" height="17" fill="#0e0c0a"/><rect x="186" y="54" width="448" height="3" fill="#3a342c" opacity="0.6"/><text x="28.74" y="115.25" font-family="'Arial Black',Arial,sans-serif"
    font-size="33.9" font-weight="900" letter-spacing="2"
    fill="#cbb994" opacity="0.5">12-677</text><rect x="42.99" y="110.24"
      width="7.64" height="3.23" fill="#0c0a09" opacity="0.85"/><rect x="36.91" y="105.02"
      width="7.38" height="2.9" fill="#0c0a09" opacity="0.85"/><rect x="74.68" y="111.32"
      width="11.13" height="3.95" fill="#0c0a09" opacity="0.85"/><rect x="69.08" y="99.76"
      width="7.88" height="3.98" fill="#0c0a09" opacity="0.85"/><rect x="116.6" y="97.05"
      width="5.99" height="3.83" fill="#0c0a09" opacity="0.85"/><rect x="46.12" y="115.25" width="4.49"
    height="14.79" fill="#8f7f61" opacity="0.22"/><rect width="800" height="600" fill="url(#vig)"/></svg>